<?xml version="1.0" encoding="UTF-8" standalone="no"?>

<svg
   xmlns:dc="http://purl.org/dc/elements/1.1/"
   xmlns:rdf="http://www.w3.org/1999/02/22-rdf-syntax-ns#"
   xmlns:svg="http://www.w3.org/2000/svg"
   xmlns="http://www.w3.org/2000/svg"
   xmlns:sodipodi="http://sodipodi.sourceforge.net/DTD/sodipodi-0.dtd"
   xmlns:inkscape="http://www.inkscape.org/namespaces/inkscape"
   version="1.1"
   width="512"
   height="512"
   viewBox="0 0 512 512"
   id="svg18"
   sodipodi:docname="looking-glass.svg"
   inkscape:version="0.92.5 (2060ec1f9f, 2020-04-08)">
  <metadata
     id="metadata24">
    <rdf:RDF>
      <cc:Work
         rdf:about="">
        <dc:format>image/svg+xml</dc:format>
        <dc:type
           rdf:resource="http://purl.org/dc/dcmitype/StillImage" />
      </cc:Work>
    </rdf:RDF>
  </metadata>
  <defs
     id="defs22" />
  <sodipodi:namedview
     pagecolor="#ffffff"
     bordercolor="#666666"
     borderopacity="1"
     objecttolerance="10"
     gridtolerance="10"
     guidetolerance="10"
     inkscape:pageopacity="0"
     inkscape:pageshadow="2"
     inkscape:window-width="1872"
     inkscape:window-height="1032"
     id="namedview20"
     showgrid="false"
     inkscape:zoom="0.921875"
     inkscape:cx="-124.14596"
     inkscape:cy="289.94203"
     inkscape:window-x="48"
     inkscape:window-y="48"
     inkscape:window-maximized="0"
     inkscape:current-layer="svg18" />
  <g
     id="g2" />
  <path
     d="M442.644 181.218c0 105.196-81.971 190.802-182.754 190.802-100.751 0-182.702-85.596-182.702-190.802h-20.838c0 116.695 91.31 211.641 203.541 211.641 112.251 0 203.591-94.935 203.591-211.641h-20.839z"
     fill="#000000"
     id="path4" />
  <path
     d="M343.409 479.642c0-9.636-37.397-17.438-83.517-17.438-46.111 0-83.517 7.803-83.517 17.438 0 9.605 37.406 17.398 83.517 17.398 46.121 0 83.517-7.803 83.517-17.398z"
     fill="#000000"
     id="path6" />
  <path
     d="M249.692 382.884h20.429v100.956h-20.429v-100.956z"
     fill="#000000"
     id="path8" />
  <path
     d="M393.913 177.602c0 74.496-59.955 135.117-133.653 135.117s-133.653-60.621-133.653-135.117c0-74.455 59.955-135.055 133.653-135.055s133.653 60.59 133.653 135.055zM260.26 22.057c-84.992 0-154.132 69.775-154.132 155.536 0 85.801 69.141 155.597 154.132 155.597s154.132-69.796 154.132-155.597c0-85.75-69.141-155.536-154.132-155.536z"
     fill="#000000"
     id="path10" />
  <path
     d="M260.352 14.96c-90.286 0-163.461 72.898-163.461 162.837 0 89.917 73.175 162.837 163.461 162.837 90.245 0 163.43-72.919 163.43-162.837 0-89.938-73.185-162.837-163.43-162.837zM260.352 320.276c-78.704 0-142.459-63.795-142.459-142.48s63.754-142.459 142.459-142.459c78.684 0 142.459 63.785 142.459 142.459s-63.785 142.48-142.459 142.48z"
     fill="#000000"
     id="path12" />
  <path
     d="M43.008 202.537h72.438v22.856h-72.438v-22.856z"
     fill="#000000"
     id="path14" />
  <path
     d="M396.565 202.537h72.428v22.856h-72.428v-22.856z"
     fill="#000000"
     id="path16" />
  <path
     style="fill:#ffffff;stroke-width:2.16949153"
     d="m 206.92878,491.88278 c -27.6679,-5.02263 -34.98711,-11.82984 -20.35251,-18.92883 6.64103,-3.22144 20.84683,-5.67272 55.91747,-9.64877 l 9.27341,-1.05136 -0.59544,-35.00676 -0.59544,-35.00675 -17.44358,-2.49025 C 154.29014,378.49442 86.887593,318.25599 65.49317,239.92873 l -4.084135,-14.95246 -9.009602,-0.66711 -9.009602,-0.66712 v -9.63797 c 0,-9.63289 0.0041,-9.63797 7.869243,-9.63797 h 7.869243 L 58.086013,193.51864 57.04371,182.67119 h 9.444248 c 9.304053,0 9.444245,0.11008 9.444245,7.41578 0,12.61208 1.538862,14.27913 13.181152,14.27913 h 10.547436 l -1.299004,-16.84516 c -2.274133,-29.49037 6.162943,-64.06393 22.528493,-92.317514 4.27332,-7.377478 16.21761,-21.819152 26.54286,-32.092609 15.50251,-15.424734 22.34301,-20.432458 39.26325,-28.743469 28.24714,-13.874639 43.35365,-17.455291 73.64259,-17.455291 30.31194,0 45.38596,3.578063 73.76271,17.508781 17.36891,8.526748 23.7099,13.217677 40.32044,29.828215 16.61054,16.610539 21.30148,22.951524 29.82821,40.320437 14.088,28.69715 17.60759,43.50028 17.66677,74.30525 l 0.049,25.4917 10.30508,-1.7e-4 10.30504,-1.7e-4 v -10.84746 -10.84745 h 9.76271 9.76271 v 10.84745 c 0,8.19586 0.79549,10.84746 3.25424,10.84746 2.41055,0 3.25424,2.53108 3.25424,9.76271 0,8.83416 -0.49078,9.76272 -5.15998,9.76272 -4.56691,0 -5.57555,1.68313 -8.77568,14.64406 -4.78169,19.36649 -22.07378,54.55475 -35.49204,72.22396 -32.31659,42.55462 -81.26496,71.74892 -131.86603,78.64891 l -18.29949,2.49534 v 35.18295 35.18297 l 9.22034,1.11783 c 5.07118,0.61481 15.07796,1.6788 22.23729,2.36442 16.89029,1.61749 37.17363,7.31635 40.55907,11.39558 4.87359,5.87232 -7.18275,11.37167 -34.87572,15.9081 -17.53607,2.87263 -81.08137,2.12153 -99.22915,-1.17287 z m 98.04693,-124.98417 c 58.83795,-15.41113 107.54256,-61.64156 127.85371,-121.35884 7.37356,-21.67912 7.38141,-21.64824 -5.50767,-21.64824 -8.44171,0 -11.21761,0.86044 -12.24836,3.79661 -23.56912,67.13866 -84.61366,111.11875 -154.30613,111.17123 -62.41661,0.047 -119.66325,-35.32768 -145.67671,-90.01869 -4.54039,-9.54576 -8.83204,-19.06441 -9.53701,-21.15254 -1.01206,-2.99773 -3.78226,-3.79661 -13.165125,-3.79661 H 80.505058 l 3.362015,11.38983 c 9.606897,32.54623 22.975677,56.07408 45.090547,79.35529 30.60207,32.21604 64.08626,50.03303 106.51664,56.6777 18.16329,2.8444 49.34726,0.86314 69.50145,-4.41574 z m -12.31805,-57.3934 c 22.82118,-5.37942 42.54455,-17.03233 62.0787,-36.67716 19.63654,-19.74777 28.8648,-36.03087 35.80984,-63.18576 C 409.41121,135.88088 359.82572,57.756403 285.43206,44.029527 218.27777,31.638434 155.63401,69.419323 132.08433,136.51461 c -6.16184,17.55567 -7.65079,49.214 -3.27946,69.72831 10.26343,48.1655 51.96426,91.96358 98.22145,103.16131 16.92167,4.09632 48.47593,4.14487 65.63134,0.10088 z"
     id="path3729"
     inkscape:connector-curvature="0" />
  <path
     style="fill:#ffffff;stroke-width:0.13559322"
     d=""
     id="path3731"
     inkscape:connector-curvature="0" />
</svg>
