<?xml version="1.0" encoding="UTF-8" standalone="no"?>
<svg
        xmlns:dc="http://purl.org/dc/elements/1.1/"
        xmlns:cc="http://creativecommons.org/ns#"
        xmlns:rdf="http://www.w3.org/1999/02/22-rdf-syntax-ns#"
        xmlns:sodipodi="http://sodipodi.sourceforge.net/DTD/sodipodi-0.dtd"
        xmlns:inkscape="http://www.inkscape.org/namespaces/inkscape"
        xmlns="http://www.w3.org/2000/svg"
        version="1.1"
        width="240"
        height="240"
        viewBox="0 0 24 24"
        id="svg4"
        sodipodi:docname="play.svg"
        inkscape:version="0.92.5 (2060ec1f9f, 2020-04-08)">
    <metadata
            id="metadata10">
        <rdf:RDF>
            <cc:Work
                    rdf:about="">
                <dc:format>image/svg+xml</dc:format>
                <dc:type
                        rdf:resource="http://purl.org/dc/dcmitype/StillImage"/>
                <dc:title/>
            </cc:Work>
        </rdf:RDF>
    </metadata>
    <defs
            id="defs8"/>
    <sodipodi:namedview
            pagecolor="#ffffff"
            bordercolor="#666666"
            borderopacity="1"
            objecttolerance="10"
            gridtolerance="10"
            guidetolerance="10"
            inkscape:pageopacity="0"
            inkscape:pageshadow="2"
            inkscape:window-width="959"
            inkscape:window-height="1023"
            id="namedview6"
            showgrid="false"
            showguides="true"
            inkscape:guide-bbox="true"
            inkscape:zoom="2.7812867"
            inkscape:cx="75.034943"
            inkscape:cy="149.98116"
            inkscape:window-x="960"
            inkscape:window-y="13"
            inkscape:window-maximized="0"
            inkscape:current-layer="svg4">
        <sodipodi:guide
                position="4.0677966,32.847458"
                orientation="1,0"
                id="guide3719"
                inkscape:locked="false"/>
        <sodipodi:guide
                position="-73.016949,40.881356"
                orientation="-0.70710678,0.70710678"
                id="guide10"
                inkscape:locked="false"/>
        <sodipodi:guide
                position="-65.389831,28.169492"
                orientation="1,0"
                id="guide12"
                inkscape:locked="false"/>
    </sodipodi:namedview>
    <path
            d="m 5.5932204,0.03389831 c 0,23.83050869 0,0 0,23.83050869 C 23.31,12 5.5932204,23.864407 23.31,12 Z"
            id="path2"
            style="fill:#f9f9f9;stroke-width:0.95451289"
            inkscape:connector-curvature="0"
            sodipodi:nodetypes="cccc"/>
    <rect
            style="fill:#000000;fill-opacity:0;stroke-width:0.1"
            id="rect14"
            width="4.0677967"
            height="5.6949153"
            x="-1.2122978e-08"
            y="0.1016949"
            ry="0.91525424"/>
    <rect
            style="fill:#000000;fill-opacity:0;stroke-width:0.1"
            id="rect16"
            width="4.0677967"
            height="4.5762715"
            x="-1.2122979e-08"
            y="0.1016949"
            ry="0.915254"/>
    <rect
            style="fill:#000000;fill-opacity:0;stroke-width:0.1"
            id="rect16-3"
            width="4.0677967"
            height="4.5762715"
            x="-2.2372882"
            y="5.3389831"
            ry="0.915254"/>
    <rect
            style="fill:#ffffff;fill-opacity:0"
            id="rect4657"
            width="4.0677967"
            height="4.0677967"
            x="-1.2122979e-08"
            y="0.1016949"/>
    <rect
            style="fill:#000000;fill-opacity:0;stroke-width:0.1"
            id="rect16-5"
            width="4.0677967"
            height="4.5762715"
            x="-1.6675804e-07"
            y="5.5573025"
            ry="0.915254"/>
    <rect
            style="fill:#ffffff;fill-opacity:0"
            id="rect4657-3"
            width="4.0677967"
            height="4.0677967"
            x="-2.7391135e-07"
            y="6.6539173"/>
    <rect
            style="fill:#000000;fill-opacity:0;stroke-width:0.1"
            id="rect16-56"
            width="4.0677967"
            height="4.5762715"
            x="-2.1430678e-07"
            y="19.813293"
            ry="0.915254"/>
    <rect
            style="fill:#ffffff;fill-opacity:0"
            id="rect4657-2"
            width="4.0677967"
            height="4.0677967"
            x="-2.1430678e-07"
            y="19.813293"/>
    <rect
            style="fill:#000000;fill-opacity:0;stroke-width:0.1"
            id="rect16-9"
            width="4.0677967"
            height="4.5762715"
            x="-2.263625e-07"
            y="13.035855"
            ry="0.915254"/>
    <rect
            style="fill:#ffffff;fill-opacity:0"
            id="rect4657-1"
            width="4.0677967"
            height="4.0677967"
            x="-2.263625e-07"
            y="13.54433"/>
    <path
            style="fill:#f9f9f9;fill-opacity:0;stroke-width:0.35954583"
            d="m 56.050924,119.5849 c 0,-76.951988 0.123323,-118.67927183 0.35052,-118.60158924 C 57.215467,1.2616382 232.54034,119.7759 232.47735,120.00525 232.42721,120.18782 64.130927,233.05712 57.039675,237.66398 l -0.988751,0.64235 z"
            id="path20"
            inkscape:connector-curvature="0"
            transform="scale(0.1)"/>
    <path
            style="fill:#f9f9f9;fill-opacity:0;stroke-width:0.35954583"
            d="m 56.050924,119.5849 c 0,-76.951988 0.123323,-118.67927183 0.35052,-118.60158924 C 57.215467,1.2616382 232.54034,119.7759 232.47735,120.00525 232.42721,120.18782 64.130927,233.05712 57.039675,237.66398 l -0.988751,0.64235 z"
            id="path22"
            inkscape:connector-curvature="0"
            transform="scale(0.1)"/>
    <path
            style="fill:#f9f9f9;fill-opacity:0;stroke-width:0.35954583"
            d="m 56.050924,119.5849 c 0,-76.951988 0.123323,-118.67927183 0.35052,-118.60158924 C 57.215467,1.2616382 232.54034,119.7759 232.47735,120.00525 232.42721,120.18782 64.130927,233.05712 57.039675,237.66398 l -0.988751,0.64235 z"
            id="path24"
            inkscape:connector-curvature="0"
            transform="scale(0.1)"/>
    <path
            style="fill:#f9f9f9;fill-opacity:0;stroke-width:0.35954583"
            d="m 56.050924,119.5849 c 0,-76.951988 0.123323,-118.67927183 0.35052,-118.60158924 C 57.215467,1.2616382 232.54034,119.7759 232.47735,120.00525 232.42721,120.18782 64.130927,233.05712 57.039675,237.66398 l -0.988751,0.64235 z"
            id="path26"
            inkscape:connector-curvature="0"
            transform="scale(0.1)"/>
    <path
            style="fill:#f9f9f9;fill-opacity:0;stroke-width:0.35954583"
            d="m 0.48924633,21.417498 c 0,-10.975136 0.0456742,-15.4649644 0.10149834,-9.977396 0.0558241,5.487568 0.0558241,14.467224 0,19.954792 -0.0558241,5.487569 -0.10149834,0.99774 -0.10149834,-9.977396 z"
            id="path28"
            inkscape:connector-curvature="0"
            transform="scale(0.1)"/>
    <path
            style="fill:#f9f9f9;fill-opacity:0;stroke-width:0.35954583"
            d="M 0.68086796,21.417498 V 1.6424781 H 20.276115 39.871362 V 21.417498 41.192518 H 20.276115 0.68086796 Z"
            id="path30"
            inkscape:connector-curvature="0"
            transform="scale(0.1)"/>
    <path
            style="fill:#f9f9f9;fill-opacity:0;stroke-width:0.35954583"
            d="M 0.68086796,21.417498 V 1.6424781 H 20.276115 39.871362 V 21.417498 41.192518 H 20.276115 0.68086796 Z"
            id="path32"
            inkscape:connector-curvature="0"
            transform="scale(0.1)"/>
    <path
            style="fill:#f9f9f9;fill-opacity:0;stroke-width:0.35954583"
            d="M 0.68086796,155.70786 V 136.11261 H 20.276115 39.871362 v 19.59525 19.59525 H 20.276115 0.68086796 Z"
            id="path34"
            inkscape:connector-curvature="0"
            transform="scale(0.1)"/>
    <path
            style="fill:#f9f9f9;fill-opacity:0;stroke-width:0.35954583"
            d="M 0.68086796,155.70786 V 136.11261 H 20.276115 39.871362 v 19.59525 19.59525 H 20.276115 0.68086796 Z"
            id="path36"
            inkscape:connector-curvature="0"
            transform="scale(0.1)"/>
    <path
            style="fill:#f9f9f9;fill-opacity:0;stroke-width:0.35954583"
            d="M 0.68086796,155.70786 V 136.11261 H 20.276115 39.871362 v 19.59525 19.59525 H 20.276115 0.68086796 Z"
            id="path38"
            inkscape:connector-curvature="0"
            transform="scale(0.1)"/>
    <path
            style="fill:#f9f9f9;fill-opacity:0;stroke-width:0.35954583"
            d="M 0.68086796,218.44861 V 198.67359 H 20.276115 39.871362 v 19.77502 19.77502 H 20.276115 0.68086796 Z"
            id="path40"
            inkscape:connector-curvature="0"
            transform="scale(0.1)"/>
    <path
            style="fill:#ffffff;fill-opacity:0;stroke-width:0.35954583"
            d="M 0.68086796,218.44861 V 198.67359 H 20.276115 39.871362 v 19.77502 19.77502 H 20.276115 0.68086796 Z"
            id="path42"
            inkscape:connector-curvature="0"
            transform="scale(0.1)"/>
    <path
            style="fill:#ffffff;fill-opacity:0;stroke-width:0.35954583"
            d="M 0.68086796,86.854837 V 67.079817 H 20.276115 39.871362 v 19.77502 19.775023 H 20.276115 0.68086796 Z"
            id="path44"
            inkscape:connector-curvature="0"
            transform="scale(0.1)"/>
    <rect
            style="fill:#ffffff;fill-opacity:0;stroke-width:0.1"
            id="rect33"
            width="4.0677967"
            height="4.0677967"
            x="-1.2122978e-08"
            y="0.1016949"/>
    <rect
            style="fill:#ffffff;fill-opacity:1;stroke-width:0.1;stroke:#ffffff"
            id="rect35"
            width="4.0677967"
            height="4.576272"
            x="-1.2122979e-08"
            y="0.1016949"/>
    <rect
            style="fill:#000000;fill-opacity:0;stroke-width:0.1"
            id="rect16-36"
            width="4.0677967"
            height="4.5762715"
            x="0.019162145"
            y="19.804806"
            ry="0.915254"/>
    <rect
            style="fill:#ffffff;fill-opacity:0;stroke-width:1"
            id="rect4657-7"
            width="4.0677967"
            height="4.0677967"
            x="0.019162145"
            y="19.804806"/>
    <path
            style="fill:#f9f9f9;fill-opacity:0;stroke-width:0.03595458"
            d="m 0.0680868,21.844861 c 0,-1.097513 0.004567,-1.546496 0.0101498,-0.997739 0.005582,0.548756 0.005582,1.446722 0,1.995479 -0.005582,0.548757 -0.0101498,0.09977 -0.0101498,-0.99774 z"
            id="path28-5"
            inkscape:connector-curvature="0"/>
    <path
            style="fill:#f9f9f9;fill-opacity:0;stroke-width:0.03595458"
            d="M 0.08724896,21.844861 V 19.867359 H 2.0467737 4.0062984 v 1.977502 1.977502 H 2.0467737 0.08724896 Z"
            id="path30-3"
            inkscape:connector-curvature="0"/>
    <path
            style="fill:#f9f9f9;fill-opacity:0;stroke-width:0.03595458"
            d="M 0.08724896,21.844861 V 19.867359 H 2.0467737 4.0062984 v 1.977502 1.977502 H 2.0467737 0.08724896 Z"
            id="path32-5"
            inkscape:connector-curvature="0"/>
    <rect
            style="fill:#ffffff;fill-opacity:0;stroke-width:0.1"
            id="rect33-6"
            width="4.0677967"
            height="4.0677967"
            x="0.019162145"
            y="19.804806"/>
    <rect
            style="fill:#ffffff;fill-opacity:1;stroke:#ffffff;stroke-width:0.1"
            id="rect35-2"
            width="4.0677967"
            height="4.576272"
            x="0.019162145"
            y="19.804806"/>
    <rect
            style="fill:#000000;fill-opacity:0;stroke-width:0.1"
            id="rect16-91"
            width="4.0677967"
            height="4.5762715"
            x="-0.068086825"
            y="5.7340574"
            ry="0.915254"/>
    <rect
            style="fill:#ffffff;fill-opacity:0;stroke-width:1"
            id="rect4657-27"
            width="4.0677967"
            height="4.0677967"
            x="-0.068086825"
            y="5.7340574"/>
    <path
            style="fill:#f9f9f9;fill-opacity:0;stroke-width:0.03595458"
            d="m -0.01916221,7.7741124 c 0,-1.0975136 0.00457,-1.5464964 0.01015,-0.9977396 0.00558,0.5487568 0.00558,1.4467224 0,1.9954792 -0.00558,0.5487569 -0.01015,0.099774 -0.01015,-0.9977396 z"
            id="path28-0"
            inkscape:connector-curvature="0"/>
    <path
            style="fill:#f9f9f9;fill-opacity:0;stroke-width:0.03595458"
            d="M -1.2122978e-8,7.7741124 V 5.7966104 H 1.9595247 3.9190494 v 1.977502 1.977502 H 1.9595247 -1.2122978e-8 Z"
            id="path30-9"
            inkscape:connector-curvature="0"/>
    <path
            style="fill:#f9f9f9;fill-opacity:0;stroke-width:0.03595458"
            d="M -1.2122978e-8,7.7741124 V 5.7966104 H 1.9595247 3.9190494 v 1.977502 1.977502 H 1.9595247 -1.2122978e-8 Z"
            id="path32-3"
            inkscape:connector-curvature="0"/>
    <rect
            style="fill:#ffffff;fill-opacity:0;stroke-width:0.1"
            id="rect33-60"
            width="4.0677967"
            height="4.0677967"
            x="-0.068086825"
            y="5.7340574"/>
    <rect
            style="fill:#ffffff;fill-opacity:1;stroke:#ffffff;stroke-width:0.1"
            id="rect35-6"
            width="4.0677967"
            height="4.576272"
            x="-2.7391135e-07"
            y="6.6539173"/>
    <rect
            style="fill:#000000;fill-opacity:0;stroke-width:0.1"
            id="rect16-2"
            width="4.0677967"
            height="4.5762715"
            x="-2.263625e-07"
            y="13.035852"
            ry="0.915254"/>
    <rect
            style="fill:#ffffff;fill-opacity:0;stroke-width:1"
            id="rect4657-6"
            width="4.0677967"
            height="4.0677967"
            x="-2.263625e-07"
            y="13.035852"/>
    <path
            style="fill:#f9f9f9;fill-opacity:0;stroke-width:0.03595458"
            d="m 0.04892443,15.075907 c 0,-1.097514 0.004567,-1.546496 0.0101498,-0.99774 0.005582,0.548757 0.005582,1.446723 0,1.99548 -0.005582,0.548756 -0.0101498,0.09977 -0.0101498,-0.99774 z"
            id="path28-1"
            inkscape:connector-curvature="0"/>
    <path
            style="fill:#f9f9f9;fill-opacity:0;stroke-width:0.03595458"
            d="M 0.06808659,15.075907 V 13.098405 H 2.0276112 3.9871359 v 1.977502 1.977502 H 2.0276112 0.06808659 Z"
            id="path30-8"
            inkscape:connector-curvature="0"/>
    <path
            style="fill:#f9f9f9;fill-opacity:0;stroke-width:0.03595458"
            d="M 0.06808659,15.075907 V 13.098405 H 2.0276112 3.9871359 v 1.977502 1.977502 H 2.0276112 0.06808659 Z"
            id="path32-7"
            inkscape:connector-curvature="0"/>
    <rect
            style="fill:#ffffff;fill-opacity:0;stroke-width:0.1"
            id="rect33-9"
            width="4.0677967"
            height="4.0677967"
            x="-2.263625e-07"
            y="13.035852"/>
    <rect
            style="fill:#ffffff;fill-opacity:1;stroke:#ffffff;stroke-width:0.1"
            id="rect35-20"
            width="4.0677967"
            height="4.576272"
            x="-2.263625e-07"
            y="13.035852"/>
</svg>
