<svg viewBox="0 0 512 512" xmlns="http://www.w3.org/2000/svg">
 <path d="m62.38 56.93798c-.415.015-.807.044-1.219.125l.125.031c-11.593 2.342-20.281 13.06-20.281 25.375v253.58999c0 14 11.299 25.375 25.375 25.375h25.375v-208.69c0-12.28899 8.688-23.00999 20.281-25.37499 1.647-.32399 3.3 0 5.063 0h278.93999v-44.938c0-14.04999-11.338-25.375-25.34399-25.375h-304.47c-1.322 0-2.597-.171-3.844-.125m74.69 94.06c-.457.015-.87.044-1.281.125-11.593 2.34201-20.22 12.836-20.22 25.12999v253.72002c0 14 11.646 25.08999 25.719 25.08999h303.97c13.93499 0 25.75-11.11001 25.75-25.08999v-253.72c0-14.05-11.77101-25.12-25.75-25.12h-303.97c-1.322 0-2.848-.17101-4.219-.125m4.219 63.87498h303.97v215.09002h-303.97z" fill="#ffffff" fill-rule="evenodd"/>
</svg>
