<?xml version="1.0" encoding="iso-8859-1"?>
<svg id="Capa_1" enable-background="new 0 0 512.003 512.003" height="512" viewBox="0 0 512.003 512.003" width="512"
     xmlns="http://www.w3.org/2000/svg">
    <g>
        <g clip-rule="evenodd" fill-rule="evenodd">
            <path d="m172.335 406.972 266.498-290.948 5.131-47.985-47.985 5.131-290.948 266.497 45.929 21.376z"
                  fill="#a0c8ff"/>
            <path d="m105.031 339.667 290.948-266.497 47.985-5.131-5.131 47.985-266.498 290.948-21.376-45.929zm-84.271 39.38 83.057 29.139 29.139 83.057c3.993 11.381 17.2 14.183 24.429 6.225l283.559-312.13 18.875 18.875c8.557 8.557 23.393 2.21 23.988-9.841l18.117-169.444c.461-4.339-1.099-8.268-3.842-11.006-2.738-2.743-6.667-4.302-11.006-3.842l-169.445 18.116c-12.052.595-18.398 15.431-9.842 23.988l18.875 18.875-312.129 283.559c-7.958 7.23-5.156 20.436 6.225 24.429z"
                  fill="#a0e4a5"/>
        </g>
        <g>
            <path d="m505.16 6.857c-5.021-5.031-11.998-7.479-19.147-6.721l-169.198 18.09c-9.499.597-17.841 6.751-21.312 15.756-3.443 8.928-1.443 18.611 5.217 25.272l11.457 11.457-304.367 276.506c-6.266 5.693-9.005 14.038-7.325 22.322 1.776 8.759 8.118 15.84 16.964 18.944l78.522 27.548 27.548 78.522c3.104 8.847 10.186 15.188 18.944 16.964 1.606.326 3.214.485 4.805.485 6.615 0 12.928-2.759 17.517-7.811l276.504-304.364 11.457 11.457c6.661 6.66 16.344 8.66 25.273 5.217 9.005-3.472 15.16-11.815 15.756-21.314l18.091-169.204c.76-7.143-1.69-14.12-6.706-19.126zm-13.18 17.008-18.117 169.444c-.021.189-.035.379-.044.57-.131 2.656-2.325 3.704-2.994 3.962-1.065.412-2.613.623-3.935-.699l-18.875-18.875c-1.935-1.935-4.576-2.99-7.311-2.926-2.734.065-5.323 1.248-7.162 3.273l-283.559 312.13c-1.199 1.32-2.59 1.367-3.544 1.172-.857-.174-2.968-.91-4.046-3.984l-29.139-83.057c-1.005-2.866-3.259-5.12-6.125-6.125l-83.058-29.14c-3.074-1.079-3.81-3.189-3.984-4.046-.194-.955-.147-2.345 1.172-3.544l312.13-283.559c2.025-1.839 3.208-4.428 3.273-7.162.065-2.735-.992-5.377-2.926-7.311l-18.875-18.875c-1.322-1.322-1.11-2.869-.699-3.935.258-.669 1.307-2.863 3.962-2.994.19-.009.38-.024.57-.044l169.437-18.116c.155-.017.304-.024.447-.024 1.177 0 1.961.522 2.439 1 .523.521 1.114 1.442.963 2.865z"/>
            <path d="m442.901 58.096-47.985 5.13c-2.123.227-4.117 1.127-5.691 2.569l-112.294 102.857c-4.073 3.73-4.35 10.056-.62 14.128 3.729 4.072 10.056 4.352 14.128.62l109.871-100.636 32.393-3.463-3.463 32.392-254.16 277.477-15.054-32.347c-.994-2.136-2.711-3.853-4.847-4.847l-32.347-15.054 101.242-92.734c4.073-3.73 4.35-10.056.62-14.128-3.729-4.072-10.056-4.352-14.128-.62l-112.289 102.853c-2.464 2.257-3.638 5.596-3.129 8.898s2.634 6.132 5.664 7.542l42.622 19.836 19.836 42.622c1.41 3.029 4.24 5.154 7.542 5.664.509.079 1.018.117 1.525.117 2.78 0 5.464-1.161 7.373-3.246l266.498-290.948c1.442-1.574 2.342-3.568 2.569-5.691l5.13-47.984c.321-3.006-.734-5.996-2.872-8.134-2.138-2.138-5.13-3.198-8.134-2.873z"/>
            <path d="m250.505 216.418c5.523 0 10-4.477 10-10s-4.477-10-10-10h-.008c-5.523 0-9.996 4.477-9.996 10s4.481 10 10.004 10z"/>
        </g>
    </g>
</svg>