<?xml version="1.0" encoding="iso-8859-1"?>
<svg id="Capa_1" version="1.1" xmlns="http://www.w3.org/2000/svg" x="0px" y="0px"
     viewBox="0 0 512.002 512.002" style="enable-background:new 0 0 512.002 512.002;" xml:space="preserve">
<polygon style="fill:#F26B5C;" points="396.001,100.65 256.001,150.65 256.001,100.65 256.001,50.65 "/>
    <path style="fill:#FFFFFF;" d="M376.001,330.65c11.05,0,20,8.95,20,20c0,11.04-8.96,20-20,20c-10.131,0-228.98,0-240,0
	c-11.05,0-20-8.95-20-20c0-11.04,8.96-20,20-20C146.937,330.65,365.1,330.65,376.001,330.65z"/>
    <g>
	<path style="fill:#F26B5C;" d="M137.661,330.65c9.52-56.75,58.88-100,118.34-100s108.82,43.25,118.34,100
		C354.788,330.65,144.955,330.65,137.661,330.65z"/>
        <path style="fill:#F26B5C;" d="M137.661,370.65h236.68c-2.39,14.22-7.27,27.59-14.19,39.65v0.01c-8.9-1.54-18.53,1.9-24.15,10.34
		c-9.51,14.27-30.49,14.27-40,0s-30.49-14.27-40,0c-9.51,14.27-30.49,14.27-40,0s-30.49-14.27-40,0c-2.74,4.11-6.43,7.04-10.52,8.77
		C151.271,413.1,141.401,392.92,137.661,370.65z"/>
</g>
    <path style="fill:#3C435A;" d="M256.001,190.65c11.05,0,20,8.95,20,20s-8.95,20-20,20c-11.05,0-20-8.95-20-20
	S244.951,190.65,256.001,190.65z"/>
    <path d="M256.001,280.65c5.52,0,10-4.48,10-10s-4.48-10-10-10s-10,4.48-10,10S250.481,280.65,256.001,280.65z"/>
    <path d="M507.547,412.329c-4.595-3.061-10.804-1.82-13.867,2.775c-2.607,3.912-7.534,6.248-13.179,6.248s-10.571-2.336-13.179-6.248
	c-6.325-9.49-17.473-15.156-29.821-15.156s-23.496,5.666-29.821,15.156c-2.646,3.971-6.903,6.248-11.679,6.248
	s-9.032-2.277-11.677-6.246c-2.733-4.103-6.223-7.474-10.247-9.993c3.736-8.086,6.612-16.519,8.61-25.216
	C395.87,376.907,406,365.091,406,350.65c0-14.243-9.98-26.191-23.313-29.239c-11.324-49.145-50.172-87.361-99.591-97.896
	c1.86-3.901,2.904-8.263,2.904-12.865c0-13.036-8.361-24.152-20-28.28v-24.673l133.363-47.63c3.98-1.421,6.637-5.19,6.637-9.417
	s-2.656-7.996-6.637-9.417L266,43.603V30.65c0-5.522-4.478-10-10-10s-10,4.478-10,10c0,11.767,0,132.56,0,151.72
	c-11.639,4.128-20,15.243-20,28.28c0,4.602,1.044,8.964,2.904,12.865c-49.469,10.546-88.278,48.817-99.589,97.888
	C116.159,324.386,106,336.18,106,350.65c0,14.246,9.985,26.197,23.322,29.241c2.446,10.62,6.212,20.863,11.208,30.501
	c-6.355-6.62-15.163-10.445-24.531-10.445c-11.409,0-21.996,5.666-28.321,15.156c-2.607,3.912-7.534,6.248-13.179,6.248
	s-10.571-2.336-13.179-6.248c-6.325-9.49-17.473-15.156-29.821-15.156S8.005,405.614,1.68,415.104
	c-3.063,4.596-1.82,10.805,2.775,13.867c4.597,3.063,10.804,1.821,13.867-2.775c2.607-3.912,7.534-6.248,13.179-6.248
	s10.571,2.336,13.179,6.248c6.325,9.49,17.473,15.156,29.821,15.156s23.496-5.666,29.821-15.156
	c2.646-3.971,6.903-6.248,11.679-6.248s9.032,2.277,11.678,6.247c6.475,9.718,17.25,15.166,28.37,15.166
	c11.384,0,21.959-5.695,28.273-15.165c2.646-3.971,6.903-6.248,11.679-6.248s9.032,2.277,11.679,6.248
	c6.325,9.49,16.912,15.156,28.321,15.156s21.996-5.666,28.321-15.156c2.646-3.971,6.903-6.248,11.679-6.248
	s9.032,2.277,11.679,6.248c6.325,9.49,16.912,15.156,28.321,15.156s21.996-5.666,28.323-15.16c3.73-5.6,9.739-6.782,14.129-6.027
	c3.795,0.654,7.071,2.795,9.227,6.031c6.325,9.49,16.912,15.156,28.321,15.156s21.996-5.666,28.321-15.156
	c2.607-3.912,7.534-6.248,13.179-6.248s10.571,2.336,13.179,6.248c6.325,9.49,17.473,15.156,29.821,15.156
	s23.496-5.666,29.821-15.156C513.385,421.6,512.143,415.391,507.547,412.329z M266.001,136.459V64.84l100.268,35.81L266.001,136.459
	z M246.001,210.65c0-5.514,4.486-10,10-10s10,4.486,10,10s-4.486,10-10,10S246.001,216.164,246.001,210.65z M256.001,240.65
	c49.911,0,92.672,33.005,105.849,80h-20.955c-7.27-20.677-22.003-38.215-41.311-48.849c-4.833-2.664-10.919-0.903-13.583,3.935
	c-2.665,4.837-0.903,10.919,3.935,13.583c12.887,7.099,23.139,18.166,29.356,31.331h-169.14
	C163.329,273.655,206.09,240.65,256.001,240.65z M136.001,340.65c88.57,0,148.731,0,240,0c5.514,0,10,4.486,10,10
	c0,5.52-4.479,10-10,10h-240c-5.514,0-10-4.486-10-10C126.001,345.13,130.48,340.65,136.001,340.65z M327.68,415.104
	c-2.646,3.971-6.903,6.248-11.679,6.248s-9.032-2.277-11.679-6.248c-6.325-9.49-16.912-15.156-28.321-15.156
	s-21.996,5.666-28.321,15.156c-2.646,3.971-6.903,6.248-11.679,6.248s-9.032-2.277-11.679-6.248
	c-6.325-9.49-16.912-15.156-28.321-15.156s-21.996,5.666-28.32,15.155c-0.126,0.19-0.263,0.37-0.397,0.552
	c-7.769-10.584-13.57-22.534-17.13-35.105h211.682c-1.885,6.673-4.393,13.242-7.517,19.452
	C343.68,400.536,333.723,406.029,327.68,415.104z"/>
    <path d="M507.547,462.329c-4.595-3.061-10.804-1.82-13.867,2.775c-2.607,3.912-7.534,6.248-13.179,6.248s-10.571-2.336-13.179-6.248
	c-6.325-9.49-17.473-15.156-29.821-15.156s-23.496,5.666-29.821,15.156c-2.646,3.971-6.903,6.248-11.679,6.248
	s-9.032-2.277-11.679-6.248c-6.325-9.49-16.912-15.156-28.321-15.156s-21.996,5.666-28.321,15.156
	c-2.646,3.971-6.903,6.248-11.679,6.248s-9.032-2.277-11.679-6.248c-6.325-9.49-16.912-15.156-28.321-15.156
	s-21.996,5.666-28.321,15.156c-2.646,3.971-6.903,6.248-11.679,6.248s-9.032-2.277-11.679-6.248
	c-6.325-9.49-16.912-15.156-28.321-15.156s-21.996,5.666-28.321,15.156c-2.646,3.971-6.903,6.248-11.679,6.248
	s-9.032-2.277-11.679-6.248c-6.325-9.49-16.912-15.156-28.321-15.156s-21.996,5.666-28.321,15.156
	c-2.607,3.912-7.534,6.248-13.179,6.248s-10.571-2.336-13.179-6.248c-6.325-9.49-17.473-15.156-29.821-15.156
	S8.005,455.614,1.68,465.104c-3.063,4.596-1.82,10.805,2.775,13.867c4.597,3.062,10.804,1.82,13.867-2.775
	c2.607-3.912,7.534-6.248,13.179-6.248s10.571,2.336,13.179,6.248c6.325,9.49,17.473,15.156,29.821,15.156
	s23.496-5.666,29.821-15.156c2.646-3.971,6.903-6.248,11.679-6.248s9.032,2.277,11.679,6.248
	c6.325,9.49,16.912,15.156,28.321,15.156s21.996-5.666,28.321-15.156c2.646-3.971,6.903-6.248,11.679-6.248
	s9.032,2.277,11.679,6.248c6.325,9.49,16.912,15.156,28.321,15.156s21.996-5.666,28.321-15.156
	c2.646-3.971,6.903-6.248,11.679-6.248s9.032,2.277,11.679,6.248c6.325,9.49,16.912,15.156,28.321,15.156
	s21.996-5.666,28.321-15.156c2.646-3.971,6.903-6.248,11.679-6.248s9.032,2.277,11.679,6.248
	c6.325,9.49,16.912,15.156,28.321,15.156s21.996-5.666,28.321-15.156c2.607-3.912,7.534-6.248,13.179-6.248
	s10.571,2.336,13.179,6.248c6.325,9.49,17.473,15.156,29.821,15.156s23.496-5.666,29.821-15.156
	C513.385,471.6,512.143,465.391,507.547,462.329z"/>
</svg>
