<?xml version="1.0" encoding="iso-8859-1"?>
<svg id="Capa_1" fill="#e00d0d" enable-background="new 0 0 512 512" height="512" viewBox="0 0 512 512" width="512"
     xmlns="http://www.w3.org/2000/svg">
    <g>
        <path d="m510.289 143.214c-2.205-4.951-6.204-8.739-11.261-10.666l-210.35-80.152c-7.778-2.966-16.291-.803-21.765 4.804l-4.801-27.026c-1.943-10.937-12.458-18.269-23.437-16.35l-144.931 25.368c-4.08.714-6.809 4.601-6.095 8.681.714 4.079 4.6 6.806 8.681 6.095l144.93-25.368c2.806-.488 5.592 1.432 6.083 4.197l8.584 48.323-20.892 54.027-9.431-53.744c-1.338-8.624-9.731-15.602-18.395-13.933l-142.487 25.309c-8.504 1.512-14.113 10.202-12.503 19.372l44.98 256.32c1.348 8.626 9.71 15.597 18.395 13.933l25.585-4.544-5.063 13.093c-2.897 7.215-1.02 15.937 4.488 21.396l-58.138 10.176c-2.808.488-5.591-1.432-6.083-4.197l-61.267-344.909c-.54-2.714 1.517-5.565 4.249-5.979l40.966-7.171c4.081-.714 6.809-4.601 6.095-8.681s-4.607-6.805-8.681-6.095l-40.965 7.171c-10.717 1.641-18.552 12.742-16.433 23.378l61.267 344.908c1.892 11.001 12.716 18.307 23.437 16.35l79.413-13.9 193.66 73.792c10.131 3.944 22.129-1.131 26.124-11.586l102.43-264.882c1.494-3.863-.427-8.206-4.29-9.7-3.864-1.494-8.207.427-9.7 4.29l-102.43 264.882c-1.017 2.63-4.126 4-6.792 2.979l-210.351-80.153c-2.599-.923-4.059-4.106-3.009-6.66l9.578-24.769c.257-.493.459-1.014.602-1.557l43.818-113.312c1.494-3.863-.427-8.206-4.29-9.7-3.864-1.493-8.206.428-9.7 4.29l-42.609 110.186-34.457 6.12c-.273-.107-.891-.693-1.075-1.742l-44.98-256.32c-.187-1.062.204-1.83.429-2.023l142.333-25.281c.273.107.891.693 1.075 1.742l13.73 78.241-21.299 55.079c-1.494 3.863.427 8.206 4.29 9.7 3.764 1.485 8.209-.389 9.7-4.29l52.589-135.995c.745-1.032 1.227-2.251 1.373-3.55l5.332-13.789c1.017-2.631 4.127-3.997 6.792-2.979l210.351 80.153c2.599.924 4.059 4.105 3.01 6.66l-10.862 28.089c-1.494 3.863.427 8.206 4.29 9.7 3.862 1.489 8.206-.427 9.7-4.29l10.862-28.089c1.938-5.014 1.797-10.49-.399-15.422z"/>
        <path d="m390.262 220.72c-17.926-8.288-35.132-4.198-45.1-.24-4.06-9.054-12.667-22.41-29.631-28.951-5.176-1.996-23.477-7.771-41.663 1.729v.001c-19.264 10.061-24.739 30.15-27.078 38.729-14.375 52.735 41.07 107.135 47.439 113.164 1.394 1.32 3.24 2.054 5.156 2.054.053 0 .106-.001.159-.002 14.977-.316 90.824-4.348 113.215-52.698 3.248-7.014 11.876-25.645 4.452-45.562-6.407-17.189-20.98-25.464-26.949-28.224zm8.886 67.482c-17.536 37.867-80.548 43.162-96.822 43.898-11.179-11.145-52.157-55.471-41.063-96.168 1.978-7.255 6.092-22.35 19.55-29.379 12.933-6.753 26.694-2.042 29.322-1.028 17.856 6.885 23.002 25.096 23.531 27.149 1.08 4.717 6.962 7.159 11.064 4.599 2.054-1.207 20.608-11.549 39.237-2.938 4.284 1.98 14.728 7.88 19.189 19.847 5.238 14.054-1.007 27.538-4.008 34.02z"/>
    </g>
</svg>