<svg id="Layer_1" enable-background="new 0 0 512.002 512.002" height="512" viewBox="0 0 512.002 512.002" width="512"
     xmlns="http://www.w3.org/2000/svg">
    <g id="XMLID_1477_">
        <g id="XMLID_1811_">
            <circle id="XMLID_1817_" cx="139.549" cy="284.533" fill="#ffcd69" r="45.158"/>
            <path id="XMLID_1815_"
                  d="m163.508 502.002 10.353-38.637c-24.143-25.562-33.304-61.815-24.204-95.779l9.769-36.459-60.388-16.181-9.769 36.459c-9.1 33.963-35.161 60.779-68.85 70.845l-10.353 38.637z"
                  fill="#ffcd69"/>
            <g id="XMLID_1920_">
                <path id="XMLID_1921_" d="m72.322 383.166h39.032v158.855h-39.032z" fill="#ffcd69"
                      transform="matrix(.259 -.966 .966 .259 -378.762 431.574)"/>
                <path id="XMLID_1945_"
                      d="m173.861 463.365c-24.143-25.562-33.304-61.815-24.204-95.778l9.769-36.459-60.388-16.181-9.769 36.459c-9.1 33.963-35.161 60.779-68.85 70.845l-.25.935 153.441 41.114z"
                      fill="#ffe6b4"/>
            </g>
        </g>
        <path id="XMLID_1812_"
              d="m297.65 152.763c-17.01 17.01-28.631 38.655-33.412 62.231l-1.423 7.018c-6.871 33.881-23.66 64.955-48.233 89.271-6.419 6.352-15.956 8.368-24.397 5.158-11.092-4.219-17.165-16.173-14.031-27.619l15.33-55.988c6.619-24.173-6.896-49.286-30.717-57.077-26.736-8.744-55.849 3.359-68.505 28.48-7.499 14.884-8.095 32.308-1.632 47.67l10.978 26.09c5.176 12.302-1.204 26.409-13.861 30.645-9.041 3.026-19.01.144-25.042-7.239l-12.858-15.74c-13.293-16.272-21.333-36.196-23.055-57.137-2.027-24.646 4.815-49.206 19.294-69.254l40.249-55.729c11.442-15.843 28.14-27.107 47.115-31.782l107.536-26.497z"
              fill="#f3c9a6"/>
        <path id="XMLID_58_" d="m501.936 10.002h-255.779l-26.819 13.16 87.384 178.083 195.214-95.758z" fill="#33d6f5"/>
        <g id="XMLID_340_">
            <path id="XMLID_344_"
                  d="m510.914 101.083c-2.432-4.959-8.424-7.005-13.382-4.574l-186.238 91.354-22.778-46.42c-2.434-4.959-8.424-7.006-13.383-4.572-4.958 2.433-7.005 8.425-4.572 13.383l5.93 12.084c-10.772 15.093-18.371 32.503-22.054 50.668l-1.423 7.019c-6.5 32.049-22.222 61.148-45.466 84.15-3.624 3.586-9.045 4.731-13.808 2.919-6.31-2.4-9.724-9.12-7.941-15.631l15.331-55.988c8.038-29.354-8.326-59.761-37.254-69.223-15.202-4.972-31.708-4.329-46.479 1.811-14.77 6.141-26.868 17.39-34.064 31.674-8.831 17.528-9.53 37.956-1.918 56.047l10.978 26.091c1.412 3.355 1.363 7.03-.137 10.348-1.5 3.317-4.228 5.78-7.681 6.936-5.068 1.695-10.744.054-14.124-4.083l-12.858-15.74c-12.065-14.77-19.27-32.623-20.833-51.63-1.831-22.253 4.361-44.478 17.435-62.579l40.249-55.729c10.042-13.906 24.746-23.824 41.4-27.928l90.076-22.194 4.988 10.165c1.738 3.541 5.29 5.597 8.985 5.597 1.479 0 2.98-.33 4.398-1.025 4.958-2.433 7.005-8.425 4.572-13.383l-16.143-32.895 17.841-8.755c4.958-2.433 7.005-8.425 4.572-13.383-2.434-4.959-8.426-7.004-13.383-4.572l-26.819 13.16c-4.958 2.433-7.005 8.425-4.572 13.383l6.542 13.331-85.843 21.151c-21.252 5.236-40.014 17.893-52.829 35.637l-40.249 55.729c-15.862 21.963-23.375 48.929-21.154 75.929 1.897 23.062 10.638 44.724 25.277 62.644l12.858 15.739c7.874 9.64 20.636 13.933 32.633 11.293l-7.984 29.796c-8.141 30.381-31.918 54.848-62.054 63.852-3.326.994-5.898 3.641-6.796 6.993l-10.353 38.637c-1.43 5.335 1.736 10.818 7.071 12.248l153.442 41.115c.852.228 1.722.341 2.588.341 1.741 0 3.467-.455 5-1.34 2.297-1.326 3.973-3.51 4.659-6.072l10.353-38.637c.898-3.353-.006-6.931-2.389-9.454-21.596-22.866-29.955-55.944-21.814-86.324l9.769-36.459c.256-.956.359-1.916.334-2.858 3.787-2.445 7.27-5.342 10.36-8.625 2.095 1.416 4.385 2.616 6.85 3.554 3.803 1.447 7.77 2.149 11.708 2.149 8.563 0 16.988-3.323 23.277-9.546 26.074-25.801 43.709-58.441 51-94.391l1.424-7.019c2.393-11.802 6.735-23.228 12.737-33.686l10.97 22.355c1.738 3.541 5.29 5.597 8.985 5.597 1.479 0 2.98-.33 4.396-1.024l195.214-95.758c4.958-2.432 7.005-8.423 4.573-13.382zm-439.678 301.676c13.21-13.593 22.787-30.456 27.692-48.765l7.181-26.8 41.069 11.004-7.181 26.8c-4.906 18.309-5.044 37.7-.4 56.078 2.239 8.859 5.577 17.392 9.882 25.404l-99.503-26.662c7.735-4.786 14.892-10.507 21.26-17.059zm85.201 86.996-134.123-35.938 5.176-19.319 134.123 35.938zm10.072-203.575c-1.873 6.84-1.477 13.768.761 19.972-4.436 5.665-10.59 9.916-17.52 12.03l-42.963-11.512c1.443-1.916 2.688-3.991 3.69-6.205 3.765-8.323 3.892-17.926.349-26.347l-2.458-5.841c7.504-14.47 24.195-22.014 40.281-17.705 9.961 2.669 18.057 9.388 22.519 18.591zm15.331-55.987-3.997 14.599c-6.612-6.381-14.801-11.068-24.017-13.537-20.161-5.403-40.931 1.078-54.478 15.486-4.779-12.359-4.137-26.129 1.846-38.005 10.511-20.866 34.259-30.739 56.465-23.475 18.776 6.141 29.398 25.878 24.181 44.932z"/>
            <path id="XMLID_1502_"
                  d="m249.751 105.422c0 2.63 1.06 5.21 2.92 7.07s4.44 2.93 7.07 2.93c2.64 0 5.22-1.07 7.08-2.93s2.93-4.44 2.93-7.07-1.07-5.21-2.93-7.07c-1.87-1.86-4.44-2.93-7.08-2.93-2.63 0-5.2 1.07-7.07 2.93-1.86 1.86-2.92 4.44-2.92 7.07z"/>
        </g>
    </g>
</svg>