<?xml version="1.0" encoding="iso-8859-1"?>
<svg id="Capa_1" fill="#e00d0d" enable-background="new 0 0 512 512" height="512" viewBox="0 0 512 512" width="512"
     xmlns="http://www.w3.org/2000/svg">
    <g>
        <path d="m255.94 335.94c-22.056 0-40 17.944-40 40s17.944 40 40 40 40-17.944 40-40-17.944-40-40-40zm0 60c-11.028 0-20-8.972-20-20s8.972-20 20-20 20 8.972 20 20-8.972 20-20 20z"/>
        <path d="m255.94 215.94c-22.056 0-40 17.944-40 40s17.944 40 40 40 40-17.944 40-40-17.944-40-40-40zm0 60c-11.028 0-20-8.972-20-20s8.972-20 20-20 20 8.972 20 20-8.972 20-20 20z"/>
        <path d="m255.94 95.94c-22.056 0-40 17.944-40 40s17.944 40 40 40 40-17.944 40-40-17.944-40-40-40zm0 60c-11.028 0-20-8.972-20-20s8.972-20 20-20 20 8.972 20 20-8.972 20-20 20z"/>
        <circle cx="388.94" cy="389.94" r="10"/>
        <path d="m17.869 299.071 194.94 194.94c11.522 11.523 26.84 17.869 43.131 17.869s31.608-6.346 43.131-17.869l65.166-65.166c3.905-3.905 3.905-10.237 0-14.142s-10.237-3.905-14.143 0l-65.165 65.165c-7.745 7.746-18.041 12.011-28.989 12.011s-21.244-4.266-28.989-12.011l-194.94-194.94c-7.745-7.744-12.011-18.04-12.011-28.988s4.266-21.244 12.011-28.989l194.94-194.94c7.745-7.745 18.041-12.011 28.989-12.011s21.244 4.266 28.989 12.011l194.94 194.94c7.746 7.745 12.011 18.041 12.011 28.989s-4.266 21.244-12.011 28.989l-66.165 66.165c-3.905 3.905-3.905 10.237 0 14.143 3.905 3.904 10.238 3.904 14.142 0l66.166-66.166c11.523-11.522 17.869-26.84 17.869-43.131s-6.346-31.608-17.869-43.131l-194.94-194.94c-11.524-11.523-26.842-17.869-43.132-17.869s-31.608 6.346-43.131 17.869l-194.94 194.94c-11.523 11.523-17.869 26.84-17.869 43.131s6.346 31.608 17.869 43.131z"/>
    </g>
</svg>