<svg height="512pt" viewBox="0 0 512 512" width="512pt" xmlns="http://www.w3.org/2000/svg">
    <path d="m426.578125 75.421875h-67.320313c-52.402343 0-95.035156 42.632813-95.035156 95.035156v56.816407h-53.273437c-5.519531 0-10 4.476562-10 10v76.9375c0 5.523437 4.480469 10 10 10h53.273437v167.789062h-234.222656c-5.515625 0-10-4.484375-10-10v-452c0-5.515625 4.484375-10 10-10h20c5.523438 0 10-4.476562 10-10s-4.476562-10-10-10h-20c-16.542969 0-30 13.457031-30 30v452c0 16.542969 13.457031 30 30 30h244.222656c5.523438 0 10-4.476562 10-10v-187.789062c0-5.523438-4.476562-10-10-10h-53.269531v-56.941407h53.269531c5.523438 0 10-4.476562 10-10v-66.8125c0-41.375 33.660156-75.039062 75.039063-75.039062h57.320312v56.9375h-57.320312c-9.8125 0-18.101563 8.289062-18.101563 18.101562v66.8125c0 5.523438 4.476563 10 10 10h64.019532l-7.492188 56.941407h-56.527344c-5.519531 0-10 4.476562-10 10v187.789062c0 5.523438 4.480469 10 10 10h30.839844c5.523438 0 10-4.476562 10-10s-4.476562-10-10-10h-20.839844v-167.789062h55.296875c5.019531 0 9.261719-3.722657 9.914063-8.695313l10.125-76.941406c.375-2.851563-.496094-5.730469-2.394532-7.894531-1.898437-2.167969-4.640624-3.40625-7.519531-3.40625h-65.417969v-54.914063h65.417969c5.523438 0 10-4.476563 10-10v-76.9375c-.003906-5.523437-4.480469-10-10.003906-10zm0 0"/>
    <path d="m482 0h-352c-5.523438 0-10 4.476562-10 10s4.476562 10 10 10h352c5.515625 0 10 4.484375 10 10v452c0 5.515625-4.484375 10-10 10h-20c-5.523438 0-10 4.476562-10 10s4.476562 10 10 10h20c16.542969 0 30-13.457031 30-30v-452c0-16.542969-13.457031-30-30-30zm0 0"/>
    <path d="m422.003906 492h-.007812c-5.523438 0-9.996094 4.476562-9.996094 10s4.480469 10 10.003906 10c5.523438 0 10-4.476562 10-10s-4.476562-10-10-10zm0 0"/>
    <path d="m90.003906 20c5.523438 0 10-4.476562 10-10s-4.476562-10-10-10h-.007812c-5.523438 0-9.996094 4.476562-9.996094 10s4.480469 10 10.003906 10zm0 0"/>
</svg>