<svg height="511pt" viewBox="0 0 511 511.99919" width="511pt" xmlns="http://www.w3.org/2000/svg">
    <path d="m464.859375 79.292969c8.796875-14.289063 17.355469-28.097657 27.796875-39.632813l.121094-.285156c7.023437-7.761719 6.445312-19.761719-1.296875-26.804688-7.742188-7.039062-19.710938-6.457031-26.738281 1.300782l-.84375 1.082031c-10.503907 12.621094-20.171876 26.257813-29.054688 40.445313 14.605469 7.152343 30.015625 23.894531 30.015625 23.894531zm0 0"
          fill="#c28a46"/>
    <path d="m500.46875 140.054688c-5.921875-22.109376-18.265625-43.117188-35.609375-60.761719 0 0-15.410156-16.742188-30.015625-23.894531-20.1875-12.324219-42.472656-19.4375-64.402344-20.371094-33.046875-1.398438-63.308594 10.933594-87.503906 35.683594-23.257812 23.78125-35.703125 53.496093-38.054688 90.839843-1.242187 19.789063.40625 40.253907 3.070313 60.6875 17.714844-2.703125 37.171875-8.078125 37.171875-8.078125-5.632812-45.207031-4.859375-86.496094 24.894531-116.917968 16.710938-17.074219 36.496094-25.261719 58.816407-24.316407 15.648437.664063 31.761718 5.910157 46.558593 15.019531-.007812.007813-.011719.015626-.015625.023438 2.886719 1.90625 18.132813 12.261719 29.078125 25.347656 21.375 26.082032 31.574219 62.054688 9.949219 93.921875-29.214844 43.058594-72.773438 56.0625-127.917969 72.527344-9.800781 2.925781-19.902343 5.941406-30.285156 9.226563-1.566406-12.359376-3.523437-24.710938-5.464844-36.921876 37.710938-10.765624 66.140625-28.914062 88.996094-50.714843 27.519531-26.246094 46.957031-57.78125 64.726563-88.039063-10.949219-13.085937-26.191407-23.441406-29.082032-25.347656-31.472656 53.828125-61.90625 104.789062-130.253906 126.191406 0 0-19.457031 5.375-37.167969 8.078125-26.816406 3.769531-49.238281 5.460938-69.101562 6.960938-54.996094 4.148437-91.332031 6.890625-127.144531 49.476562-21.929688 26.074219-29.339844 66.941407-19.339844 106.652344 4.394531 17.433594 11.597656 33.308594 21.152344 47.066406l28.976562-24.929687c-5.929688-9.300782-10.476562-19.875-13.382812-31.410156-7.074219-28.09375-2.636719-56.042969 11.582031-72.949219 25.554687-30.386719 49.203125-32.171875 101.003906-36.082031 20.53125-1.550782 43.714844-3.300782 71.882813-7.273438.003906.039062.011718.078125.015624.117188 21.246094-2.820313 37.59375-7.976563 37.59375-7.976563s-16.347656 5.15625-37.59375 7.976563c2.269532 14.257812 4.449219 28.191406 5.953126 41.707031 2.371093 12.039062 1.773437 39.921875 1.773437 39.921875s.597656-27.882813-1.773437-39.921875c-24.222657 9.105469-49.722657 20.519531-76.324219 36.167969-36.40625 21.414062-69.914063 44.589843-100.730469 69.722656l-28.976562 24.929687c-2.726563 3.050781-23.667969 20.15625-40.910157 39.75l.128907.035157c-7.027344 7.757812-6.445313 19.757812 1.296874 26.800781 7.738282 7.042969 19.710938 6.457031 26.734376-1.300781l-1.207032 1.300781c20.601563-22.019531 37.042969-35.71875 39.871094-38.871094-.015625.015625-.035156.035156-.035156.035156s.019531-.019531.035156-.035156c.003906-.003906.011719-.011719.019531-.019531v.003906c1.15625-1.035156 20.039063-17.898438 29.75-25.460938-9.710937 7.5625-28.59375 24.425782-29.75 25.460938 9.4375 7.460938 19.945313 13.558594 31.328125 18.074219 53.058594 21.035156 92.773438 8.492187 116.746094-5.734375 37.585938-22.300782 64.5625-65.433594 70.402344-112.566406 1.304687-10.523438 1.6875-21.230469 1.429687-32.039063.015625-.003906.03125-.007813.046875-.011719-.058594-1.363281-1.21875-28.4375-3.1875-38.804687 1.964844 10.367187 3.128906 37.441406 3.1875 38.804687 13.074219-4.289062 25.738282-8.066406 37.910156-11.703125 48.035157-14.339843 90.816407-27.113281 124.859376-59.582031 8.40625-8.015625 16.285156-17.242188 23.574218-27.980469 18.019532-26.554687 23.109375-57.15625 14.714844-88.496093zm-240.144531 215.140624c-4.359375 35.199219-24.820313 68.410157-52.117188 84.609376-24.257812 14.394531-52.339843 15.4375-83.464843 3.097656-5.519532-2.191406-10.75-4.925782-15.652344-8.160156 28.609375-23.109376 59.667968-44.492188 93.339844-64.296876 20.1875-11.871093 39.917968-21.179687 58.984374-28.867187-.179687 4.605469-.535156 9.148437-1.089843 13.617187zm0 0"
          fill="#c28a46"/>
    <g fill="#ad7b3e">
        <path d="m491.480469 12.570312c-7.742188-7.039062-19.710938-6.457031-26.738281 1.300782l-.84375 1.082031c-.585938.707031-1.160157 1.425781-1.742188 2.140625 10.777344 12.875-1.214844 25.863281-15.203125 45.847656 7.996094 5.992188 17.90625 16.351563 17.90625 16.351563 8.796875-14.289063 17.355469-28.097657 27.796875-39.632813l.121094-.285156c7.023437-7.761719 6.445312-19.761719-1.296875-26.804688zm0 0"/>
        <path d="m290.734375 252.070312c37.714844-10.765624 66.140625-28.914062 89-50.714843 19.253906-18.363281 47.238281-54.488281 65.222656-87.457031-3.996093-5.996094-14.988281-15.988282-14.988281-15.988282-17.769531 30.253906-40.964844 75.933594-82.929688 105.910156-25.703124 18.359376-88.921874 45.960938-170.855468 62.945313 52.957031 0 92.921875-9.992187 114.550781-14.695313zm0 0"/>
        <path d="m109.089844 434.742188c28.609375-23.109376 59.601562-44.605469 93.339844-64.296876 16.71875-9.757812 50.761718-24.867187 58.898437-28.949218.085937-.613282.175781-1.222656.253906-1.835938.554688-4.46875.347657-12.332031.527344-16.941406-19.066406 7.691406-72.46875 35.855469-92.652344 47.726562-33.671875 19.808594-48.59375 28.082032-77.203125 51.191407 5 4.992187 9.996094 8.992187 16.835938 13.105469zm0 0"/>
        <path d="m62.28125 445.613281s-15.984375 16.988281-15.984375 16.988281c-.007813.003907 15.992187-16.992187 15.984375-16.988281-2.644531 2.945313-48.804688 52.804688-48.246094 53.367188 7.402344 7.398437 19.710938 6.457031 26.738282-1.300781l-1.210938 1.300781c10.183594-10.882813 33.695312-32.828125 40.703125-39.378907-7.992187-4.996093-12.988281-9.992187-17.984375-13.988281zm0 0"/>
    </g>
    <path d="m288.296875 75.949219c22.660156-23.179688 50.953125-34.75 81.828125-33.433594 20.550781.871094 41.582031 7.539063 60.816406 19.277344.109375.066406.222656.121093.335938.183593.089844.046876.175781.101563.273437.148438 13.140625 6.4375 27.65625 22.085938 27.800781 22.242188.035157.039062.074219.074218.113282.113281.019531.019531.03125.042969.050781.0625 16.484375 16.769531 28.140625 36.636719 33.714844 57.453125 1.488281 5.550781 2.539062 11.152344 3.121093 16.652344 1.019532 9.617187 15.921876 8.03125 14.902344-1.578126-.664062-6.273437-1.855468-12.652343-3.546875-18.953124-5.769531-21.546876-17.285156-42.109376-33.445312-59.796876 7.34375-11.855468 15.027343-23.773437 23.949219-33.632812 23.742187-26.25-18.824219-62.726562-40.148438-34.433594-8.789062 10.570313-17.40625 22.339844-25.675781 35.066406-19.648438-10.773437-40.8125-16.894531-61.628907-17.777343-35.226562-1.496094-67.457031 11.621093-93.175781 37.929687-24.570312 25.117188-37.710937 56.394532-40.175781 95.609375-.996094 15.804688-.292969 33.347657 2.203125 54.726563-23.394531 3.058594-43.433594 4.570312-61.328125 5.917968-54.84375 4.140626-94.46875 7.128907-132.308594 52.125-23.449218 27.886719-31.445312 71.300782-20.867187 113.304688 4.019531 15.964844 10.289062 30.757812 18.664062 44.074219-12.785156 11.441406-25.433593 23.066406-36.78125 35.964843-21.515625 24.449219 15.492188 61.035157 38.046875 36.902344 11.160156-11.925781 22.957032-23.175781 34.992188-34.207031 8.679687 6.191406 18.070312 11.308594 27.996094 15.242187 55.886718 22.15625 97.914062 8.828126 123.332031-6.253906 39.535156-23.457031 67.894531-68.707031 74.015625-118.09375 1.082031-8.710937 1.597656-17.765625 1.5625-27.53125 11.136718-3.570312 21.96875-6.808594 32.535156-9.960937 47.589844-14.210938 92.539062-27.628907 127.882812-61.335938 9.011719-8.59375 17.289063-18.417969 24.605469-29.199219 5.683594-8.378906 10.230469-17.265624 13.503907-26.414062 3.257812-9.101562-10.851563-14.148438-14.109376-5.050781-2.851562 7.960937-6.816406 15.714843-11.796874 23.046875-6.8125 10.042968-14.1875 18.800781-22.542969 26.769531-32.742188 31.222656-74.027344 43.546875-121.878907 57.835937-9.324218 2.785157-18.890624 5.640626-28.726562 8.75-.398438-6.957031-1.023438-16.253906-1.863281-23.460937 8.1875-2.539063 16.226562-4.941406 24.097656-7.292969 56.570313-16.890625 101.253906-30.230468 131.96875-75.496094 11.082031-16.328124 15.351563-35.167968 12.355469-54.488281-2.589844-16.6875-10.441406-33.421875-22.707032-48.390625-.007812-.007812-.015624-.011718-.023437-.019531-.007813-.011719-.015625-.027344-.027344-.039063-11.097656-13.265624-26.039062-23.683593-30.1875-26.453124-.21875-.175782-.453125-.34375-.699219-.492188-15.972656-9.832031-33.320312-15.40625-50.167968-16.125-24.527344-1.042969-46.21875 7.898438-64.492188 26.566406-31.351562 32.054688-32.417968 74.628906-27.738281 116.550782-5.449219 1.367187-13.832031 3.359374-22.488281 4.976562-2.339844-20.21875-3-36.75-2.070313-51.511719 2.230469-35.476562 13.984375-63.628906 35.933594-86.070312zm181.363281-56.203125c10.914063-13.011719 27.25 1.230468 16.796875 15.597656-7.675781 10.554688-16.039062 20.84375-22.992187 31.972656-4.632813-4.351562-11.125-9.972656-18.074219-14.488281 7.839844-12.011719 15.980469-23.121094 24.269531-33.082031zm-434.105468 472.554687c-4.28125 4.167969-10.058594 5.585938-15.246094 1.992188-7.28125-5.042969-4.933594-12.039063-1.167969-18.214844 22.417969-25.167969 49.351563-48.019531 75.792969-68.988281 48.171875-38.207032 101.007812-72.355469 158.328125-95.050782.574219 8.007813.675781 17.898438.636719 24.535157-81.992188 34.023437-157.503907 91.242187-218.34375 155.726562zm217.460937-139.09375c-.039063.355469-.082031.714844-.125 1.070313-4.089844 32.980468-23.128906 64.023437-48.507813 79.082031-25.085937 14.886719-56.246093 12.71875-81.953124.351563 25.792968-20.160157 53.933593-39.238282 83.800781-56.804688 14.867187-8.746094 30.261719-16.550781 46.785156-23.699219zm37.480469 5.738281c-5.5625 44.882813-31.15625 85.902344-66.789063 107.042969-22.527343 13.371094-59.929687 25.128907-110.160156 5.214844-7.789063-3.089844-15.207031-7.007813-22.148437-11.675781 5.246093-4.609375 12.480468-10.898438 18.253906-15.640625 3.960937 2.289062 8.085937 4.296875 12.328125 5.980469 15.300781 6.066406 29.949219 9.097656 43.867187 9.097656 16.460938 0 31.902344-4.242188 46.183594-12.71875 29.21875-17.335938 51.09375-52.714844 55.734375-90.128906 3.707031-29.976563-.945313-60.367188-5.582031-89.949219 9.113281-1.496094 16.917968-3.273438 22.457031-4.683594 5.050781 32.09375 9.886719 64.953125 5.855469 97.460937zm157.710937-155.914062c-27.71875 40.847656-70.144531 53.515625-123.933593 69.574219-7.101563 2.121093-14.382813 4.292969-21.820313 6.585937-1.042969-7.433594-2.1875-14.832031-3.289063-21.828125 32.839844-10.34375 60.945313-26.933593 85.738282-50.582031 25.078125-23.914062 43.695312-52.242188 60.265625-79.953125 25.078125 37.566406 8.96875 67.464844 3.039062 76.203125zm-12.976562-88.8125c-31.285157 52.875-68.671875 101.558594-127.792969 124.375-49.886719 19.25-104.632812 17.851562-157.046875 23.585938-9.609375 1.054687-7.976563 15.953124 1.628906 14.898437 31.734375-3.472656 63.632813-4.734375 95.308594-8.910156 1.570313 10.023437 2.976563 19.402343 4.101563 28.484375-25.902344 10.046875-49.507813 21.402344-72 34.628906-33.914063 19.949219-65.769532 41.742188-94.8125 64.855469-19.507813-37.710938-14.714844-86.492188 25.203124-108.175781 8.492188-4.613282 1.339844-17.785157-7.152343-13.171876-48.125 26.140626-54.847657 86.003907-29.808594 131.085938l-17.714844 15.234375c-6.878906-11.421875-12.085937-24.035156-15.507812-37.613281-9.421875-37.417969-2.601563-75.734375 17.808593-99.996094 28.167969-33.5 64.527344-42.125 106.457032-45.621094 40.984375-3.414062 83.894531-4.15625 123.460937-16.566406 68.671875-21.503906 100.785157-72.132812 130.351563-122.503906 4.867187 3.644531 11.558594 9.085937 17.515625 15.410156zm-119.855469-11.734375c24.449219-24.980469 59.316406-27.671875 89.71875-11.78125-27.984375 47.710937-55.902344 92.089844-113.589844 113.371094-3.902344-37.296875-2.511718-74.617188 23.871094-101.589844zm0 0"
          fill="#060606"/>
</svg>