<?xml version="1.0" encoding="iso-8859-1"?>
<svg height="511pt" viewBox="0 0 511 511.99919" width="511pt" xmlns="http://www.w3.org/2000/svg">
    <path d="m288.296875 75.949219c22.660156-23.179688 50.953125-34.75 81.828125-33.433594 20.550781.871094 41.582031 7.539063 60.816406 19.277344.109375.066406.222656.121093.335938.183593.089844.046876.175781.101563.273437.148438 13.140625 6.4375 27.65625 22.085938 27.800781 22.242188.035157.039062.074219.074218.113282.113281.019531.019531.03125.042969.050781.0625 16.484375 16.769531 28.140625 36.636719 33.714844 57.453125 1.488281 5.550781 2.539062 11.152344 3.121093 16.652344 1.019532 9.617187 15.921876 8.03125 14.902344-1.578126-.664062-6.273437-1.855468-12.652343-3.546875-18.953124-5.769531-21.546876-17.285156-42.109376-33.445312-59.796876 7.34375-11.855468 15.027343-23.773437 23.949219-33.632812 23.742187-26.25-18.824219-62.726562-40.148438-34.433594-8.789062 10.570313-17.40625 22.339844-25.675781 35.066406-19.648438-10.773437-40.8125-16.894531-61.628907-17.777343-35.226562-1.496094-67.457031 11.621093-93.175781 37.929687-24.570312 25.117188-37.710937 56.394532-40.175781 95.609375-.996094 15.804688-.292969 33.347657 2.203125 54.726563-23.394531 3.058594-43.433594 4.570312-61.328125 5.917968-54.84375 4.140626-94.46875 7.128907-132.308594 52.125-23.449218 27.886719-31.445312 71.300782-20.867187 113.304688 4.019531 15.964844 10.289062 30.757812 18.664062 44.074219-12.785156 11.441406-25.433593 23.066406-36.78125 35.964843-21.515625 24.449219 15.492188 61.035157 38.046875 36.902344 11.160156-11.925781 22.957032-23.175781 34.992188-34.207031 8.679687 6.191406 18.070312 11.308594 27.996094 15.242187 55.886718 22.15625 97.914062 8.828126 123.332031-6.253906 39.535156-23.457031 67.894531-68.707031 74.015625-118.09375 1.082031-8.710937 1.597656-17.765625 1.5625-27.53125 11.136718-3.570312 21.96875-6.808594 32.535156-9.960937 47.589844-14.210938 92.539062-27.628907 127.882812-61.335938 9.011719-8.59375 17.289063-18.417969 24.605469-29.199219 5.683594-8.378906 10.230469-17.265624 13.503907-26.414062 3.257812-9.101562-10.851563-14.148438-14.109376-5.050781-2.851562 7.960937-6.816406 15.714843-11.796874 23.046875-6.8125 10.042968-14.1875 18.800781-22.542969 26.769531-32.742188 31.222656-74.027344 43.546875-121.878907 57.835937-9.324218 2.785157-18.890624 5.640626-28.726562 8.75-.398438-6.957031-1.023438-16.253906-1.863281-23.460937 8.1875-2.539063 16.226562-4.941406 24.097656-7.292969 56.570313-16.890625 101.253906-30.230468 131.96875-75.496094 11.082031-16.328124 15.351563-35.167968 12.355469-54.488281-2.589844-16.6875-10.441406-33.421875-22.707032-48.390625-.007812-.007812-.015624-.011718-.023437-.019531-.007813-.011719-.015625-.027344-.027344-.039063-11.097656-13.265624-26.039062-23.683593-30.1875-26.453124-.21875-.175782-.453125-.34375-.699219-.492188-15.972656-9.832031-33.320312-15.40625-50.167968-16.125-24.527344-1.042969-46.21875 7.898438-64.492188 26.566406-31.351562 32.054688-32.417968 74.628906-27.738281 116.550782-5.449219 1.367187-13.832031 3.359374-22.488281 4.976562-2.339844-20.21875-3-36.75-2.070313-51.511719 2.230469-35.476562 13.984375-63.628906 35.933594-86.070312zm181.363281-56.203125c10.914063-13.011719 27.25 1.230468 16.796875 15.597656-7.675781 10.554688-16.039062 20.84375-22.992187 31.972656-4.632813-4.351562-11.125-9.972656-18.074219-14.488281 7.839844-12.011719 15.980469-23.121094 24.269531-33.082031zm-434.105468 472.554687c-4.28125 4.167969-10.058594 5.585938-15.246094 1.992188-7.28125-5.042969-4.933594-12.039063-1.167969-18.214844 22.417969-25.167969 49.351563-48.019531 75.792969-68.988281 48.171875-38.207032 101.007812-72.355469 158.328125-95.050782.574219 8.007813.675781 17.898438.636719 24.535157-81.992188 34.023437-157.503907 91.242187-218.34375 155.726562zm217.460937-139.09375c-.039063.355469-.082031.714844-.125 1.070313-4.089844 32.980468-23.128906 64.023437-48.507813 79.082031-25.085937 14.886719-56.246093 12.71875-81.953124.351563 25.792968-20.160157 53.933593-39.238282 83.800781-56.804688 14.867187-8.746094 30.261719-16.550781 46.785156-23.699219zm37.480469 5.738281c-5.5625 44.882813-31.15625 85.902344-66.789063 107.042969-22.527343 13.371094-59.929687 25.128907-110.160156 5.214844-7.789063-3.089844-15.207031-7.007813-22.148437-11.675781 5.246093-4.609375 12.480468-10.898438 18.253906-15.640625 3.960937 2.289062 8.085937 4.296875 12.328125 5.980469 15.300781 6.066406 29.949219 9.097656 43.867187 9.097656 16.460938 0 31.902344-4.242188 46.183594-12.71875 29.21875-17.335938 51.09375-52.714844 55.734375-90.128906 3.707031-29.976563-.945313-60.367188-5.582031-89.949219 9.113281-1.496094 16.917968-3.273438 22.457031-4.683594 5.050781 32.09375 9.886719 64.953125 5.855469 97.460937zm157.710937-155.914062c-27.71875 40.847656-70.144531 53.515625-123.933593 69.574219-7.101563 2.121093-14.382813 4.292969-21.820313 6.585937-1.042969-7.433594-2.1875-14.832031-3.289063-21.828125 32.839844-10.34375 60.945313-26.933593 85.738282-50.582031 25.078125-23.914062 43.695312-52.242188 60.265625-79.953125 25.078125 37.566406 8.96875 67.464844 3.039062 76.203125zm-12.976562-88.8125c-31.285157 52.875-68.671875 101.558594-127.792969 124.375-49.886719 19.25-104.632812 17.851562-157.046875 23.585938-9.609375 1.054687-7.976563 15.953124 1.628906 14.898437 31.734375-3.472656 63.632813-4.734375 95.308594-8.910156 1.570313 10.023437 2.976563 19.402343 4.101563 28.484375-25.902344 10.046875-49.507813 21.402344-72 34.628906-33.914063 19.949219-65.769532 41.742188-94.8125 64.855469-19.507813-37.710938-14.714844-86.492188 25.203124-108.175781 8.492188-4.613282 1.339844-17.785157-7.152343-13.171876-48.125 26.140626-54.847657 86.003907-29.808594 131.085938l-17.714844 15.234375c-6.878906-11.421875-12.085937-24.035156-15.507812-37.613281-9.421875-37.417969-2.601563-75.734375 17.808593-99.996094 28.167969-33.5 64.527344-42.125 106.457032-45.621094 40.984375-3.414062 83.894531-4.15625 123.460937-16.566406 68.671875-21.503906 100.785157-72.132812 130.351563-122.503906 4.867187 3.644531 11.558594 9.085937 17.515625 15.410156zm-119.855469-11.734375c24.449219-24.980469 59.316406-27.671875 89.71875-11.78125-27.984375 47.710937-55.902344 92.089844-113.589844 113.371094-3.902344-37.296875-2.511718-74.617188 23.871094-101.589844zm0 0"
          fill="#060606"/>
</svg>