<?xml version="1.0" encoding="iso-8859-1"?>
<svg id="Capa_1" version="1.1" xmlns="http://www.w3.org/2000/svg" x="0px" y="0px"
     viewBox="0 0 512.001 512.001" style="enable-background:new 0 0 512.001 512.001;" xml:space="preserve">
<path style="fill:#FFFFFF;" d="M472.079,216.064c2.39,12.978,3.639,26.336,3.639,39.994s-1.25,27.016-3.639,39.994H368.884
	l-0.01-0.01c4.439-12.508,6.859-25.976,6.859-39.984s-2.42-27.476-6.859-39.984l0.01-0.01H472.079z"/>
    <g>
	<path style="fill:#F26B5C;" d="M472.079,216.064H368.884l-0.01,0.01c-12.058-34.055-39.084-61.081-73.139-73.139l0.01-0.01V39.73
		C385.032,56.197,455.612,126.777,472.079,216.064z"/>
        <path style="fill:#F26B5C;" d="M368.884,296.053h103.195c-16.468,89.287-87.047,159.867-176.335,176.335V369.192l-0.01-0.01
		c34.055-12.058,61.081-39.084,73.139-73.139L368.884,296.053z"/>
</g>
    <g>
	<path style="fill:#FFFFFF;" d="M295.745,369.192v103.195c-12.978,2.39-26.336,3.639-39.994,3.639
		c-13.658,0-27.016-1.25-39.994-3.639V369.192l0.01-0.01c12.508,4.439,25.976,6.859,39.984,6.859c14.008,0,27.476-2.42,39.984-6.859
		L295.745,369.192z"/>
        <path style="fill:#FFFFFF;" d="M295.745,39.73v103.195l-0.01,0.01c-12.508-4.439-25.976-6.859-39.984-6.859
		c-14.008,0-27.476,2.42-39.984,6.859l-0.01-0.01V39.73c12.408-2.29,25.186-3.529,38.224-3.629c1.83,0,3.659,0.01,5.489,0.03
		C271.838,36.33,283.947,37.56,295.745,39.73z"/>
</g>
    <g>
	<path style="fill:#F26B5C;" d="M215.766,369.182l-0.01,0.01v103.195C126.469,455.919,55.89,385.34,39.422,296.053h103.195
		l0.01-0.01C154.685,330.098,181.711,357.124,215.766,369.182z"/>
        <path style="fill:#F26B5C;" d="M215.756,142.925l0.01,0.01c-34.055,12.058-61.081,39.084-73.139,73.139l-0.01-0.01H39.422
		C55.89,126.777,126.469,56.197,215.756,39.73V142.925z"/>
</g>
    <path style="fill:#FFFFFF;" d="M142.627,296.043l-0.01,0.01H39.422c-2.38-12.918-3.629-26.216-3.639-39.804c0-0.06,0-0.13,0-0.19
	c0-13.658,1.25-27.016,3.639-39.994h103.195l0.01,0.01c-4.439,12.508-6.859,25.976-6.859,39.984
	C135.768,270.066,138.188,283.534,142.627,296.043z"/>
    <path d="M96.024,166.071c-5.519,0-9.999,4.479-9.999,9.999c0,5.519,4.479,9.999,9.999,9.999s9.999-4.479,9.999-9.999
	C106.022,170.551,101.543,166.071,96.024,166.071z"/>
    <path d="M116.726,151.863c2.89,0,5.757-1.247,7.734-3.654c14.25-17.357,32.059-32.15,53.129-43.083
	c4.901-2.544,6.813-8.579,4.27-13.48c-2.544-4.901-8.578-6.814-13.48-4.27c-22.364,11.603-42.605,27.719-59.375,48.144
	C103.613,142.087,108.392,151.863,116.726,151.863z"/>
    <path d="M5.631,367.378c-6.161,18.471-7.236,38.643-3.112,58.332c8.658,41.411,42.297,75.09,83.706,83.807
	c19.688,4.146,39.854,3.086,58.321-3.066c24.422-8.127,56.083-20.516,81.251-20.516c0.009,0,0.019,0,0.028,0
	c17.644,0,39.564,0.009,60.06,0.03c25.124,0.028,56.347,12.185,81.543,20.522c18.51,6.113,38.657,7.167,58.283,3.042
	c41.407-8.69,75.067-42.351,83.76-83.759c4.125-19.642,3.07-39.805-3.053-58.309c-8.088-24.436-20.481-56.227-20.491-81.457
	c-0.006-6.1-0.003-46.78,0.01-59.863c0.019-25.112,12.16-56.318,20.492-81.526c6.12-18.508,7.167-38.682,3.03-58.344
	c-8.907-42.258-43.475-76.072-86.019-84.141c-18.932-3.591-38.327-2.365-56.093,3.545c-25.3,8.419-57.571,20.879-83.355,20.516
	c0,0-46.788-0.126-54.08,0.074c-20.137,0.537-44.755-7.423-66.465-14.507c-25.972-8.473-44.296-15.385-74.714-9.662
	C46.065,10.136,11.419,44.001,2.518,86.373c-4.147,19.818-3.032,40.136,3.229,58.755c1.087,3.237,2.236,6.582,3.415,10.011
	c7.882,22.942,16.917,48.944,16.933,70.485c0,0.108,0.029,59.592,0.03,60.554C26.134,311.154,13.947,342.409,5.631,367.378z
	 M259.594,46.128c8.821,0.144,17.669,0.852,26.403,2.101v81.346c-9.785-2.324-19.826-3.498-29.996-3.498
	c-10.171,0-20.213,1.175-29.996,3.497V48.229c9.311-1.334,18.782-2.054,28.301-2.131C256.054,46.099,257.802,46.109,259.594,46.128z
	 M48.177,286.054c-2.86-19.953-2.861-40.111,0.001-60.091h81.341c-2.324,9.785-3.498,19.926-3.498,30.096
	c0,10.171,1.175,20.213,3.497,29.996H48.177z M146.016,256.058c0-60.666,49.521-109.984,109.984-109.984
	c60.201,0,109.984,49.077,109.984,109.984c0,61.044-49.767,109.984-109.984,109.984
	C195.335,366.042,146.016,316.522,146.016,256.058z M463.825,226.063c1.419,9.904,2.146,19.957,2.146,29.996
	c0,10.039-0.728,20.093-2.146,29.996h-81.341c2.324-9.785,3.499-19.826,3.499-29.996c0-10.171-1.175-20.213-3.497-29.996H463.825z
	 M256.001,386.04c10.17,0,20.211-1.174,29.996-3.499v81.339c-19.799,2.828-40.195,2.828-59.991,0v-81.339
	C235.79,384.865,245.831,386.04,256.001,386.04z M305.993,376.028c31.347-13.141,56.84-38.733,69.978-70.077h83.988
	c-18.548,75.505-78.462,135.518-153.965,154.066v-83.989H305.993z M375.971,206.066c-13.141-31.347-38.633-56.84-69.977-69.978V52.1
	c75.505,18.548,135.418,78.462,153.966,153.965h-83.989V206.066z M206.008,136.088c-31.347,13.141-56.84,38.633-69.978,69.977
	H52.042C70.591,130.561,130.504,70.648,206.008,52.1V136.088z M136.031,306.051c13.141,31.347,38.633,56.84,69.977,69.978v83.988
	C130.504,441.468,70.59,381.554,52.043,306.051H136.031z M487.434,373.742c5.086,15.373,5.916,31.494,2.467,47.917
	c-7.088,33.765-34.535,61.212-68.301,68.298c-16.402,3.448-32.516,2.621-47.894-2.458c-12.612-4.173-27.758-9.647-42.906-13.942
	c32.832-11.288,62.725-29.947,87.74-54.962c25.012-25.012,43.669-54.9,54.958-87.728
	C477.79,346.006,483.184,360.905,487.434,373.742z M373.661,24.65c14.746-4.906,30.239-5.874,46.053-2.874
	c34.712,6.584,62.915,34.16,70.178,68.615c5.542,26.334-0.772,43.113-6.17,58.991c-3.471,10.208-7.127,20.988-10.215,31.891
	C450.995,115.786,398.625,61.971,331.072,38.65C345.925,34.363,361.018,28.856,373.661,24.65z M22.091,90.477
	c7.256-34.549,35.526-62.168,70.343-68.728c25.789-4.856,40.601,1.122,64.81,9.02c7.856,2.564,16.069,5.236,24.407,7.637
	C114.943,61.189,61.587,114.289,38.559,181.085c-3.157-11.093-6.919-22.064-10.485-32.444
	C23.467,135.233,16.445,117.452,22.091,90.477z M24.602,373.701c4.261-12.793,9.651-27.616,13.945-42.707
	c22.915,66.506,75.958,119.575,142.487,142.507c-15.149,4.309-30.032,9.726-42.806,13.975c-15.106,5.032-31.663,5.886-47.883,2.472
	c-33.765-7.107-61.193-34.568-68.252-68.335C18.693,405.385,19.56,388.818,24.602,373.701z"/>
    <g>
</g>
    <g>
</g>
    <g>
</g>
    <g>
</g>
    <g>
</g>
    <g>
</g>
    <g>
</g>
    <g>
</g>
    <g>
</g>
    <g>
</g>
    <g>
</g>
    <g>
</g>
    <g>
</g>
    <g>
</g>
    <g>
</g>
</svg>
