<?xml version="1.0" encoding="iso-8859-1"?>
<svg id="Capa_1" fill="#e00d0d" version="1.1" xmlns="http://www.w3.org/2000/svg" x="0px" y="0px"
     viewBox="0 0 512.001 512.001" style="enable-background:new 0 0 512.001 512.001;" xml:space="preserve">
<g>
	<g>
		<path d="M96.024,166.071c-5.519,0-9.999,4.479-9.999,9.999c0,5.519,4.479,9.999,9.999,9.999c5.519,0,9.999-4.479,9.999-9.999
			C106.022,170.551,101.543,166.071,96.024,166.071z"/>
	</g>
</g>
    <g>
	<g>
		<path d="M181.859,91.646c-2.544-4.901-8.578-6.814-13.48-4.27c-22.364,11.603-42.605,27.719-59.375,48.144
			c-5.391,6.567-0.612,16.344,7.722,16.344c2.89,0,5.757-1.247,7.734-3.654c14.25-17.357,32.059-32.15,53.129-43.083
			C182.49,102.583,184.402,96.547,181.859,91.646z"/>
	</g>
</g>
    <g>
	<g>
		<path d="M485.927,286.004c-0.006-6.1-0.003-46.78,0.01-59.863c0.019-25.112,12.16-56.318,20.492-81.526
			c6.12-18.508,7.167-38.682,3.03-58.344c-8.907-42.258-43.475-76.072-86.019-84.141c-18.932-3.591-38.327-2.365-56.093,3.545
			c-25.3,8.419-57.571,20.879-83.355,20.516c0,0-46.788-0.126-54.08,0.074c-20.137,0.537-44.755-7.423-66.465-14.507
			c-25.972-8.473-44.296-15.385-74.714-9.662C46.065,10.136,11.419,44.001,2.518,86.373c-4.147,19.818-3.032,40.136,3.229,58.755
			c1.087,3.237,2.236,6.582,3.415,10.011c7.882,22.942,16.917,48.944,16.933,70.485c0,0.108,0.029,59.592,0.03,60.554
			c0.01,24.977-12.177,56.232-20.493,81.201c-6.161,18.471-7.236,38.643-3.112,58.332c8.658,41.411,42.297,75.09,83.706,83.807
			c19.688,4.146,39.854,3.086,58.321-3.066c24.422-8.127,56.083-20.516,81.251-20.516c0.009,0,0.019,0,0.028,0
			c17.644,0,39.564,0.009,60.06,0.03c25.124,0.028,56.347,12.185,81.543,20.522c18.51,6.113,38.657,7.167,58.283,3.042
			c41.407-8.69,75.067-42.351,83.76-83.759c4.125-19.642,3.07-39.805-3.053-58.309C498.331,343.025,485.937,311.234,485.927,286.004
			z M373.661,24.65c14.746-4.906,30.239-5.874,46.053-2.874c34.712,6.584,62.915,34.16,70.178,68.615
			c5.542,26.334-0.772,43.113-6.17,58.991c-3.471,10.208-7.127,20.988-10.215,31.891C450.995,115.786,398.625,61.971,331.072,38.65
			C345.925,34.363,361.018,28.856,373.661,24.65z M382.484,226.063h81.34c1.419,9.904,2.146,19.957,2.146,29.996
			c0,10.039-0.728,20.093-2.146,29.996h-81.341c2.324-9.785,3.498-19.826,3.498-29.996
			C385.982,245.888,384.807,235.845,382.484,226.063z M305.994,52.1c75.505,18.548,135.418,78.462,153.966,153.965h-83.989v0.001
			c-13.141-31.347-38.633-56.84-69.977-69.978V52.1z M226.006,48.229c9.311-1.334,18.782-2.054,28.301-2.131
			c1.747,0,3.495,0.01,5.287,0.029c8.821,0.144,17.669,0.852,26.403,2.101v81.346c-9.785-2.324-19.826-3.498-29.996-3.498
			c-10.171,0-20.213,1.175-29.996,3.497V48.229z M129.518,286.054H48.177c-2.86-19.953-2.861-40.111,0.001-60.091h81.341
			c-2.324,9.785-3.498,19.926-3.498,30.096C126.02,266.229,127.195,276.271,129.518,286.054z M52.042,206.065
			C70.591,130.562,130.504,70.648,206.008,52.1v83.988c-31.348,13.141-56.84,38.633-69.978,69.977H52.042z M22.091,90.477
			c7.256-34.549,35.526-62.168,70.343-68.728c25.789-4.856,40.601,1.122,64.81,9.02c7.856,2.564,16.069,5.236,24.407,7.637
			C114.943,61.189,61.587,114.289,38.559,181.085c-3.157-11.093-6.919-22.064-10.485-32.444
			C23.467,135.233,16.445,117.452,22.091,90.477z M138.229,487.477c-15.106,5.032-31.663,5.886-47.883,2.472
			c-33.765-7.107-61.193-34.568-68.252-68.335c-3.401-16.229-2.534-32.795,2.509-47.912c4.261-12.793,9.651-27.616,13.945-42.707
			c22.915,66.506,75.958,119.575,142.487,142.507C165.886,477.811,151.003,483.228,138.229,487.477z M206.008,460.017
			C130.504,441.468,70.59,381.554,52.043,306.051h83.988c13.141,31.347,38.633,56.84,69.977,69.978V460.017z M146.016,256.058
			c0-60.666,49.521-109.984,109.984-109.984c60.201,0,109.984,49.077,109.984,109.984c0,61.044-49.767,109.984-109.984,109.984
			C195.335,366.042,146.016,316.522,146.016,256.058z M285.996,463.88c-19.799,2.828-40.195,2.828-59.991,0v-81.339
			c9.785,2.324,19.826,3.499,29.996,3.499c10.169,0,20.211-1.174,29.996-3.499V463.88z M305.993,376.028
			c31.347-13.141,56.84-38.733,69.978-70.077h83.988c-18.548,75.505-78.462,135.518-153.965,154.066L305.993,376.028
			L305.993,376.028z M489.901,421.659c-7.088,33.765-34.535,61.212-68.301,68.298c-16.402,3.448-32.516,2.621-47.894-2.458
			c-12.612-4.173-27.758-9.647-42.906-13.942c32.832-11.288,62.725-29.947,87.74-54.962c25.012-25.012,43.669-54.9,54.958-87.728
			c4.291,15.139,9.686,30.038,13.936,42.875C492.52,389.115,493.35,405.237,489.901,421.659z"/>
	</g>
</g>
</svg>
