<svg id="Layer_1" enable-background="new 0 0 512 512" height="512" viewBox="0 0 512 512" width="512"
     xmlns="http://www.w3.org/2000/svg">
    <g>
        <path d="m500.852 380.29-23.631-13.808c-5.178-3.026-10.661-5.315-16.299-6.883l28.269-43.701c2.523-3.846 2.733-8.748.548-12.795-2.185-4.048-6.399-6.562-10.999-6.562h-119.74v-10.26c50.968-3.185 95.18-38.551 109.028-88.229l4.551-16.328c7.407-26.573 2.091-54.417-14.586-76.392s-42.063-34.587-69.649-34.604l-29.344-.016v-6.67c0-6.893-5.607-12.5-12.5-12.5h-20c-6.893 0-12.5 5.607-12.5 12.5v232.5h-29.5v-32.5c0-6.893-5.607-12.5-12.5-12.5h-43c-26.191 0-47.5 21.309-47.5 47.5 0 0-.094 3.739.16 6.542l10.817 51.502c-11.582.234-23.117 3.36-33.448 9.396-16.826 9.832-37.729 9.832-54.558 0-21.492-12.559-48.198-12.559-69.692 0l-23.63 13.808c-6.877 4.018-11.149 11.462-11.149 19.427v53.241c0 9.649 7.851 17.5 17.5 17.5h477c9.649 0 17.5-7.851 17.5-17.5v-53.241c0-7.965-4.272-15.409-11.148-19.427zm-93.324-13.808c-16.826 9.832-37.729 9.832-54.558 0-21.492-12.559-48.198-12.559-69.692 0-16.826 9.832-37.729 9.832-54.558 0-6.49-3.792-13.456-6.431-20.609-7.933l-3.572-17.008h250.2l-10.065 15.56c-12.81-.424-25.715 2.703-37.146 9.381zm56.914-39.94h-263.053l-3.15-15h275.906zm-82.942-138.138c4.143 0 7.5-3.357 7.5-7.5v-39.494c0-20.571-7.048-40.052-20-55.692l19.335.012c22.857.014 43.892 10.464 57.71 28.672 13.817 18.208 18.223 41.278 12.085 63.296l-4.551 16.328c-10.996 39.448-43.849 68.613-83.153 75.802 12.044-15.332 18.574-34.125 18.574-53.924 0-4.143-3.357-7.5-7.5-7.5s-7.5 3.357-7.5 7.5c0 16.18-5.281 31.539-15 44.145v-162.786c9.719 12.605 15 27.963 15 44.147v39.494c0 4.143 3.357 7.5 7.5 7.5zm-52.5-121.862h15v230h-15zm-100 200h40.5v30h-72.894c1.282-16.756 15.315-30 32.394-30zm268 186.416c0 1.379-1.121 2.5-2.5 2.5h-477c-1.379 0-2.5-1.121-2.5-2.5v-12.5h54c4.143 0 7.5-3.357 7.5-7.5s-3.357-7.5-7.5-7.5h-54v-25.741c0-2.655 1.424-5.137 3.717-6.476l23.629-13.808c16.828-9.831 37.731-9.831 54.558 0 21.495 12.559 48.199 12.56 69.692 0 16.828-9.831 37.731-9.831 54.558 0 21.494 12.559 48.198 12.56 69.692 0 16.828-9.831 37.731-9.831 54.558 0 21.495 12.559 48.199 12.56 69.692 0 16.828-9.831 37.731-9.831 54.558 0l23.631 13.808c2.292 1.339 3.716 3.82 3.716 6.476v25.741h-393.001c-4.143 0-7.5 3.357-7.5 7.5s3.357 7.5 7.5 7.5h393z"/>
        <path d="m445 410.458c5.514 0 10-4.486 10-10s-4.486-10-10-10-10 4.486-10 10 4.486 10 10 10z"/>
        <path d="m319 410.458c5.514 0 10-4.486 10-10s-4.486-10-10-10-10 4.486-10 10 4.486 10 10 10z"/>
        <path d="m193 410.458c5.514 0 10-4.486 10-10s-4.486-10-10-10-10 4.486-10 10 4.486 10 10 10z"/>
        <path d="m67 390.458c-5.514 0-10 4.486-10 10s4.486 10 10 10 10-4.486 10-10-4.486-10-10-10z"/>
        <path d="m138 116.542h86.5c20.678 0 37.5-16.822 37.5-37.5s-16.822-37.5-37.5-37.5h-17.5c-4.143 0-7.5 3.357-7.5 7.5s3.357 7.5 7.5 7.5h17.5c12.406 0 22.5 10.094 22.5 22.5s-10.094 22.5-22.5 22.5h-86.5c-4.143 0-7.5 3.357-7.5 7.5s3.357 7.5 7.5 7.5z"/>
        <path d="m207 206.542h17.5c20.678 0 37.5-16.822 37.5-37.5s-16.822-37.5-37.5-37.5h-146.5c-4.143 0-7.5 3.357-7.5 7.5s3.357 7.5 7.5 7.5h146.5c12.406 0 22.5 10.094 22.5 22.5s-10.094 22.5-22.5 22.5h-17.5c-4.143 0-7.5 3.357-7.5 7.5s3.357 7.5 7.5 7.5z"/>
        <path d="m8 146.542h40c4.143 0 7.5-3.357 7.5-7.5s-3.357-7.5-7.5-7.5h-40c-4.143 0-7.5 3.357-7.5 7.5s3.357 7.5 7.5 7.5z"/>
        <path d="m68 116.542h40c4.143 0 7.5-3.357 7.5-7.5s-3.357-7.5-7.5-7.5h-40c-4.143 0-7.5 3.357-7.5 7.5s3.357 7.5 7.5 7.5z"/>
        <path d="m158 86.542h52c4.143 0 7.5-3.357 7.5-7.5s-3.357-7.5-7.5-7.5h-52c-4.143 0-7.5 3.357-7.5 7.5s3.357 7.5 7.5 7.5z"/>
        <path d="m217.5 169.042c0-4.143-3.357-7.5-7.5-7.5h-87c-4.143 0-7.5 3.357-7.5 7.5s3.357 7.5 7.5 7.5h87c4.143 0 7.5-3.357 7.5-7.5z"/>
    </g>
</svg>