<?xml version="1.0" encoding="iso-8859-1"?>
<svg id="Layer_1" enable-background="new 0 0 512 512" height="512" viewBox="0 0 512 512" width="512"
     xmlns="http://www.w3.org/2000/svg">
    <g>
        <g>
            <path d="m504.5 432.95v20c0 5.523-4.477 10-10 10h-477c-5.523 0-10-4.477-10-10v-20z" fill="#ffe07d"/>
            <path d="m504.5 432.951v20c0 5.52-4.48 10-10 10h-30c5.52 0 10-4.48 10-10v-20z" fill="#ffd064"/>
            <path d="m203.278 372.018-14.278-67.985h289.741c3.977 0 6.362 4.417 4.181 7.742l-35.422 54.758-57.5 33.916-130.5 20.542z"
                  fill="#f0e5e0"/>
            <path d="m482.92 311.771-35.42 54.76-46 25.46 51.42-80.22c2.18-3.32-.2-7.74-4.18-7.74h30c3.98 0 6.36 4.42 4.18 7.74z"
                  fill="#e2d6d1"/>
            <path d="m272 259.033h-43c-22.091 0-40 17.909-40 40v5h88v-40c0-2.761-2.239-5-5-5z" fill="#d19a6e"/>
            <path d="m277 264.031v40h-30v-40c0-2.76-2.24-5-5-5h30c2.76 0 5 2.24 5 5z" fill="#bc845e"/>
            <path d="m351.5 304.033h-30v-240c0-2.761 2.239-5 5-5h20c2.761 0 5 2.239 5 5z" fill="#d19a6e"/>
            <path d="m351.5 279.033 6.569-6.569c15.003-15.003 23.431-35.351 23.431-56.569v-74.494c0-21.256-8.459-41.638-23.51-56.647l-6.573-6.555 36.923.022c52.916.031 91.224 50.508 77.015 101.481l-4.552 16.329c-13.676 49.063-58.369 83.002-109.303 83.002z"
                  fill="#ccf49f"/>
            <path d="m465.35 179.701-4.55 16.33c-13.67 49.06-58.37 83-109.3 83l5.79-5.79c35.1-11.67 63.17-40.12 73.51-77.21l4.55-16.33c14.21-50.97-24.09-101.45-77.01-101.48h-6.9l-.02-.02 36.92.02c52.92.03 91.22 50.51 77.01 101.48z"
                  fill="#b3e59f"/>
            <path d="m7.5 432.95v-33.241c0-5.331 2.83-10.262 7.432-12.951l23.63-13.808c19.19-11.213 42.935-11.213 62.125 0 19.19 11.213 42.935 11.213 62.125 0 19.19-11.213 42.935-11.213 62.125 0 19.19 11.213 42.935 11.213 62.125 0 19.19-11.213 42.935-11.213 62.125 0 19.19 11.213 42.935 11.213 62.125 0 19.19-11.213 42.935-11.213 62.125 0l23.63 13.808c4.603 2.69 7.432 7.62 7.432 12.951v33.241z"
                  fill="#90d8f9"/>
            <path d="m504.5 399.711v33.24h-30v-33.24c0-5.33-2.83-10.26-7.43-12.95l-23.63-13.81c-5.09-2.98-10.51-5.17-16.07-6.55 4.92-1.25 9.97-1.87 15.01-1.87 10.73 0 21.46 2.81 31.06 8.42l23.63 13.81c4.6 2.69 7.43 7.62 7.43 12.95z"
                  fill="#75cef9"/>
            <path d="m482.92 311.771-14.4 22.26h-273.22l-6.3-30h289.74c3.98 0 6.36 4.42 4.18 7.74z" fill="#faf2f3"/>
            <path d="m482.92 311.771-14.4 22.26h-30l14.4-22.26c2.18-3.32-.2-7.74-4.18-7.74h30c3.98 0 6.36 4.42 4.18 7.74z"
                  fill="#f0e5e0"/>
        </g>
        <g>
            <path d="m500.852 380.29-23.631-13.808c-5.178-3.026-10.661-5.315-16.299-6.883l28.269-43.701c2.523-3.846 2.733-8.748.548-12.795-2.185-4.048-6.399-6.562-10.999-6.562h-119.74v-10.26c50.968-3.185 95.18-38.551 109.028-88.229l4.551-16.328c7.407-26.573 2.091-54.417-14.586-76.392s-42.063-34.587-69.649-34.604l-29.344-.016v-6.67c0-6.893-5.607-12.5-12.5-12.5h-20c-6.893 0-12.5 5.607-12.5 12.5v232.5h-29.5v-32.5c0-6.893-5.607-12.5-12.5-12.5h-43c-26.191 0-47.5 21.309-47.5 47.5 0 0-.094 3.739.16 6.542l10.817 51.502c-11.582.234-23.117 3.36-33.448 9.396-16.826 9.832-37.729 9.832-54.558 0-21.492-12.559-48.198-12.559-69.692 0l-23.63 13.808c-6.877 4.018-11.149 11.462-11.149 19.427v53.241c0 9.649 7.851 17.5 17.5 17.5h477c9.649 0 17.5-7.851 17.5-17.5v-53.241c0-7.965-4.272-15.409-11.148-19.427zm-93.324-13.808c-16.826 9.832-37.729 9.832-54.558 0-21.492-12.559-48.198-12.559-69.692 0-16.826 9.832-37.729 9.832-54.558 0-6.49-3.792-13.456-6.431-20.609-7.933l-3.572-17.008h250.2l-10.065 15.56c-12.81-.424-25.715 2.703-37.146 9.381zm56.914-39.94h-263.053l-3.15-15h275.906zm-82.942-138.138c4.143 0 7.5-3.357 7.5-7.5v-39.494c0-20.571-7.048-40.052-20-55.692l19.335.012c22.857.014 43.892 10.464 57.71 28.672 13.817 18.208 18.223 41.278 12.085 63.296l-4.551 16.328c-10.996 39.448-43.849 68.613-83.153 75.802 12.044-15.332 18.574-34.125 18.574-53.924 0-4.143-3.357-7.5-7.5-7.5s-7.5 3.357-7.5 7.5c0 16.18-5.281 31.539-15 44.145v-162.786c9.719 12.605 15 27.963 15 44.147v39.494c0 4.143 3.357 7.5 7.5 7.5zm-52.5-121.862h15v230h-15zm-100 200h40.5v30h-72.894c1.282-16.756 15.315-30 32.394-30zm268 186.416c0 1.379-1.121 2.5-2.5 2.5h-477c-1.379 0-2.5-1.121-2.5-2.5v-12.5h54c4.143 0 7.5-3.357 7.5-7.5s-3.357-7.5-7.5-7.5h-54v-25.741c0-2.655 1.424-5.137 3.717-6.476l23.629-13.808c16.828-9.831 37.731-9.831 54.558 0 21.495 12.559 48.199 12.56 69.692 0 16.828-9.831 37.731-9.831 54.558 0 21.494 12.559 48.198 12.56 69.692 0 16.828-9.831 37.731-9.831 54.558 0 21.495 12.559 48.199 12.56 69.692 0 16.828-9.831 37.731-9.831 54.558 0l23.631 13.808c2.292 1.339 3.716 3.82 3.716 6.476v25.741h-393.001c-4.143 0-7.5 3.357-7.5 7.5s3.357 7.5 7.5 7.5h393z"/>
            <path d="m445 410.458c5.514 0 10-4.486 10-10s-4.486-10-10-10-10 4.486-10 10 4.486 10 10 10z"/>
            <path d="m319 410.458c5.514 0 10-4.486 10-10s-4.486-10-10-10-10 4.486-10 10 4.486 10 10 10z"/>
            <path d="m193 410.458c5.514 0 10-4.486 10-10s-4.486-10-10-10-10 4.486-10 10 4.486 10 10 10z"/>
            <path d="m67 390.458c-5.514 0-10 4.486-10 10s4.486 10 10 10 10-4.486 10-10-4.486-10-10-10z"/>
            <path d="m138 116.542h86.5c20.678 0 37.5-16.822 37.5-37.5s-16.822-37.5-37.5-37.5h-17.5c-4.143 0-7.5 3.357-7.5 7.5s3.357 7.5 7.5 7.5h17.5c12.406 0 22.5 10.094 22.5 22.5s-10.094 22.5-22.5 22.5h-86.5c-4.143 0-7.5 3.357-7.5 7.5s3.357 7.5 7.5 7.5z"/>
            <path d="m207 206.542h17.5c20.678 0 37.5-16.822 37.5-37.5s-16.822-37.5-37.5-37.5h-146.5c-4.143 0-7.5 3.357-7.5 7.5s3.357 7.5 7.5 7.5h146.5c12.406 0 22.5 10.094 22.5 22.5s-10.094 22.5-22.5 22.5h-17.5c-4.143 0-7.5 3.357-7.5 7.5s3.357 7.5 7.5 7.5z"/>
            <path d="m8 146.542h40c4.143 0 7.5-3.357 7.5-7.5s-3.357-7.5-7.5-7.5h-40c-4.143 0-7.5 3.357-7.5 7.5s3.357 7.5 7.5 7.5z"/>
            <path d="m68 116.542h40c4.143 0 7.5-3.357 7.5-7.5s-3.357-7.5-7.5-7.5h-40c-4.143 0-7.5 3.357-7.5 7.5s3.357 7.5 7.5 7.5z"/>
            <path d="m158 86.542h52c4.143 0 7.5-3.357 7.5-7.5s-3.357-7.5-7.5-7.5h-52c-4.143 0-7.5 3.357-7.5 7.5s3.357 7.5 7.5 7.5z"/>
            <path d="m217.5 169.042c0-4.143-3.357-7.5-7.5-7.5h-87c-4.143 0-7.5 3.357-7.5 7.5s3.357 7.5 7.5 7.5h87c4.143 0 7.5-3.357 7.5-7.5z"/>
        </g>
    </g>
</svg>