<?xml version="1.0" encoding="iso-8859-1"?>
<svg version="1.1" fill="#e00d0d" id="Capa_1" xmlns="http://www.w3.org/2000/svg" x="0px" y="0px"
     viewBox="0 0 512 512" style="enable-background:new 0 0 512 512;" xml:space="preserve">
<g>
	<g>
		<path d="M472.436,144.291h-40.597v-16.549c0-8.556-6.96-15.516-15.516-15.516h-32.064c-8.556,0-15.517,6.96-15.517,15.516v16.549
			H107.234L469.119,36.903c4.252,6.134,11.337,10.161,19.349,10.161c12.976,0,23.532-10.557,23.532-23.532
			C512,10.557,501.443,0,488.468,0c-12.626,0-22.958,9.997-23.506,22.49L54.508,144.29H39.564C17.749,144.291,0,162.039,0,183.855
			v288.581C0,494.251,17.749,512,39.564,512h432.871C494.251,512,512,494.251,512,472.436V183.855
			C512,162.039,494.251,144.291,472.436,144.291z M488.468,15c4.705,0,8.532,3.828,8.532,8.532c0,4.704-3.828,8.532-8.532,8.532
			c-4.704,0-8.532-3.828-8.532-8.532C479.936,18.828,483.763,15,488.468,15z M383.742,127.742c0-0.285,0.232-0.516,0.517-0.516
			h32.064c0.285,0,0.516,0.231,0.516,0.516v16.549h-33.097V127.742z M472.436,497H39.564C26.02,497,15,485.98,15,472.436V183.855
			c0-13.545,11.02-24.564,24.564-24.564h432.871c13.545,0,24.564,11.02,24.564,24.564v288.581H497
			C497,485.98,485.98,497,472.436,497z"/>
	</g>
</g>
<g>
	<g>
		<path d="M255.469,232.351c-22.839-17.108-51.15-25.492-79.724-23.599c-28.875,1.911-56.061,14.246-76.549,34.733
			s-32.823,47.673-34.733,76.549c-1.89,28.572,6.491,56.885,23.6,79.724c1.473,1.967,3.727,3.004,6.008,3.004
			c1.564,0,3.142-0.488,4.491-1.498c3.315-2.483,3.989-7.184,1.506-10.499c-14.963-19.973-22.292-44.74-20.638-69.74
			c1.67-25.247,12.457-49.017,30.373-66.933c17.916-17.916,41.687-28.702,66.933-30.373c24.991-1.657,49.767,5.674,69.74,20.637
			c3.315,2.484,8.016,1.808,10.499-1.506C259.458,239.535,258.784,234.834,255.469,232.351z"/>
	</g>
</g>
<g>
	<g>
		<path d="M279.647,256.532c-2.482-3.316-7.183-3.99-10.498-1.507c-3.315,2.483-3.989,7.184-1.506,10.499
			c14.962,19.973,22.291,44.741,20.637,69.74c-1.67,25.247-12.457,49.017-30.373,66.933s-41.686,28.702-66.933,30.373
			c-25,1.658-49.767-5.675-69.741-20.637c-3.316-2.484-8.016-1.809-10.499,1.506c-2.483,3.315-1.809,8.016,1.506,10.499
			c20.723,15.524,45.952,23.862,71.792,23.862c2.639,0,5.285-0.087,7.932-0.262c28.876-1.911,56.062-14.246,76.549-34.733
			c20.488-20.488,32.823-47.673,34.733-76.549C305.137,307.684,296.756,279.371,279.647,256.532z"/>
	</g>
</g>
<g>
	<g>
		<path d="M183.855,256.516c-4.142,0-7.5,3.358-7.5,7.5v128.258c0,4.142,3.358,7.5,7.5,7.5c4.142,0,7.5-3.358,7.5-7.5V264.016
			C191.355,259.874,187.997,256.516,183.855,256.516z"/>
	</g>
</g>
<g>
	<g>
		<path d="M143.774,280.564c-4.142,0-7.5,3.358-7.5,7.5v80.161c0,4.142,3.358,7.5,7.5,7.5c4.142,0,7.5-3.358,7.5-7.5v-80.161
			C151.274,283.922,147.916,280.564,143.774,280.564z"/>
	</g>
</g>
<g>
	<g>
		<path d="M223.936,280.564c-4.142,0-7.5,3.358-7.5,7.5v80.161c0,4.142,3.358,7.5,7.5,7.5c4.142,0,7.5-3.358,7.5-7.5v-80.161
			C231.436,283.922,228.078,280.564,223.936,280.564z"/>
	</g>
</g>
<g>
	<g>
		<path d="M400.291,208.419c-26.236,0-47.581,21.345-47.581,47.581c0,26.236,21.344,47.581,47.581,47.581
			c26.236,0,47.581-21.345,47.581-47.581C447.872,229.764,426.527,208.419,400.291,208.419z M400.291,288.581
			c-17.965,0-32.581-14.616-32.581-32.581c0-17.965,14.615-32.581,32.581-32.581c17.965,0,32.581,14.616,32.581,32.581
			C432.872,273.965,418.256,288.581,400.291,288.581z"/>
	</g>
</g>
<g>
	<g>
		<path d="M440.372,328.661H360.21c-4.142,0-7.5,3.358-7.5,7.5c0,4.142,3.358,7.5,7.5,7.5h80.161c4.142,0,7.5-3.358,7.5-7.5
			C447.871,332.019,444.514,328.661,440.372,328.661z"/>
	</g>
</g>
<g>
	<g>
		<path d="M440.372,368.742H360.21c-4.142,0-7.5,3.358-7.5,7.5c0,4.142,3.358,7.5,7.5,7.5h80.161c4.142,0,7.5-3.358,7.5-7.5
			C447.871,372.1,444.514,368.742,440.372,368.742z"/>
	</g>
</g>
</svg>
