<?xml version="1.0" encoding="iso-8859-1"?>
<svg id="Capa_1" version="1.1" xmlns="http://www.w3.org/2000/svg" x="0px" y="0px"
     viewBox="0 0 512 512" style="enable-background:new 0 0 512 512;" xml:space="preserve">
<path style="fill:#B7B2B8;" d="M416.323,119.726h-32.065c-4.427,0-8.016,3.589-8.016,8.016v32.065h48.097v-32.065
	C424.339,123.315,420.75,119.726,416.323,119.726z"/>
    <path style="fill:#FFE1A0;" d="M472.435,504.5H39.565C21.856,504.5,7.5,490.144,7.5,472.435v-288.58
	c0-17.709,14.356-32.065,32.065-32.065h432.871c17.709,0,32.065,14.356,32.065,32.065v288.581
	C504.5,490.144,490.144,504.5,472.435,504.5z"/>
    <circle style="fill:#C9C6CA;" cx="183.85" cy="328.14" r="112.23"/>
    <circle style="fill:#9C969E;" cx="488.47" cy="23.532" r="16.03"/>
    <circle style="fill:#C9C6CA;" cx="400.29" cy="256" r="40.08"/>
    <path style="fill:#F7D291;" d="M39.565,328.145V151.79c-17.709,0-32.065,14.356-32.065,32.065v288.581
	c0,17.709,14.356,32.065,32.065,32.065h432.871c17.709,0,32.065-14.356,32.065-32.065H183.855
	C104.165,472.435,39.565,407.835,39.565,328.145z"/>
<g>
	<path style="fill:#B7B2B8;" d="M199.887,424.339c-61.981,0-112.226-50.245-112.226-112.226c0-26.906,9.489-51.584,25.276-70.917
		c-25.202,20.579-41.309,51.875-41.309,86.949c0,61.981,50.245,112.226,112.226,112.226c35.074,0,66.37-16.107,86.949-41.309
		C251.471,414.849,226.793,424.339,199.887,424.339z"/>
        <path style="fill:#B7B2B8;" d="M416.323,280.048c-22.136,0-40.081-17.945-40.081-40.081c0-6.929,1.918-13.349,5.013-19.035
		c-12.478,6.792-21.046,19.861-21.046,35.067c0,22.136,17.945,40.081,40.081,40.081c15.206,0,28.275-8.568,35.067-21.046
		C429.671,278.13,423.252,280.048,416.323,280.048z"/>
</g>
    <path d="M472.436,144.291h-40.597v-16.549c0-8.556-6.96-15.516-15.516-15.516h-32.064c-8.556,0-15.517,6.96-15.517,15.516v16.549
	H107.234L469.119,36.903c4.252,6.134,11.337,10.161,19.349,10.161c12.976,0,23.532-10.557,23.532-23.532S501.443,0,488.468,0
	c-12.626,0-22.958,9.997-23.506,22.49L54.508,144.29H39.564C17.749,144.291,0,162.039,0,183.855v288.581
	C0,494.251,17.749,512,39.564,512h432.871C494.251,512,512,494.251,512,472.436V183.855
	C512,162.039,494.251,144.291,472.436,144.291z M488.468,15c4.705,0,8.532,3.828,8.532,8.532s-3.828,8.532-8.532,8.532
	s-8.532-3.828-8.532-8.532S483.763,15,488.468,15z M383.742,127.742c0-0.285,0.232-0.516,0.517-0.516h32.064
	c0.285,0,0.516,0.231,0.516,0.516v16.549h-33.097V127.742z M497,472.436C497,485.98,485.98,497,472.436,497H39.564
	C26.02,497,15,485.98,15,472.436V183.855c0-13.545,11.02-24.564,24.564-24.564h432.871c13.545,0,24.564,11.02,24.564,24.564v288.581
	H497z"/>
    <path d="M79.43,321.025c1.67-25.247,12.457-49.017,30.373-66.933s41.687-28.702,66.933-30.373
	c24.991-1.657,49.767,5.674,69.74,20.637c3.315,2.484,8.016,1.808,10.499-1.506c2.483-3.315,1.809-8.016-1.506-10.499
	c-22.839-17.108-51.15-25.492-79.724-23.599c-28.875,1.911-56.061,14.246-76.549,34.733s-32.823,47.673-34.733,76.549
	c-1.89,28.572,6.491,56.885,23.6,79.724c1.473,1.967,3.727,3.004,6.008,3.004c1.564,0,3.142-0.488,4.491-1.498
	c3.315-2.483,3.989-7.184,1.506-10.499C85.105,370.792,77.776,346.025,79.43,321.025z"/>
    <path d="M269.149,255.025c-3.315,2.483-3.989,7.184-1.506,10.499c14.962,19.973,22.291,44.741,20.637,69.74
	c-1.67,25.247-12.457,49.017-30.373,66.933c-17.916,17.916-41.686,28.702-66.933,30.373c-25,1.658-49.767-5.675-69.741-20.637
	c-3.316-2.484-8.016-1.809-10.499,1.506s-1.809,8.016,1.506,10.499c20.723,15.524,45.952,23.862,71.792,23.862
	c2.639,0,5.285-0.087,7.932-0.262c28.876-1.911,56.062-14.246,76.549-34.733c20.488-20.488,32.823-47.673,34.733-76.549
	c1.891-28.572-6.49-56.885-23.599-79.724C277.165,253.216,272.464,252.542,269.149,255.025z"/>
    <path d="M176.355,264.016v128.258c0,4.142,3.358,7.5,7.5,7.5s7.5-3.358,7.5-7.5V264.016c0-4.142-3.358-7.5-7.5-7.5
	S176.355,259.874,176.355,264.016z"/>
    <path d="M136.274,288.064v80.161c0,4.142,3.358,7.5,7.5,7.5s7.5-3.358,7.5-7.5v-80.161c0-4.142-3.358-7.5-7.5-7.5
	S136.274,283.922,136.274,288.064z"/>
    <path d="M216.436,288.064v80.161c0,4.142,3.358,7.5,7.5,7.5s7.5-3.358,7.5-7.5v-80.161c0-4.142-3.358-7.5-7.5-7.5
	S216.436,283.922,216.436,288.064z"/>
    <path d="M400.291,303.581c26.236,0,47.581-21.345,47.581-47.581s-21.345-47.581-47.581-47.581S352.71,229.764,352.71,256
	S374.054,303.581,400.291,303.581z M400.291,223.419c17.965,0,32.581,14.616,32.581,32.581s-14.616,32.581-32.581,32.581
	S367.71,273.965,367.71,256S382.325,223.419,400.291,223.419z"/>
    <path d="M440.372,328.661H360.21c-4.142,0-7.5,3.358-7.5,7.5s3.358,7.5,7.5,7.5h80.161c4.142,0,7.5-3.358,7.5-7.5
	S444.514,328.661,440.372,328.661z"/>
    <path d="M440.372,368.742H360.21c-4.142,0-7.5,3.358-7.5,7.5s3.358,7.5,7.5,7.5h80.161c4.142,0,7.5-3.358,7.5-7.5
	S444.514,368.742,440.372,368.742z"/>
</svg>
