<svg id="Capa_1" enable-background="new 0 0 511.406 511.406" height="512" viewBox="0 0 511.406 511.406" width="512"
     xmlns="http://www.w3.org/2000/svg">
    <g>
        <path d="m511.203 411.406v-45h-48v-30h-16v-25h16v-45h-119.643v15h104.643v15h-310.358v15h294.357v25h-326.5c-6.893 0-12.5-5.607-12.5-12.5s5.607-12.5 12.5-12.5h17.143v-15h-17.143c-15.163 0-27.5 12.336-27.5 27.5s12.337 27.5 27.5 27.5h342.5v15h-258.5v15h306.5v15h-423.5c-23.435 0-42.5 19.065-42.5 42.5s19.065 42.5 42.5 42.5h353.285v-15h-353.284c-15.164 0-27.5-12.336-27.5-27.5s12.336-27.5 27.5-27.5h407.5v25h-332.5v15h332.5v15h-39.215v15h55.215v15h-423.5c-31.706 0-57.5-25.794-57.5-57.5s25.794-57.5 57.5-57.5h102v-15h-69c-23.435 0-42.5-19.065-42.5-42.5s19.065-42.5 42.5-42.5h222.857v-15h-222.857c-31.706 0-57.5 25.794-57.5 57.5 0 16.942 7.369 32.192 19.066 42.725-37.446 2.791-67.066 34.128-67.066 72.275 0 39.977 32.523 72.5 72.5 72.5h438.5v-45h-16v-55z"/>
        <path d="m117.703 436.406h15v15h-15z"/>
        <path d="m138.203 222.919 3.34 2.227c1.302.868 32.824 21.26 114.16 21.26s112.858-20.392 114.16-21.26l3.34-2.227v-126.274l45-15v70.809c-11.528 3.274-20 13.889-20 26.452v37.5h55v-37.5c0-12.563-8.472-23.178-20-26.452v-75.809l26.217-8.739-78.766-26.256-4.744 14.23 36.076 12.025-156.283 52.095-156.283-52.094 156.283-52.094 105.977 35.326 4.744-14.23-110.721-36.908-203.717 67.906 86.217 28.739zm300-44.013v22.5h-25v-22.5c0-6.893 5.607-12.5 12.5-12.5s12.5 5.607 12.5 12.5zm-285-77.261 102.5 34.167 102.5-34.167v58.761h-18.5v15h18.5v15h-32.5v15h32.5v9.042c-9.666 4.707-40.765 16.958-102.5 16.958-61.782 0-92.882-12.27-102.5-16.954z"/>
        <path d="m87.703 436.406h15v15h-15z"/>
        <path d="m295.703 190.406h15v15h-15z"/>
    </g>
</svg>