<?xml version="1.0" encoding="iso-8859-1"?>
<svg height="682pt" fill="#e00d0d" viewBox="-21 -23 682.66831 682" width="682pt" xmlns="http://www.w3.org/2000/svg">
    <path d="m77.164062 365.171875c-2.640624-4.453125-8.394531-5.917969-12.847656-3.269531-4.453125 2.640625-5.917968 8.390625-3.269531 12.84375l5.53125 9.316406c1.753906 2.949219 4.867187 4.589844 8.070313 4.589844 1.625 0 3.277343-.421875 4.777343-1.316406 4.453125-2.640626 5.917969-8.394532 3.273438-12.847657zm0 0"/>
    <path d="m621.53125 396.386719s-9.855469-5.691407-9.855469-5.695313c-15.945312-9.210937-36.5-7.371094-50.539062 4.53125l-26.707031 22.644532c-16.109376-38.777344-24.292969-84.605469-24.292969-136.25 0-28.011719 2.621093-55.121094 7.777343-80.707032 16.976563-1.429687 30.355469-15.699218 30.355469-33.039062 0-18.289063-14.875-33.167969-33.164062-33.167969h-147.480469v-33.972656l109.371094-26.851563c6.050781-1.488281 10.273437-6.875 10.273437-13.101562 0-6.226563-4.222656-11.609375-10.273437-13.09375l-109.46875-26.875c-.996094-11.5-10.65625-20.558594-22.410156-20.558594h-17.886719c-12.410157 0-22.507813 10.097656-22.507813 22.511719v111.945312h-147.480468c-18.292969 0-33.167969 14.878907-33.167969 33.164063 0 16.042968 11.449219 29.460937 26.605469 32.511718-4.984376 25.820313-7.511719 53.089844-7.511719 81.234376 0 29.523437 2.851562 58.363281 8.320312 85.199218-1.585937-2.003906-3.15625-4.011718-4.730469-6.015625-22.28125-28.417969-43.324218-55.257812-83.734374-64.621093-7.300782-1.6875-15.039063 1.28125-19.359376 7.402343-3.488281 4.921875-4.367187 11.261719-2.351562 16.972657l5.992188 16.921874c-16.902344 6.222657-49.363282 22.339844-47.203126 53.8125.664063 9.929688 9.414063 17.574219 19.566407 16.511719l10.355469-1.105469-.214844.273438c-3.523438 4.554688-4.617188 10.566406-2.929688 16.070312 1.6875 5.480469 5.945313 9.824219 11.363282 11.59375 16.835937 5.5625 34.332031 5.8125 49.9375.578126 3.8125 6.773437 9.585937 18.21875 10.976562 21.238281 10.179688 22.058593 10.4375 47.066406 15.351562 70.503906 3.070313 14.644531 8.511719 28.546875 16.167969 41.339844 25.410157 42.488281 72.976563 68.886719 124.148438 68.886719h180.347656c38.441406 0 73.675781-23.019532 104.71875-68.414063 11.84375-17.300781 22.941406-37.753906 32.996094-60.785156 8.175781-18.761719 13.847656-35.089844 17.109375-45.292969 4.171875 1.589844 8.613281 2.414062 13.089844 2.414062 13.519531 0 25.925781-7.371093 32.378906-19.238281 9.609375-17.667969 3.488281-39.402343-13.933594-49.476562zm-188.117188-14.640625c-17.476562-4.53125-35.117187-7.785156-52.6875-9.707032-.269531-1.160156-.527343-2.324218-.785156-3.492187-6.269531-28.511719-9.09375-57.753906-9.09375-86.929687 0-26.757813 2.363282-53.539063 7.59375-79.800782.054688-.257812.109375-.519531.15625-.78125h50.53125c-.023437.148438-.046875.292969-.070312.4375-5.035156 26.386719-7.304688 53.292969-7.304688 80.144532-.007812 33.65625 3.566406 67.421874 11.660156 100.128906zm-85.65625-11.792969c-3.367187-.054687-36.839843 1.3125-36.816406 1.425781-.140625-.628906-.289062-1.265625-.429687-1.898437-6.40625-28.808594-9.300781-58.359375-9.300781-87.863281 0-26.742188 2.359374-53.53125 7.585937-79.769532.054687-.269531.109375-.542968.164063-.8125h50.527343c-.03125.144532-.050781.285156-.078125.425782-4.992187 26.402343-7.3125 53.296874-7.3125 80.15625 0 29.746093 2.800782 59.707031 9.050782 88.808593-4.460938-.242187-8.925782-.398437-13.390626-.472656zm-178.097656-168.917969h50.539063c-.03125.1875-.066407.371094-.097657.554688-2.097656 11.097656-3.71875 22.296875-4.890624 33.527344-.539063 5.152343 3.199218 9.761718 8.347656 10.300781 5.074218.519531 9.765625-3.269531 10.296875-8.351563 1.207031-11.566406 2.984375-23.558594 5.28125-35.152344.058593-.292968.117187-.585937.175781-.878906h50.527344c-.027344.152344-.050782.308594-.078125.460938-5 26.386718-7.300781 53.277344-7.300781 80.121094 0 30.933593 3.054687 61.945312 9.789062 92.152343-16.558594 2.65625-32.40625 6.679688-47.328125 12.019531-.171875-.625-.347656-1.246093-.511719-1.871093-4.988281-18.433594-8.347656-37.277344-10.390625-56.261719-1.929687-17.898438-2.683593-35.898438-2.382812-53.898438.089843-5.175781-4.03125-9.449218-9.203125-9.539062-5.15625-.128906-9.449219 4.03125-9.542969 9.207031-.335937 18.972657.488281 37.960938 2.558594 56.828125 2.316406 21.128906 6.167969 42.128906 11.960937 62.589844-13.957031 6.289062-24.910156 12.929688-32.835937 18.425781-5.332031-3.957031-10.507813-8.359375-15.667969-13.304687-11.117188-34.5-16.992188-74.671875-16.992188-116.34375.003907-28.015625 2.609376-55.085938 7.746094-80.585938zm72.648438 205.816406h.003906c19.101562-7.789062 40.097656-13.140624 62.410156-15.921874v52.269531c-40.996094-.484375-70.289062-8.578125-92.882812-20.859375 7.867187-4.933594 18.011718-10.425782 30.46875-15.488282zm81.15625-17.621093c4.664062-.273438 9.375-.464844 14.132812-.53125 3.757813-.054688 7.523438-.027344 11.277344.050781v54.472656h-25.410156zm44.160156.4375c1.5625.117187 3.125.222656 4.6875.367187h.007812c23.929688 2.164063 48.070313 6.945313 71.761719 14.199219h.007813c32.742187 10.003906 57.496094 22.5625 70.753906 30.082031-7.8125 5.757813-17.308594 8.902344-27.070312 8.902344h-120.148438zm144.191406 21.707031c-13.980468-7.148438-33.480468-15.90625-57.382812-23.546875-.078125-.269531-.160156-.535156-.238282-.816406-9.609374-34.21875-13.699218-69.894531-13.699218-105.394531 0-27.015626 2.402344-54.082032 7.75-80.582032h50.527344c-4.902344 25.671875-7.386719 52.722656-7.386719 80.582032.003906 48.222656 6.871093 91.78125 20.429687 129.757812zm-144.191406-329.953125v-41.289063l84.089844 20.644532zm-44.160156-58.660156c0-2.078125 1.691406-3.761719 3.765625-3.761719h17.886719c2.074218 0 3.765624 1.683594 3.765624 3.761719v111.945312h-25.417968zm-180.640625 145.109375c0-7.949219 6.464843-14.417969 14.414062-14.417969h357.867188c7.949219 0 14.421875 6.46875 14.421875 14.417969 0 7.949218-6.472656 14.414062-14.421875 14.414062h-357.863281c-7.953126 0-14.417969-6.464844-14.417969-14.414062zm384.332031 386.226562h-64.617188c-5.175781 0-9.371093 4.199219-9.371093 9.375 0 5.175782 4.195312 9.375 9.371093 9.375h51.023438c-24.359375 30.261719-50.675781 45.582032-78.386719 45.582032h-180.351562c-38.574219 0-74.746094-17.117188-98.085938-45.582032h268.304688c5.175781 0 9.375-4.199218 9.375-9.375 0-5.175781-4.199219-9.375-9.375-9.375h-280.871094c-5.230469-9.710937-9.03125-20.113281-11.308594-30.988281-.65625-3.113281-1.230469-6.289063-1.769531-9.5h418.628906c-7.105468 14.910156-14.664062 28.476563-22.566406 40.488281zm91.835938-117.1875c-6.796876 12.496094-19.777344 9.996094-29.992188 4.082032-5.265625-3.046876-12.160156-.1875-13.746094 5.660156-.058594.222656-5.796875 21.183594-17.144531 48.207031h-429.871094c-2.316406-15.449219-5.148437-31.230469-12.035156-46.226563-.5625-1.226562-4.234375-8.679687-7.828125-15.503906-7.324219-13.894531-10.195312-18.703125-16.773438-18.703125-1.351562 0-2.761718.308594-3.992187.875-7.136719 3.277344-14.839844 4.945313-22.90625 4.945313-7.65625 0-14.433594-1.519532-19.164063-2.964844l9.222657-11.921875c2.78125-3.605469 3.265625-8.378906 1.257812-12.46875-2.15625-4.394531-7.003906-7.078125-11.878906-6.554687l-25.375 2.707031c-.578125-24.808594 42.425781-36.371094 42.871094-36.484375 5.28125-1.335938 8.394531-7.070313 6.566406-12.226563l-9.140625-25.828125c33.792969 7.929688 51.9375 31.074219 72.941406 57.867188 32.929688 42 70.246094 89.601562 176.625 89.601562h179.089844c34.410156 0 61.078125-31.707031 85.542969-52.449218 8.066406-6.835938 19.878906-7.890626 29.027343-2.601563l9.859376 5.703125c8.554687 4.9375 11.5625 15.609375 6.84375 24.285156zm0 0"/>
</svg>