<?xml version="1.0" encoding="iso-8859-1"?>
<svg height="512pt" viewBox="0 -1 512.00096 512" width="512pt" xmlns="http://www.w3.org/2000/svg">
    <path d="m379.832031 45.226562-110.871093-27.21875v60.832032l110.871093-27.222656c3.34375-.820313 3.34375-5.570313 0-6.390626zm0 0"
          fill="#a5d0d8"/>
    <path d="m276.117188 7.5h-14.308594c-5.804688 0-10.511719 4.703125-10.511719 10.507812v360.121094h35.328125v-360.121094c0-5.804687-4.707031-10.507812-10.507812-10.507812zm0 0"
          fill="#b27858"/>
    <path d="m273.796875 426.882812-162.800781 23.695313c18.953125 31.703125 54.59375 51.46875 92.886718 51.46875h144.277344c32.675782 0 58.476563-23.515625 77.589844-51.46875zm0 0"
          fill="#c68c6a"/>
    <path d="m185.386719 153.132812-28.835938-17.417968-26.875 17.417968c-4.894531 21.917969-7.617187 46.285157-7.617187 71.960938 0 47.179688 9.203125 89.949219 24.121094 121.203125 0 0 14.34375-15.550781 44.863281-27.960937zm0 0"
          fill="#bce7ea"/>
    <path d="m241.105469 153.132812-28.035157-19.035156-27.683593 19.035156c-4.886719 21.917969-7.617188 46.285157-7.617188 71.960938 0 34.332031 4.875 66.316406 13.273438 93.242188 13.90625-5.667969 31.171875-10.675782 51.984375-13.257813zm0 0"
          fill="#edebec"/>
    <path d="m251.296875 282.207031v52.148438c7.273437-.742188 14.8125-1.136719 22.503906-1.136719 4.242188 0 8.527344.128906 12.824219.359375v-51.371094zm0 0"
          fill="#935b43"/>
    <path d="m296.816406 153.132812-27.855468-17.417968-27.855469 17.417968c-4.894531 21.917969-7.617188 46.285157-7.617188 71.960938 0 28.847656 3.445313 56.054688 9.539063 79.984375 9.515625-1.1875 19.765625-1.859375 30.773437-1.859375 8.492188 0 16.761719.40625 24.753907 1.140625zm0 0"
          fill="#bce7ea"/>
    <path d="m352.539062 153.132812-29.195312-17.417968-26.527344 17.417968c-4.882812 21.917969-7.617187 46.285157-7.617187 71.960938 0 28.5625 3.371093 55.507812 9.355469 79.265625 21.867187 1.980469 41.753906 6.398437 58.929687 11.660156zm0 0"
          fill="#edebec"/>
    <path d="m421.078125 338.050781c-15.015625-35.605469-20.445313-74.515625-20.445313-112.957031 0-25.675781 2.730469-50.042969 7.617188-71.960938l-26.746094-19.035156-28.964844 19.035156c-4.898437 21.917969-7.617187 46.285157-7.617187 71.960938 0 33.347656 4.601563 64.496094 12.5625 90.925781 41.023437 12.535157 66.648437 29.851563 67.269531 30.269531-1.296875-2.714843-2.507812-5.46875-3.675781-8.238281zm0 0"
          fill="#bce7ea"/>
    <path d="m124.558594 183.097656c.417968.007813.832031.03125 1.253906.03125h60.601562l-1.027343-29.996094-28.835938-17.417968-26.875 17.417968c-2.136719 9.554688-3.855469 19.574219-5.117187 29.964844zm0 0"
          fill="#a5d0d8"/>
    <path d="m180.269531 183.128906h61.214844l-.378906-29.996094-28.035157-19.035156-27.683593 19.035156c-2.132813 9.5625-3.855469 19.59375-5.117188 29.996094zm0 0"
          fill="#d2d2d2"/>
    <path d="m235.984375 183.128906h61.175781l-.34375-29.996094-27.855468-17.417968-27.855469 17.417968c-2.136719 9.5625-3.855469 19.59375-5.121094 29.996094zm0 0"
          fill="#a5d0d8"/>
    <path d="m291.699219 183.128906h61.75l-.910157-29.996094-29.195312-17.417968-26.527344 17.417968c-2.132812 9.5625-3.851562 19.59375-5.117187 29.996094zm0 0"
          fill="#d2d2d2"/>
    <path d="m403.132812 183.128906c1.265626-10.402344 2.984376-20.433594 5.117188-29.996094l-26.742188-19.035156-28.96875 19.035156c-2.136718 9.5625-3.859374 19.59375-5.121093 29.996094zm0 0"
          fill="#a5d0d8"/>
    <path d="m412.109375 115.0625h-286.296875c-10.511719 0-19.03125 8.523438-19.03125 19.035156 0 10.511719 8.519531 19.03125 19.03125 19.03125h286.296875c10.511719 0 19.03125-8.519531 19.03125-19.03125 0-10.511718-8.519531-19.035156-19.03125-19.035156zm0 0"
          fill="#c68c6a"/>
    <path d="m493.496094 323.402344-7.890625-4.558594c-10.148438-5.871094-22.882813-4.722656-31.820313 2.851562l-35.074218 29.742188c-7.953126 6.742188-18.039063 10.441406-28.46875 10.441406h-143.316407c-135.910156 0-123.933593-100.625-198.171875-117.832031-5.679687-1.308594-10.554687 4.195313-8.613281 9.691406l7.375 20.832031s-41.808594 10.417969-39.929687 37.761719c.253906 3.796875 3.597656 6.640625 7.375 6.246094l21.167968-2.253906c1.726563-.183594 2.832032 1.796875 1.765625 3.179687l-8.09375 10.460938c-2.8125 3.636718-1.210937 8.988281 3.167969 10.421875 9.101562 3.003906 24.417969 5.757812 40.273438-1.535157 1.347656-.621093 12.257812 21.53125 12.917968 22.972657 6.015625 13.082031 7.902344 27.253906 9.972656 41.359375l177.664063 23.699218 177.660156-23.699218c10.722657-24.597656 16.003907-44.101563 16.003907-44.101563l4.054687 2.347657c10.695313 6.183593 24.386719 2.335937 30.289063-8.523438 5.6875-10.457031 2-23.539062-8.308594-29.503906zm0 0"
          fill="#c68c6a"/>
    <path d="m451.457031 403.1875c-6.539062 14.992188-15.09375 31.882812-25.707031 47.390625h-314.753906c-5.566406-9.292969-9.691406-19.613281-12.027344-30.753906-1.144531-5.484375-2-11.050781-2.832031-16.636719zm0 0"
          fill="#b27858"/>
    <path d="m61.730469 291.9375c-2.113281-3.5625-6.714844-4.734375-10.277344-2.617188-3.5625 2.113282-4.734375 6.714844-2.617187 10.277344l4.425781 7.453125c1.402343 2.359375 3.894531 3.671875 6.457031 3.671875 1.300781 0 2.621094-.339844 3.820312-1.054687 3.5625-2.113281 4.734376-6.714844 2.621094-10.277344zm0 0"/>
    <path d="m497.226562 316.910156s-7.886718-4.554687-7.886718-4.558594c-12.753906-7.367187-29.199219-5.894531-40.429688 3.625l-21.367187 18.117188c-12.886719-31.023438-19.433594-67.683594-19.433594-109 0-22.410156 2.097656-44.097656 6.222656-64.566406 13.582031-1.144532 24.285157-12.558594 24.285157-26.429688 0-14.632812-11.902344-26.535156-26.53125-26.535156h-117.984376v-27.179688l87.496094-21.480468c4.839844-1.191406 8.21875-5.5 8.21875-10.480469s-3.378906-9.289063-8.21875-10.476563l-87.574218-21.5c-.796876-9.199218-8.527344-16.445312-17.929688-16.445312h-14.308594c-9.929687 0-18.007812 8.078125-18.007812 18.007812v89.558594h-117.984375c-14.632813 0-26.535157 11.902344-26.535157 26.53125 0 12.832032 9.160157 23.566406 21.285157 26.007813-3.988281 20.65625-6.007813 42.472656-6.007813 64.988281 0 23.617188 2.28125 46.691406 6.65625 68.160156-1.269531-1.605468-2.527344-3.210937-3.785156-4.8125-17.824219-22.734375-34.660156-44.207031-66.988281-51.699218-5.839844-1.347657-12.03125 1.027343-15.488281 5.921874-2.789063 3.9375-3.492188 9.011719-1.878907 13.578126l4.792969 13.539062c-13.523438 4.976562-39.492188 17.871094-37.7617188 43.050781.5312498 7.941407 7.5312498 14.058594 15.6523438 13.207031l8.285156-.882812-.171875.21875c-2.820312 3.644531-3.695312 8.453125-2.34375 12.855469 1.347656 4.386719 4.753906 7.859375 9.089844 9.277343 13.46875 4.449219 27.464844 4.648438 39.949219.460938 3.050781 5.417969 7.667969 14.574219 8.78125 16.992188 8.144531 17.644531 8.351562 37.652343 12.28125 56.402343 2.457031 11.714844 6.808593 22.835938 12.933593 33.070313 20.328126 33.992187 58.382813 55.109375 99.320313 55.109375h144.277344c30.753906 0 58.941406-18.414063 83.777343-54.730469 9.472657-13.839844 18.351563-30.203125 26.394532-48.628906 6.542968-15.007813 11.078125-28.070313 13.6875-36.234375 3.339844 1.273437 6.890625 1.933593 10.472656 1.933593 10.816406 0 20.742188-5.898437 25.902344-15.390624 7.6875-14.136719 2.792968-31.523438-11.144532-39.582032zm-150.496093-11.714844c-13.980469-3.625-28.09375-6.226562-42.148438-7.765624-.214843-.925782-.421875-1.859376-.628906-2.792969-5.015625-22.808594-7.273437-46.203125-7.273437-69.542969 0-21.40625 1.890624-42.832031 6.074218-63.839844.042969-.207031.085938-.417968.125-.625h40.425782c-.019532.117188-.039063.234375-.058594.347656-4.027344 21.109376-5.84375 42.636719-5.84375 64.117188-.003906 26.925781 2.855468 53.9375 9.328125 80.101562zm-68.523438-9.433593c-2.695312-.042969-29.472656 1.050781-29.453125 1.140625-.113281-.503906-.230468-1.011719-.34375-1.519532-5.125-23.046874-7.441406-46.6875-7.441406-70.289062 0-21.394531 1.886719-42.824219 6.070312-63.816406.042969-.214844.085938-.433594.128907-.648438h40.421875c-.023438.113282-.039063.226563-.0625.339844-3.992188 21.121094-5.847656 42.636719-5.847656 64.125 0 23.796875 2.238281 47.765625 7.238281 71.046875-3.566407-.195313-7.140625-.320313-10.710938-.378906zm-142.480469-135.132813h40.433594c-.027344.148438-.054687.296875-.078125.441406-1.679687 8.878907-2.976562 17.839844-3.914062 26.824219-.429688 4.121094 2.558593 7.808594 6.679687 8.238281 4.058594.417969 7.8125-2.613281 8.238282-6.679687.964843-9.253906 2.386718-18.847656 4.222656-28.121094.046875-.234375.09375-.46875.140625-.703125h40.421875c-.019532.121094-.039063.246094-.0625.367188-4 21.109375-5.839844 42.621094-5.839844 64.097656 0 24.746094 2.445312 49.554688 7.832031 73.722656-13.246093 2.125-25.925781 5.34375-37.863281 9.613282-.136719-.5-.277344-.996094-.410156-1.496094-3.988282-14.746094-6.675782-29.820313-8.3125-45.007813-1.542969-14.320312-2.144532-28.71875-1.90625-43.121093.074218-4.140626-3.222656-7.558594-7.363282-7.628907-4.125-.105469-7.558593 3.222657-7.632812 7.363281-.269531 15.179688.390625 30.371094 2.046875 45.464844 1.851563 16.902344 4.933594 33.703125 9.570313 50.070313-11.167969 5.03125-19.929688 10.34375-26.269532 14.742187-4.265625-3.167968-8.40625-6.6875-12.535156-10.644531-8.894531-27.601563-13.59375-59.738281-13.59375-93.074219.003906-22.414062 2.085938-44.070312 6.195312-64.46875zm58.121094 164.652344h.003906c15.28125-6.230469 32.078126-10.511719 49.925782-12.738281v41.816406c-32.796875-.386719-56.230469-6.863281-74.304688-16.6875 6.292969-3.945313 14.410156-8.339844 24.375-12.390625zm64.925782-14.097656c3.730468-.21875 7.5-.371094 11.304687-.425782 3.007813-.042968 6.019531-.019531 9.023437.042969v43.578125h-20.328124zm35.328124.351562c1.25.09375 2.5.175782 3.75.292969h.003907c19.144531 1.730469 38.457031 5.554687 57.410156 11.359375h.003906.003907c26.191406 8.003906 45.996093 18.050781 56.605468 24.066406-6.253906 4.605469-13.847656 7.121094-21.660156 7.121094h-96.117188zm115.351563 17.363282c-11.183594-5.71875-26.785156-12.722657-45.90625-18.835938-.0625-.214844-.128906-.429688-.191406-.652344-7.6875-27.375-10.957031-55.917968-10.957031-84.316406 0-21.613281 1.921874-43.265625 6.199218-64.464844h40.421875c-3.921875 20.535156-5.910156 42.175782-5.910156 64.464844.003906 38.578125 5.496094 73.425781 16.34375 103.804688zm-115.351563-263.960938v-33.03125l67.269532 16.515625zm-35.328124-46.929688c0-1.660156 1.351562-3.007812 3.011718-3.007812h14.308594c1.660156 0 3.011719 1.347656 3.011719 3.007812v89.558594h-20.332031zm-144.515626 116.089844c0-6.359375 5.171876-11.535156 11.53125-11.535156h286.296876c6.359374 0 11.535156 5.175781 11.535156 11.535156s-5.175782 11.53125-11.535156 11.53125h-286.292969c-6.363281 0-11.535157-5.171875-11.535157-11.53125zm307.46875 308.980469h-51.695312c-4.140625 0-7.496094 3.359375-7.496094 7.5s3.355469 7.5 7.496094 7.5h40.820312c-19.488281 24.210937-40.542968 36.464844-62.710937 36.464844h-144.28125c-30.859375 0-59.796875-13.691407-78.46875-36.464844h214.644531c4.140625 0 7.5-3.359375 7.5-7.5s-3.359375-7.5-7.5-7.5h-224.699218c-4.183594-7.769531-7.222657-16.089844-9.046876-24.789063-.523437-2.492187-.984374-5.03125-1.414062-7.601562h334.902344c-5.683594 11.929688-11.730469 22.78125-18.050782 32.390625zm73.46875-93.75c-5.4375 9.996094-15.824218 7.996094-23.996093 3.265625-4.210938-2.4375-9.726563-.148438-10.996094 4.527344-.046875.179687-4.636719 16.949218-13.714844 38.566406h-343.898437c-1.851563-12.359375-4.117188-24.984375-9.628906-36.980469-.449219-.980469-3.386719-6.945312-6.261719-12.402343-5.859375-11.117188-8.15625-14.964844-13.417969-14.964844-1.082031 0-2.210938.246094-3.195312.699218-5.707032 2.625-11.871094 3.957032-18.324219 3.957032-6.125 0-11.546875-1.214844-15.332031-2.371094l7.378906-9.539062c2.226562-2.882813 2.613281-6.703126 1.007812-9.972657-1.726562-3.515625-5.605468-5.664062-9.503906-5.246093l-20.300781 2.167968c-.460938-19.847656 33.941406-29.097656 34.296875-29.1875 4.226562-1.070312 6.714844-5.65625 5.253906-9.78125l-7.3125-20.664062c27.035156 6.34375 41.550781 24.859375 58.351562 46.292968 26.34375 33.601563 56.199219 71.683594 141.300782 71.683594h39.699218 103.574219c27.527344 0 48.863281-25.367187 68.433594-41.960937 6.453125-5.46875 15.902344-6.3125 23.222656-2.082031l7.886719 4.5625c6.84375 3.953124 9.25 12.488281 5.476562 19.429687zm0 0"/>
</svg>