<svg id="Layer_1" enable-background="new 0 0 512 512" height="512" viewBox="0 0 512 512" width="512"
     xmlns="http://www.w3.org/2000/svg">
    <g>
        <g>
            <path d="m256 346.124c10.438 0 20.669-1.77 30.41-5.262 3.899-1.397 5.928-5.691 4.53-9.59s-5.692-5.929-9.591-4.53c-8.113 2.908-16.643 4.382-25.35 4.382-41.423 0-75.124-33.7-75.124-75.124s33.7-75.124 75.124-75.124 75.124 33.7 75.124 75.124c0 20.804-8.744 40.863-23.99 55.036-3.034 2.82-3.207 7.566-.387 10.6 2.819 3.033 7.565 3.208 10.6.387 18.288-17.001 28.777-41.065 28.777-66.022 0-49.694-40.43-90.124-90.124-90.124s-90.123 40.429-90.123 90.123 40.43 90.124 90.124 90.124z"/>
            <path d="m133.688 234.524c-7.119 5.653-15.188 12.06-15.188 21.476s8.069 15.823 15.188 21.476c3.369 2.676 8.461 6.719 9.039 8.878.646 2.415-1.714 8.427-3.437 12.817-3.256 8.298-6.948 17.703-2.378 25.6 4.625 7.996 14.705 9.497 23.597 10.822 4.603.686 10.907 1.625 12.59 3.308s2.622 7.987 3.308 12.591c1.325 8.892 2.826 18.971 10.821 23.597 7.897 4.568 17.303.879 25.6-2.378 4.391-1.723 10.403-4.08 12.818-3.437 2.159.577 6.203 5.669 8.878 9.039 5.653 7.119 12.06 15.188 21.476 15.188 9.415 0 15.822-8.069 21.476-15.188 2.676-3.37 6.72-8.462 8.879-9.039 2.416-.647 8.426 1.714 12.816 3.437 8.297 3.257 17.704 6.95 25.601 2.378 7.995-4.626 9.497-14.705 10.821-23.597.686-4.604 1.625-10.908 3.309-12.591 1.683-1.683 7.987-2.622 12.59-3.308 8.893-1.325 18.972-2.826 23.597-10.821 4.57-7.897.879-17.303-2.378-25.601-1.723-4.39-4.082-10.402-3.438-12.816.578-2.16 5.67-6.204 9.039-8.879 7.119-5.653 15.188-12.061 15.188-21.476s-8.069-15.823-15.188-21.476c-3.369-2.675-8.461-6.719-9.038-8.878-.646-2.415 1.714-8.428 3.437-12.818 3.257-8.297 6.948-17.703 2.38-25.6-4.626-7.996-14.705-9.497-23.598-10.822-4.604-.686-10.907-1.625-12.59-3.308-1.684-1.683-2.622-7.987-3.309-12.59-1.325-8.893-2.826-18.972-10.822-23.597-7.898-4.57-17.302-.878-25.601 2.378-4.391 1.723-10.409 4.08-12.816 3.437-2.159-.577-6.203-5.669-8.879-9.039-5.654-7.118-12.061-15.187-21.476-15.187-9.416 0-15.823 8.069-21.476 15.188-2.676 3.369-6.719 8.461-8.878 9.039-2.417.646-8.428-1.714-12.817-3.437-8.298-3.257-17.703-6.948-25.6-2.378-7.996 4.625-9.497 14.705-10.822 23.597-.686 4.603-1.625 10.907-3.308 12.59s-7.987 2.622-12.591 3.308c-8.892 1.325-18.971 2.826-23.597 10.821-4.569 7.897-.878 17.302 2.378 25.6 1.723 4.39 4.083 10.403 3.437 12.818-.577 2.159-5.669 6.203-9.038 8.878zm9.328 11.747c6.069-4.819 12.345-9.803 14.202-16.752 1.918-7.178-1.072-14.8-3.965-22.17-1.289-3.283-4.306-10.971-3.358-12.609 1.004-1.736 8.987-2.925 12.824-3.497 7.77-1.157 15.804-2.354 20.987-7.538s6.38-13.217 7.538-20.986c.572-3.836 1.761-11.819 3.498-12.824 1.638-.946 9.326 2.07 12.608 3.358 7.371 2.892 14.99 5.885 22.17 3.965 6.95-1.857 11.933-8.133 16.752-14.202 2.641-3.326 7.556-9.516 9.729-9.516s7.088 6.19 9.729 9.516c4.819 6.069 9.803 12.345 16.753 14.202 7.175 1.918 14.799-1.073 22.17-3.965 3.282-1.289 10.972-4.307 12.608-3.358 1.737 1.005 2.927 8.988 3.498 12.825 1.157 7.769 2.354 15.803 7.537 20.986 5.184 5.183 13.218 6.38 20.987 7.538 3.836.572 11.819 1.761 12.823 3.498.947 1.637-2.069 9.325-3.358 12.608-2.893 7.371-5.884 14.993-3.965 22.172 1.857 6.949 8.133 11.932 14.202 16.751 3.325 2.641 9.516 7.557 9.516 9.729s-6.19 7.088-9.516 9.729c-6.069 4.819-12.345 9.802-14.203 16.752-1.918 7.178 1.073 14.8 3.966 22.17 1.288 3.283 4.306 10.971 3.358 12.609-1.005 1.736-8.988 2.925-12.824 3.497-7.77 1.157-15.804 2.354-20.987 7.538-5.183 5.183-6.38 13.217-7.537 20.987-.571 3.836-1.761 11.819-3.497 12.824-1.639.95-9.326-2.07-12.608-3.358-7.371-2.893-14.995-5.884-22.17-3.965-6.95 1.857-11.934 8.133-16.753 14.202-2.641 3.326-7.556 9.516-9.729 9.516-2.172 0-7.088-6.19-9.729-9.516-4.819-6.069-9.803-12.345-16.752-14.202-1.58-.422-3.181-.607-4.796-.607-5.725 0-11.625 2.316-17.374 4.572-3.284 1.289-10.969 4.305-12.609 3.358-1.736-1.004-2.925-8.987-3.497-12.824-1.157-7.77-2.354-15.804-7.538-20.987s-13.217-6.38-20.986-7.538c-3.836-.572-11.819-1.761-12.824-3.498-.947-1.638 2.07-9.326 3.358-12.608 2.893-7.371 5.883-14.992 3.965-22.17-1.857-6.95-8.133-11.933-14.202-16.752-3.326-2.641-9.516-7.556-9.516-9.729s6.189-7.09 9.515-9.731z"/>
            <path d="m512 256c0-58.759-20.263-115.761-57.176-161.248 3.89-5.584 6.18-12.362 6.18-19.669 0-19.023-15.477-34.5-34.5-34.5-8.034 0-15.428 2.768-21.298 7.389-6.07-4.359-12.347-8.477-18.74-12.271-3.561-2.113-8.163-.939-10.277 2.622-2.113 3.563-.939 8.164 2.623 10.277 5.748 3.411 11.402 7.097 16.877 10.997-2.351 4.66-3.685 9.918-3.685 15.485 0 19.023 15.477 34.5 34.5 34.5 6.285 0 12.178-1.698 17.259-4.646 34.373 42.698 53.237 96.061 53.237 151.064 0 69.212-29.493 134.561-81.156 180.366-4.58-3.409-10.251-5.43-16.386-5.43-15.163 0-27.5 12.336-27.5 27.5 0 2.848.435 5.596 1.243 8.181-35.685 19.893-76.055 30.383-117.201 30.383-64.372 0-124.892-25.069-170.412-70.588s-70.588-106.04-70.588-170.412c0-50.487 15.327-98.513 44.38-139.378 4.285 2.299 9.177 3.607 14.371 3.607 16.818 0 30.5-13.682 30.5-30.5 0-6.186-1.856-11.944-5.033-16.756 43.665-37.432 99.046-57.973 156.782-57.973 33.054 0 65.079 6.571 95.188 19.531 3.803 1.64 8.216-.119 9.854-3.923s-.119-8.216-3.924-9.854c-31.992-13.772-66.014-20.754-101.118-20.754-61.953 0-121.363 22.256-167.963 62.792-4.265-2.271-9.126-3.563-14.286-3.563-16.818 0-30.5 13.682-30.5 30.5 0 6.154 1.838 11.884 4.985 16.682-31.575 43.741-48.236 95.33-48.236 149.589 0 68.379 26.629 132.666 74.981 181.019 48.353 48.352 112.64 74.981 181.019 74.981 44.067 0 87.301-11.332 125.446-32.81 4.829 4.197 11.127 6.746 18.012 6.746 15.163 0 27.5-12.336 27.5-27.5 0-3.588-.698-7.015-1.954-10.16 55.361-48.685 86.996-118.405 86.996-192.276zm-104.996-180.917c0-10.752 8.748-19.5 19.5-19.5s19.5 8.748 19.5 19.5-8.748 19.5-19.5 19.5-19.5-8.747-19.5-19.5zm-333.253-.854c8.547 0 15.5 6.953 15.5 15.5s-6.953 15.5-15.5 15.5-15.5-6.953-15.5-15.5 6.953-15.5 15.5-15.5zm325.707 396.707c-6.893 0-12.5-5.607-12.5-12.5s5.607-12.5 12.5-12.5 12.5 5.607 12.5 12.5-5.607 12.5-12.5 12.5z"/>
            <path d="m109.511 416.128c6.993 0 13.542-1.929 19.151-5.276 35.807 29.474 80.787 45.648 127.338 45.648 110.556 0 200.5-89.944 200.5-200.5s-89.944-200.5-200.5-200.5c-72.675 0-139.825 39.473-175.246 103.016-2.017 3.618-.719 8.186 2.899 10.203s8.186.719 10.203-2.899c32.774-58.796 94.904-95.32 162.144-95.32 102.285 0 185.5 83.215 185.5 185.5s-83.215 185.5-185.5 185.5c-42.352 0-83.296-14.466-116.146-40.875 4.496-6.184 7.157-13.784 7.157-21.998 0-20.678-16.822-37.5-37.5-37.5-5.858 0-11.405 1.352-16.35 3.758-14.836-27.138-22.661-57.7-22.661-88.885 0-21.339 3.591-42.256 10.672-62.169 1.388-3.903-.651-8.192-4.553-9.58-3.902-1.387-8.191.65-9.58 4.553-7.657 21.532-11.539 44.14-11.539 67.196 0 34.497 8.849 68.301 25.634 98.154-5.678 6.574-9.123 15.126-9.123 24.474 0 20.678 16.822 37.5 37.5 37.5zm22.5-37.5c0 12.407-10.093 22.5-22.5 22.5s-22.5-10.093-22.5-22.5 10.093-22.5 22.5-22.5 22.5 10.093 22.5 22.5z"/>
        </g>
    </g>
</svg>