<?xml version="1.0" encoding="iso-8859-1"?>
<!-- Generator: Adobe Illustrator 19.0.0, SVG Export Plug-In . SVG Version: 6.00 Build 0)  -->
<svg version="1.1" id="Capa_1" xmlns="http://www.w3.org/2000/svg" xmlns:xlink="http://www.w3.org/1999/xlink" x="0px"
     y="0px"
     viewBox="0 0 511.999 511.999" style="enable-background:new 0 0 511.999 511.999;" xml:space="preserve">
<g>
	<polygon style="fill:#FFD974;" points="400.999,418.494 478.427,390.195 400.999,178.344 	"/>
    <polygon style="fill:#FFD974;" points="355.408,53.605 339.472,10.002 220.173,53.605 	"/>
    <polygon style="fill:#FFD974;" points="75.307,106.55 33.572,121.804 75.307,235.996 	"/>
    <polygon style="fill:#FFD974;" points="156.59,458.395 172.527,501.997 291.827,458.395 	"/>
</g>
    <path style="fill:#FF3C63;" d="M225.04,75.063l-20.707-16.608c-3.268-2.621-3.535-7.5-0.573-10.463l0.003-0.003
	c2.747-2.747,2.747-7.202,0-9.949l-21.976-21.975L128.7,69.151l21.978,21.978c2.748,2.748,7.202,2.747,9.95-0.001l0,0
	c2.962-2.963,7.842-2.696,10.463,0.572l16.607,20.706c2.621,3.268,7.5,3.535,10.463,0.573l27.453-27.454
	C228.576,82.562,228.308,77.684,225.04,75.063z"/>
    <path style="fill:#FFF6E1;" d="M201.729,53.595c0.166,1.829,1.043,3.607,2.605,4.86l20.707,16.608
	c3.268,2.621,3.535,7.5,0.573,10.463l-27.453,27.454c-2.962,2.962-7.841,2.695-10.463-0.573l-16.607-20.707
	c-2.621-3.268-7.501-3.535-10.463-0.572c-2.747,2.748-7.202,2.748-9.95,0.001L128.7,69.151l15.547-15.546h-68.94v404.79h325.692
	V53.605L201.729,53.595z"/>
    <path d="M487.82,386.762l-76.821-210.191V53.604c0-5.522-4.477-10-10-10l-38.598-0.002L348.865,6.569
	c-1.896-5.188-7.637-7.853-12.825-5.96L218.424,43.596h-2.633c0.154-4.554-1.488-9.158-4.956-12.627l-15.031-15.031
	c2.669-3.894,2.281-9.255-1.178-12.714c-3.905-3.906-10.236-3.905-14.143,0l-40.379,40.379H75.308c-5.523,0-10,4.477-10,10v45.954
	l-35.169,12.855c-2.491,0.911-4.519,2.773-5.636,5.179c-1.118,2.405-1.234,5.156-0.324,7.646l41.128,112.53v220.629
	c0,5.523,4.477,10,10,10h74.291l13.536,37.035c1.482,4.055,5.313,6.57,9.393,6.57c1.14,0,2.299-0.197,3.432-0.61l117.638-42.995
	h107.401c5.522,0,10-4.477,10-10v-32.909l70.861-25.899c2.491-0.911,4.519-2.773,5.636-5.178
	C488.614,392.004,488.73,389.253,487.82,386.762z M178.892,85.442c-1.058-1.319-2.306-2.448-3.677-3.385
	c-0.099-0.068-0.19-0.146-0.29-0.212c-0.08-0.052-0.166-0.093-0.247-0.143c-2.428-1.529-5.224-2.45-8.144-2.61
	c-0.31-0.017-0.619-0.025-0.928-0.025c-0.089,0-0.177,0.009-0.266,0.01c-0.203,0.003-0.405,0.013-0.607,0.023
	c-0.255,0.013-0.509,0.03-0.762,0.055c-0.202,0.02-0.403,0.043-0.604,0.07c-0.252,0.034-0.503,0.073-0.753,0.118
	c-0.197,0.035-0.394,0.072-0.589,0.115c-0.252,0.054-0.501,0.116-0.749,0.182c-0.189,0.05-0.378,0.099-0.566,0.155
	c-0.252,0.076-0.501,0.161-0.749,0.249c-0.179,0.063-0.358,0.123-0.534,0.191c-0.256,0.1-0.506,0.211-0.757,0.323
	c-0.163,0.073-0.327,0.14-0.487,0.218c-0.273,0.132-0.539,0.278-0.804,0.424c-0.131,0.072-0.265,0.137-0.394,0.213
	c-0.391,0.229-0.774,0.472-1.147,0.733l-12.994-12.994l0,0l38.946-38.944L194.78,43.2c-2.168,3.101-3.264,6.869-3.054,10.698
	c0.005,0.098,0.025,0.194,0.032,0.292c0.006,0.103,0.002,0.206,0.012,0.31c0.019,0.212,0.063,0.419,0.09,0.629
	c0.035,0.275,0.069,0.55,0.117,0.823c0.051,0.286,0.118,0.568,0.184,0.851c0.069,0.296,0.135,0.592,0.219,0.883
	c0.07,0.241,0.154,0.475,0.235,0.712c0.109,0.322,0.215,0.643,0.343,0.958c0.08,0.197,0.174,0.386,0.261,0.58
	c0.152,0.338,0.303,0.676,0.476,1.004c0.09,0.169,0.193,0.33,0.289,0.496c0.192,0.334,0.382,0.669,0.596,0.99
	c0.113,0.169,0.241,0.328,0.36,0.493c0.217,0.301,0.429,0.604,0.665,0.891c0.177,0.215,0.374,0.414,0.562,0.62
	c0.2,0.22,0.39,0.448,0.602,0.657c0.41,0.406,0.841,0.791,1.292,1.155c0.005,0.004,0.01,0.01,0.016,0.014l18.126,14.538
	l-22.774,22.775L178.892,85.442z M333.512,22.827l7.594,20.775l-64.426-0.003L333.512,22.827z M46.397,127.763l18.911-6.911v58.652
	L46.397,127.763z M178.486,489.172l-7.594-20.777h64.442L178.486,489.172z M390.998,448.395L390.998,448.395H85.308l0,0V63.604l0,0
	l0,0h34.798l-4.243,4.243c-3.905,3.905-3.905,10.237,0,14.142c1.953,1.953,4.512,2.929,7.071,2.929c1.975,0,3.947-0.588,5.643-1.751
	l15.031,15.033c2.816,2.816,6.443,4.524,10.355,4.907c0.559,0.055,1.123,0.082,1.692,0.082c0.43,0,0.857-0.016,1.281-0.047
	c2.241-0.166,4.391-0.773,6.361-1.765c0.641-0.323,1.268-0.679,1.867-1.084l14.734,18.37c1.891,2.357,4.359,4.145,7.123,5.22
	c1.658,0.645,3.423,1.032,5.234,1.131c0.311,0.017,0.62,0.025,0.929,0.025c0.153,0,0.304-0.018,0.457-0.023
	c0.271-0.007,0.541-0.02,0.81-0.04c0.307-0.023,0.612-0.056,0.917-0.096c0.27-0.035,0.538-0.072,0.805-0.12
	c0.302-0.054,0.601-0.121,0.899-0.191c0.261-0.061,0.522-0.122,0.779-0.196c0.3-0.086,0.595-0.186,0.89-0.288
	c0.247-0.085,0.495-0.167,0.737-0.264c0.3-0.119,0.592-0.256,0.885-0.392c0.227-0.106,0.457-0.205,0.679-0.32
	c0.303-0.157,0.594-0.335,0.888-0.51c0.201-0.12,0.406-0.231,0.602-0.36c0.32-0.21,0.625-0.442,0.931-0.674
	c0.155-0.118,0.318-0.224,0.47-0.347c0.451-0.366,0.886-0.754,1.3-1.169l6.656-6.656l13.255,13.255
	c1.953,1.953,4.512,2.929,7.071,2.929c2.559,0,5.119-0.977,7.071-2.929c3.905-3.905,3.905-10.237,0-14.142l-13.255-13.254
	l6.655-6.655c3.419-3.419,5.228-8.149,4.964-12.977c-0.265-4.828-2.58-9.333-6.352-12.358l-4.561-3.658h164.261c0.011,0-0.011,0,0,0
	l0,0l0,0v384.791H390.998z M410.998,404.192V234.834l54.603,149.402L410.998,404.192z"/>
    <path d="M360.588,192.94c-0.65,0-1.31-0.07-1.95-0.2c-0.64-0.13-1.27-0.32-1.87-0.57s-1.189-0.56-1.729-0.92
	c-0.55-0.36-1.061-0.78-1.521-1.24c-1.859-1.86-2.93-4.44-2.93-7.07c0-0.65,0.07-1.31,0.2-1.95c0.13-0.64,0.319-1.27,0.569-1.88
	c0.25-0.6,0.561-1.18,0.921-1.72c0.359-0.55,0.779-1.06,1.239-1.52c0.46-0.46,0.971-0.88,1.521-1.24c0.54-0.36,1.13-0.67,1.729-0.92
	c0.601-0.25,1.23-0.45,1.87-0.57c1.29-0.26,2.62-0.26,3.91,0c0.64,0.12,1.26,0.32,1.87,0.57c0.6,0.25,1.18,0.56,1.72,0.92
	c0.55,0.36,1.061,0.78,1.521,1.24c0.47,0.46,0.88,0.97,1.25,1.52c0.359,0.54,0.67,1.12,0.92,1.72c0.25,0.61,0.439,1.24,0.569,1.88
	c0.131,0.64,0.19,1.3,0.19,1.95c0,2.63-1.06,5.21-2.93,7.07c-0.46,0.46-0.971,0.88-1.521,1.24c-0.54,0.36-1.12,0.67-1.72,0.92
	c-0.61,0.25-1.23,0.44-1.87,0.57C361.898,192.869,361.248,192.94,360.588,192.94z"/>
    <path d="M324.303,192.939h-80.958c-5.523,0-10-4.477-10-10c0-5.523,4.477-10,10-10h80.958c5.522,0,10,4.477,10,10
	C334.303,188.462,329.826,192.939,324.303,192.939z"/>
    <path d="M360.592,234.032H243.345c-5.523,0-10-4.477-10-10c0-5.523,4.477-10,10-10h117.247c5.522,0,10,4.477,10,10
	C370.592,229.555,366.115,234.032,360.592,234.032z"/>
    <circle style="fill:#4B7C91;" cx="159.668" cy="203.488" r="43.957"/>
    <path d="M159.67,257.443c-29.752,0-53.957-24.205-53.957-53.957s24.205-53.957,53.957-53.957c29.752,0,53.956,24.205,53.956,53.957
	S189.422,257.443,159.67,257.443z M159.67,169.529c-18.724,0-33.958,15.233-33.958,33.958s15.233,33.958,33.958,33.958
	s33.957-15.233,33.957-33.958S178.394,169.529,159.67,169.529z"/>
    <path d="M157.377,222.15c-1.273,0-2.558-0.244-3.782-0.744l-12.745-5.21c-5.112-2.09-7.562-7.928-5.472-13.041
	c2.09-5.112,7.929-7.561,13.041-5.472l6.591,2.694l12.625-12.625c3.905-3.905,10.237-3.906,14.142,0
	c3.905,3.906,3.906,10.237,0,14.142l-17.327,17.327C162.538,221.133,159.98,222.15,157.377,222.15z"/>
    <path d="M360.588,326.219c-0.65,0-1.31-0.07-1.95-0.2s-1.27-0.32-1.87-0.57s-1.189-0.56-1.729-0.92
	c-0.55-0.36-1.061-0.78-1.521-1.24s-0.88-0.97-1.239-1.52c-0.36-0.54-0.671-1.12-0.921-1.73c-0.25-0.6-0.439-1.23-0.569-1.87
	s-0.2-1.3-0.2-1.95c0-0.65,0.07-1.31,0.2-1.96c0.13-0.63,0.319-1.26,0.569-1.87c0.25-0.6,0.561-1.18,0.921-1.72
	c0.359-0.55,0.779-1.06,1.239-1.52c0.46-0.46,0.971-0.88,1.521-1.25c0.54-0.36,1.13-0.67,1.729-0.92c0.601-0.25,1.23-0.44,1.87-0.57
	c1.29-0.26,2.62-0.26,3.91,0c0.64,0.13,1.26,0.32,1.87,0.57c0.6,0.25,1.18,0.56,1.72,0.92c0.55,0.37,1.061,0.79,1.521,1.25
	c0.47,0.46,0.88,0.97,1.25,1.52c0.359,0.54,0.67,1.12,0.92,1.72c0.25,0.61,0.439,1.24,0.569,1.87c0.131,0.65,0.19,1.31,0.19,1.96
	c0,0.65-0.06,1.31-0.19,1.95s-0.319,1.27-0.569,1.87c-0.25,0.61-0.561,1.19-0.92,1.73c-0.37,0.55-0.78,1.06-1.25,1.52
	c-0.46,0.46-0.971,0.88-1.521,1.24c-0.54,0.36-1.12,0.67-1.72,0.92c-0.61,0.25-1.23,0.44-1.87,0.57
	C361.898,326.149,361.248,326.219,360.588,326.219z"/>
    <path d="M324.303,326.217h-80.958c-5.523,0-10-4.477-10-10c0-5.523,4.477-10,10-10h80.958c5.522,0,10,4.477,10,10
	C334.303,321.74,329.826,326.217,324.303,326.217z"/>
    <path d="M360.592,367.309H243.345c-5.523,0-10-4.477-10-10s4.477-10,10-10h117.247c5.522,0,10,4.477,10,10
	S366.115,367.309,360.592,367.309z"/>
    <circle style="fill:#00CDB3;" cx="159.668" cy="336.767" r="43.957"/>
    <path d="M159.67,390.72c-29.752,0-53.957-24.205-53.957-53.957c0-29.753,24.205-53.957,53.957-53.957
	c29.752,0,53.956,24.205,53.956,53.957C213.627,366.516,189.422,390.72,159.67,390.72z M159.67,302.805
	c-18.724,0-33.958,15.233-33.958,33.958s15.233,33.958,33.958,33.958s33.957-15.233,33.957-33.958S178.394,302.805,159.67,302.805z"
    />
    <path d="M157.377,355.427c-1.273,0-2.558-0.244-3.782-0.744l-12.745-5.21c-5.112-2.09-7.562-7.928-5.472-13.041
	c2.09-5.112,7.929-7.56,13.041-5.472l6.591,2.694l12.625-12.625c3.905-3.905,10.237-3.906,14.142,0
	c3.905,3.906,3.906,10.237,0,14.142l-17.326,17.326C162.538,354.41,159.98,355.427,157.377,355.427z"/>
    <g>
</g>
</svg>
