<?xml version="1.0" encoding="iso-8859-1"?>
<svg height="512pt" fill="#e00d0d" viewBox="0 -36 512 512" width="512pt" xmlns="http://www.w3.org/2000/svg">
    <path d="m176 160c5.523438 0 10-4.476562 10-10v-80c0-5.523438-4.476562-10-10-10s-10 4.476562-10 10v10h-10c-5.523438 0-10 4.476562-10 10s4.476562 10 10 10h10v50c0 5.523438 4.476562 10 10 10zm0 0"/>
    <path d="m236 160c5.523438 0 10-4.476562 10-10v-80c0-5.523438-4.476562-10-10-10s-10 4.476562-10 10v10h-10c-5.523438 0-10 4.476562-10 10s4.476562 10 10 10h10v50c0 5.523438 4.476562 10 10 10zm0 0"/>
    <path d="m436 160c5.523438 0 10-4.476562 10-10v-80c0-5.523438-4.476562-10-10-10s-10 4.476562-10 10v10h-10c-5.523438 0-10 4.476562-10 10s4.476562 10 10 10h10v50c0 5.523438 4.476562 10 10 10zm0 0"/>
    <path d="m376 160c5.523438 0 10-4.476562 10-10v-80c0-5.523438-4.476562-10-10-10s-10 4.476562-10 10v10h-10c-5.523438 0-10 4.476562-10 10s4.476562 10 10 10h10v50c0 5.523438 4.476562 10 10 10zm0 0"/>
    <path d="m276 220h10v50c0 5.523438 4.476562 10 10 10s10-4.476562 10-10v-80c0-5.523438-4.476562-10-10-10s-10 4.476562-10 10v10h-10c-5.523438 0-10 4.476562-10 10s4.476562 10 10 10zm0 0"/>
    <path d="m216 220h10v50c0 5.523438 4.476562 10 10 10s10-4.476562 10-10v-80c0-5.523438-4.476562-10-10-10s-10 4.476562-10 10v10h-10c-5.523438 0-10 4.476562-10 10s4.476562 10 10 10zm0 0"/>
    <path d="m416 220h10v50c0 5.523438 4.476562 10 10 10s10-4.476562 10-10v-80c0-5.523438-4.476562-10-10-10s-10 4.476562-10 10v10h-10c-5.523438 0-10 4.476562-10 10s4.476562 10 10 10zm0 0"/>
    <path d="m76 220h10v50c0 5.523438 4.476562 10 10 10s10-4.476562 10-10v-80c0-5.523438-4.476562-10-10-10s-10 4.476562-10 10v10h-10c-5.523438 0-10 4.476562-10 10s4.476562 10 10 10zm0 0"/>
    <path d="m116 60h-40c-5.523438 0-10 4.476562-10 10v80c0 5.523438 4.476562 10 10 10h40c5.523438 0 10-4.476562 10-10v-80c0-5.523438-4.476562-10-10-10zm-10 80h-20v-60h20zm0 0"/>
    <path d="m316 60h-40c-5.523438 0-10 4.476562-10 10v80c0 5.523438 4.476562 10 10 10h40c5.523438 0 10-4.476562 10-10v-80c0-5.523438-4.476562-10-10-10zm-10 80h-20v-60h20zm0 0"/>
    <path d="m126 190v80c0 5.523438 4.476562 10 10 10h40c5.523438 0 10-4.476562 10-10v-80c0-5.523438-4.476562-10-10-10h-40c-5.523438 0-10 4.476562-10 10zm20 10h20v60h-20zm0 0"/>
    <path d="m326 190v80c0 5.523438 4.476562 10 10 10h40c5.523438 0 10-4.476562 10-10v-80c0-5.523438-4.476562-10-10-10h-40c-5.523438 0-10 4.476562-10 10zm20 10h20v60h-20zm0 0"/>
    <path d="m20 170c0 5.523438-4.476562 10-10 10s-10-4.476562-10-10 4.476562-10 10-10 10 4.476562 10 10zm0 0"/>
    <path d="m30 380h172.125l-13.332031 40h-72.792969c-5.523438 0-10 4.476562-10 10s4.476562 10 10 10h280c5.523438 0 10-4.476562 10-10s-4.476562-10-10-10h-72.792969l-13.332031-40h172.125c16.542969 0 30-13.457031 30-30v-320c0-16.542969-13.457031-30-30-30h-452c-16.542969 0-30 13.457031-30 30v100c0 5.523438 4.476562 10 10 10s10-4.476562 10-10v-100c0-5.515625 4.484375-10 10-10h452c5.515625 0 10 4.484375 10 10v270h-472v-90c0-5.523438-4.476562-10-10-10s-10 4.476562-10 10v140c0 16.542969 13.457031 30 30 30zm272.125 40h-92.25l13.332031-40h65.585938zm189.875-100v30c0 5.515625-4.484375 10-10 10-12.660156 0-438.078125 0-452 0-5.515625 0-10-4.484375-10-10v-30zm0 0"/>
</svg>