<svg id="Capa_1" enable-background="new 0 0 502.537 502.537" height="512" viewBox="0 0 502.537 502.537" width="512"
     xmlns="http://www.w3.org/2000/svg">
    <g>
        <g fill="#fbfbfb">
            <path d="m98.821 385.678v-24.087c0-5.51 4.467-9.977 9.977-9.977h237.65c20.143 0 39.168 9.256 51.601 25.104l6.774 8.635"/>
            <path d="m83.473 308.383h163.314v-276.427c-69.918 42.353-122.007 108.733-146.518 186.717l-24.778 78.834c-1.695 5.391 2.331 10.876 7.982 10.876z"/>
            <path d="m368.323 308.383h-121.536v-205.714c52.033 31.518 90.797 80.918 109.037 138.953l18.439 58.667c1.262 4.012-1.734 8.094-5.94 8.094z"/>
        </g>
        <path d="m246.787 31.956c-10.409 6.305-20.413 13.155-30 20.484v255.943h30z" fill="#e7e7e7"/>
        <path d="m374.264 300.289-18.439-58.668c-18.241-58.035-57.005-107.435-109.037-138.953v21.36c36.926 30.6 64.503 71.349 79.038 117.593l18.439 58.668c1.261 4.012-1.735 8.094-5.94 8.094h30c4.204 0 7.2-4.082 5.939-8.094z"
              fill="#e7e7e7"/>
        <path d="m414.032 484.798h-355.327c-14.459 0-27.208-9.48-31.371-23.328l-12.509-41.616h464.366l-38.973 51.865c-6.186 8.235-15.886 13.079-26.186 13.079z"
              fill="#f8e076"/>
        <path d="m448.421 454.798h-418.193c-2.977 0-5.607-1.938-6.488-4.782l-15.923-51.357c-1.355-4.371 1.912-8.805 6.488-8.805h487.782l-48.297 62.313c-1.287 1.66-3.269 2.631-5.369 2.631z"
              fill="#ecb822"/>
        <path d="m449.192 419.854-38.973 51.865c-6.188 8.234-15.888 13.079-26.188 13.079h30c10.3 0 20-4.845 26.188-13.079l38.973-51.865z"
              fill="#f5d339"/>
        <path d="m472.088 389.854-48.297 62.313c-1.287 1.66-3.269 2.632-5.369 2.632h30c2.1 0 4.082-.972 5.369-2.632l48.297-62.313z"
              fill="#dba812"/>
        <path d="m501.062 390.357c-2.42-4.937-7.338-8.003-12.835-8.003h-76.537c-.249-.569-.565-1.12-.966-1.631l-6.774-8.635c-13.946-17.778-34.905-27.974-57.502-27.974h-91.939v-28.231h113.814c4.354 0 8.49-2.095 11.066-5.605 2.575-3.509 3.334-8.084 2.029-12.238l-18.439-58.667c-18.346-58.371-56.784-108.178-108.471-140.736v-80.898c0-4.142-3.357-7.5-7.499-7.5s-7.5 3.358-7.5 7.5v9.91c-69.803 43.396-121.723 110.276-146.395 188.775l-24.778 78.834c-1.532 4.873-.677 10.028 2.345 14.146s7.685 6.479 12.792 6.479h156.036v28.231h-69.143c-4.142 0-7.5 3.358-7.5 7.5s3.358 7.5 7.5 7.5h176.081c17.959 0 34.616 8.104 45.701 22.233l.79 1.007h-286.617v-20.763c0-1.366 1.111-2.477 2.477-2.477h31.568c4.142 0 7.5-3.358 7.5-7.5s-3.358-7.5-7.5-7.5h-31.568c-9.637 0-17.477 7.84-17.477 17.477v20.763h-77.015c-4.59 0-8.784 2.119-11.506 5.815-2.723 3.695-3.505 8.328-2.145 12.711l19.499 62.749c5.154 17.148 20.647 28.669 38.553 28.669h355.327c12.59 0 24.621-6.009 32.184-16.073l53.309-70.821c3.366-4.345 3.954-10.111 1.535-15.047zm-261.775-89.474h-155.814c-.109 0-.439 0-.699-.354s-.161-.669-.128-.773l24.778-78.834c22.626-71.991 69.209-133.782 131.863-175.332zm109.382-57.012 17.92 57.012h-112.08v-184.306c44.648 30.64 77.841 75.371 94.16 127.294zm65.363 233.427h-355.326c-10.155 0-19.056-5.918-23.064-15h205.298c4.142 0 7.5-3.358 7.5-7.5s-3.358-7.5-7.5-7.5h-210.033l-5.994-19.944h438.62l-15.458 19.944h-177.135c-4.143 0-7.5 3.358-7.5 7.5s3.357 7.5 7.5 7.5h166.977l-3.694 4.916c-4.744 6.314-12.292 10.084-20.191 10.084zm61.127-64.944h-455.243l-4.651-15h471.52z"/>
        <path d="m183.545 230.252c-2.929 2.929-2.929 7.678 0 10.606l11.143 11.143-11.143 11.143c-2.929 2.929-2.929 7.677 0 10.606 1.464 1.465 3.384 2.197 5.303 2.197s3.839-.732 5.303-2.197l16.446-16.446c1.407-1.406 2.197-3.314 2.197-5.303s-.79-3.897-2.197-5.303l-16.446-16.446c-2.928-2.928-7.677-2.928-10.606 0z"/>
        <path d="m179.352 246.699-16.446-16.446c-2.929-2.93-7.678-2.929-10.607 0s-2.929 7.677 0 10.606l11.143 11.143-11.143 11.143c-2.929 2.929-2.929 7.678 0 10.606 1.464 1.464 3.384 2.197 5.303 2.197s3.839-.732 5.303-2.197l16.446-16.446c2.93-2.929 2.93-7.678.001-10.606z"/>
    </g>
</svg>