<?xml version="1.0" encoding="iso-8859-1"?>
<svg version="1.1" id="Layer_1" xmlns="http://www.w3.org/2000/svg" x="0px" y="0px"
     viewBox="0 0 512 512" style="enable-background:new 0 0 512 512;" xml:space="preserve">
<g>
	<g>
		<path d="M437.019,74.981C388.667,26.628,324.379,0,256,0S123.333,26.628,74.982,74.981C26.628,123.333,0,187.621,0,256
			s26.628,132.667,74.982,181.019C123.333,485.372,187.621,512,256,512s132.667-26.628,181.019-74.981S512,324.379,512,256
			S485.372,123.333,437.019,74.981z M256,495.832C123.756,495.832,16.168,388.244,16.168,256S123.756,16.168,256,16.168
			S495.832,123.756,495.832,256S388.244,495.832,256,495.832z"/>
	</g>
</g>
    <g>
	<g>
		<path d="M438.974,141.549c-1.918-13.133-12.506-23.354-25.748-24.853c-104.328-11.82-210.125-11.819-314.452,0
			c-13.243,1.5-23.83,11.72-25.749,24.854c-11.085,75.943-11.085,152.956,0,228.901c1.918,13.133,12.506,23.354,25.748,24.853
			c52.165,5.91,104.695,8.866,157.226,8.866c22.362,0,44.724-0.542,67.057-1.615c4.302-0.207,7.68-3.773,7.68-8.08
			c0-4.624-3.872-8.289-8.49-8.068c-73.921,3.543-148.157,1.159-221.654-7.169c-5.953-0.674-10.712-5.249-11.568-11.124
			c-10.859-74.394-10.859-149.836-0.001-224.229c0.858-5.876,5.616-10.45,11.57-11.124c51.559-5.841,103.482-8.762,155.406-8.762
			s103.847,2.92,155.407,8.762c5.953,0.674,10.712,5.249,11.568,11.124c10.859,74.394,10.859,149.836,0.001,224.229
			c-0.858,5.876-5.616,10.45-11.569,11.124c0,0,0,0-0.001,0c-16.624,1.883-33.288,3.462-49.976,4.737
			c-4.218,0.322-7.482,3.823-7.482,8.053v0.008c0,4.698,3.993,8.422,8.676,8.064c16.897-1.291,33.768-2.89,50.602-4.797
			c13.243-1.5,23.83-11.72,25.749-24.854C450.059,294.507,450.059,217.493,438.974,141.549z"/>
	</g>
</g>
    <g>
	<g>
		<path d="M345.99,248.843l-140.126-73.602c-2.506-1.317-5.518-1.227-7.94,0.238c-2.423,1.464-3.903,4.088-3.903,6.919v147.203
			c0,2.831,1.48,5.455,3.903,6.919c1.283,0.775,2.73,1.165,4.181,1.165c1.289,0,2.58-0.308,3.759-0.927l140.126-73.602
			c2.66-1.397,4.326-4.153,4.326-7.157C350.316,252.995,348.65,250.24,345.99,248.843z M210.189,316.224V195.776L324.846,256
			L210.189,316.224z"/>
	</g>
</g>
</svg>
