<?xml version="1.0" encoding="iso-8859-1"?>
<!-- Generator: Adobe Illustrator 19.0.0, SVG Export Plug-In . SVG Version: 6.00 Build 0)  -->
<svg version="1.1" id="Layer_1" xmlns="http://www.w3.org/2000/svg" xmlns:xlink="http://www.w3.org/1999/xlink" x="0px"
     y="0px"
     viewBox="0 0 512 512" style="enable-background:new 0 0 512 512;" xml:space="preserve">
<circle style="fill:#CD2900;" cx="256" cy="256" r="247.916"/>
    <path style="fill:#AB2400;" d="M256,8.084c-10.96,0-21.752,0.72-32.337,2.099C345.304,26.029,439.242,130.04,439.242,256
	s-93.939,229.971-215.579,245.817c10.585,1.379,21.377,2.099,32.337,2.099c136.921,0,247.916-110.996,247.916-247.916
	S392.921,8.084,256,8.084z"/>
    <path style="fill:#FFFFFF;" d="M256,396.624c-52.124,0-104.737-2.966-156.377-8.817c-9.842-1.115-17.71-8.701-19.13-18.448
	c-10.981-75.218-10.981-151.497-0.001-226.718c1.423-9.747,9.29-17.334,19.133-18.447c51.637-5.851,104.25-8.817,156.376-8.817
	s104.739,2.966,156.377,8.817c9.842,1.115,17.71,8.701,19.13,18.447c10.981,75.219,10.981,151.498,0.001,226.719
	c-1.423,9.747-9.29,17.333-19.132,18.447C360.737,393.657,308.124,396.624,256,396.624z"/>
    <path style="fill:#CD2900;" d="M208.76,185.286l126.353,66.367c3.503,1.84,3.503,6.855,0,8.695L208.76,326.715
	c-3.27,1.717-7.194-0.654-7.194-4.347V189.633C201.566,185.94,205.491,183.568,208.76,185.286z"/>
    <path d="M437.019,74.981C388.667,26.628,324.379,0,256,0S123.333,26.628,74.982,74.981C26.628,123.333,0,187.62,0,256
	s26.628,132.667,74.982,181.019C123.333,485.372,187.62,512,256,512s132.667-26.628,181.019-74.981
	C485.372,388.667,512,324.379,512,256S485.372,123.333,437.019,74.981z M256,495.832C123.756,495.832,16.168,388.244,16.168,256
	S123.756,16.168,256,16.168S495.832,123.756,495.832,256S388.244,495.832,256,495.832z"/>
    <path d="M438.974,141.549c-1.918-13.133-12.506-23.354-25.748-24.853c-104.328-11.82-210.125-11.819-314.452,0
	c-13.243,1.5-23.83,11.72-25.749,24.854c-11.085,75.943-11.085,152.956,0,228.901c1.918,13.133,12.506,23.354,25.748,24.853
	c52.165,5.91,104.695,8.866,157.226,8.866c22.362,0,44.724-0.542,67.057-1.615c4.302-0.207,7.68-3.773,7.68-8.08l0,0
	c0-4.624-3.872-8.289-8.49-8.068c-73.921,3.543-148.157,1.159-221.654-7.169c-5.953-0.674-10.712-5.249-11.568-11.124
	c-10.859-74.394-10.859-149.836-0.001-224.229c0.858-5.876,5.616-10.45,11.57-11.124c51.559-5.841,103.482-8.762,155.405-8.762
	s103.847,2.92,155.407,8.762c5.953,0.674,10.712,5.249,11.568,11.124c10.859,74.394,10.859,149.836,0.001,224.229
	c-0.858,5.876-5.616,10.45-11.569,11.124c0,0,0,0-0.001,0c-16.624,1.883-33.288,3.462-49.976,4.737
	c-4.218,0.322-7.482,3.823-7.482,8.053v0.008c0,4.697,3.993,8.422,8.676,8.064c16.897-1.291,33.768-2.89,50.602-4.797
	c13.243-1.5,23.83-11.72,25.749-24.854C450.059,294.507,450.059,217.493,438.974,141.549z"/>
    <path d="M345.99,248.843l-140.126-73.602c-2.506-1.317-5.518-1.227-7.94,0.238c-2.423,1.464-3.903,4.088-3.903,6.919v147.203
	c0,2.831,1.48,5.455,3.903,6.919c1.283,0.775,2.73,1.165,4.181,1.165c1.289,0,2.58-0.308,3.759-0.927l140.126-73.602
	c2.66-1.397,4.326-4.153,4.326-7.157C350.316,252.995,348.65,250.24,345.99,248.843z M210.189,316.224V195.776L324.846,256
	L210.189,316.224z"/>
</svg>
