<?xml version="1.0" encoding="UTF-8" standalone="no"?>
<!-- Created with Inkscape (http://www.inkscape.org/) -->

<svg
   xmlns:dc="http://purl.org/dc/elements/1.1/"
   xmlns:cc="http://creativecommons.org/ns#"
   xmlns:rdf="http://www.w3.org/1999/02/22-rdf-syntax-ns#"
   xmlns:svg="http://www.w3.org/2000/svg"
   xmlns="http://www.w3.org/2000/svg"
   xmlns:sodipodi="http://sodipodi.sourceforge.net/DTD/sodipodi-0.dtd"
   xmlns:inkscape="http://www.inkscape.org/namespaces/inkscape"
   width="48"
   height="48"
   id="svg2"
   version="1.1"
   inkscape:version="0.47 r22583"
   sodipodi:docname="terminal_color.svg">
  <title
     id="title2812">terminal icon</title>
  <defs
     id="defs4">
    <inkscape:perspective
       sodipodi:type="inkscape:persp3d"
       inkscape:vp_x="0 : 526.18109 : 1"
       inkscape:vp_y="0 : 1000 : 0"
       inkscape:vp_z="744.09448 : 526.18109 : 1"
       inkscape:persp3d-origin="372.04724 : 350.78739 : 1"
       id="perspective10" />
    <inkscape:perspective
       id="perspective3623"
       inkscape:persp3d-origin="0.5 : 0.33333333 : 1"
       inkscape:vp_z="1 : 0.5 : 1"
       inkscape:vp_y="0 : 1000 : 0"
       inkscape:vp_x="0 : 0.5 : 1"
       sodipodi:type="inkscape:persp3d" />
    <inkscape:perspective
       id="perspective3647"
       inkscape:persp3d-origin="0.5 : 0.33333333 : 1"
       inkscape:vp_z="1 : 0.5 : 1"
       inkscape:vp_y="0 : 1000 : 0"
       inkscape:vp_x="0 : 0.5 : 1"
       sodipodi:type="inkscape:persp3d" />
    <inkscape:perspective
       id="perspective3673"
       inkscape:persp3d-origin="0.5 : 0.33333333 : 1"
       inkscape:vp_z="1 : 0.5 : 1"
       inkscape:vp_y="0 : 1000 : 0"
       inkscape:vp_x="0 : 0.5 : 1"
       sodipodi:type="inkscape:persp3d" />
    <inkscape:perspective
       id="perspective3673-1"
       inkscape:persp3d-origin="0.5 : 0.33333333 : 1"
       inkscape:vp_z="1 : 0.5 : 1"
       inkscape:vp_y="0 : 1000 : 0"
       inkscape:vp_x="0 : 0.5 : 1"
       sodipodi:type="inkscape:persp3d" />
  </defs>
  <sodipodi:namedview
     id="base"
     pagecolor="#ffffff"
     bordercolor="#666666"
     borderopacity="1.0"
     inkscape:pageopacity="0.0"
     inkscape:pageshadow="2"
     inkscape:zoom="8"
     inkscape:cx="13.756084"
     inkscape:cy="25.089697"
     inkscape:document-units="px"
     inkscape:current-layer="layer1"
     showgrid="false"
     inkscape:window-width="1205"
     inkscape:window-height="774"
     inkscape:window-x="240"
     inkscape:window-y="54"
     inkscape:window-maximized="0" />
  <metadata
     id="metadata7">
    <rdf:RDF>
      <cc:Work
         rdf:about="">
        <dc:format>image/svg+xml</dc:format>
        <dc:type
           rdf:resource="http://purl.org/dc/dcmitype/StillImage" />
        <dc:title>terminal color icon</dc:title>
        <cc:license
           rdf:resource="" />
        <dc:date>2010</dc:date>
        <dc:creator>
          <cc:Agent>
            <dc:title>Francesco Poli</dc:title>
          </cc:Agent>
        </dc:creator>
        <dc:rights>
          <cc:Agent>
            <dc:title>Francesco Poli</dc:title>
          </cc:Agent>
        </dc:rights>
        <dc:description>
Copyright (c) 2010  Francesco Poli

This work is free software; you can redistribute it and/or modify
it under the terms of the GNU General Public License as published by
the Free Software Foundation; version 2 dated June, 1991.

This work is distributed in the hope that it will be useful,
but WITHOUT ANY WARRANTY; without even the implied warranty of
MERCHANTABILITY or FITNESS FOR A PARTICULAR PURPOSE. See the
GNU General Public License for more details.

You should have received a copy of the GNU General Public License
along with this package; if not, write to the Free Software Foundation,
Inc., 51 Franklin St, Fifth Floor, Boston, MA 02110-1301, USA.
</dc:description>
      </cc:Work>
    </rdf:RDF>
  </metadata>
  <g
     inkscape:label="Layer 1"
     inkscape:groupmode="layer"
     id="layer1"
     transform="translate(0,-1004.3622)">
    <path
       style="fill:none;stroke:#7d7d7d;stroke-width:1;stroke-linecap:butt;stroke-linejoin:miter;stroke-opacity:1;stroke-miterlimit:4;stroke-dasharray:none"
       d="m 23.145344,1040.2496 c 1.734631,-1.1683 11.029751,-1.7889 12.465353,-2.7529 0.732845,-0.6822 0.33507,-1.3644 -0.831839,-2.0465 -1.583887,-0.6896 -4.357251,-0.7381 -5.704038,-0.9096"
       id="path2820"
       sodipodi:nodetypes="cccc" />
    <path
       sodipodi:type="inkscape:offset"
       inkscape:radius="0.84029716"
       inkscape:original="M 23.1875 32.375 C 21.022822 32.315651 19.11397 32.787771 18.90625 33.40625 C 18.69853 34.024729 20.272822 34.565651 22.4375 34.625 C 24.602178 34.684349 26.51103 34.212229 26.71875 33.59375 L 26.75 33.53125 C 26.780642 32.945173 25.229617 32.430988 23.1875 32.375 z "
       style="fill:#aaaaaa;stroke:#000000;stroke-width:0.88875504999999999;stroke-linecap:round;stroke-miterlimit:4;stroke-opacity:1;stroke-dasharray:none;stroke-dashoffset:3.49999977000000007;fill-opacity:1"
       id="path3696"
       d="m 23.21875,31.53125 c -1.150125,-0.03153 -2.224228,0.07007 -3.09375,0.28125 -0.434761,0.105589 -0.819051,0.255923 -1.15625,0.4375 -0.337199,0.181577 -0.678425,0.38275 -0.84375,0.875 -0.165693,0.493345 0.08054,1.075583 0.375,1.34375 0.294459,0.268167 0.617075,0.430521 1,0.5625 0.765851,0.263957 1.759576,0.406062 2.90625,0.4375 1.150125,0.03153 2.224228,-0.07007 3.09375,-0.28125 0.434761,-0.105589 0.819051,-0.255923 1.15625,-0.4375 0.312683,-0.168376 0.604285,-0.39049 0.78125,-0.8125 l 0.03125,0.03125 0.03125,-0.0625 a 0.84038119,0.84038119 0 0 0 0,-0.03125 0.84038119,0.84038119 0 0 0 0.09375,-0.3125 C 27.621044,33.040463 27.291818,32.6593 27,32.4375 26.708182,32.2157 26.376391,32.091706 26,31.96875 25.247218,31.722839 24.304429,31.561016 23.21875,31.53125 z"
       transform="matrix(1.2157959,0,0,1.0412983,-4.9956268,1001.8003)" />
    <path
       style="fill:#d7d7d7;stroke:#000000;stroke-width:1;stroke-linecap:butt;stroke-linejoin:miter;stroke-miterlimit:4;stroke-opacity:1;stroke-dasharray:none;fill-opacity:1"
       d="m 7.9802413,1041.7815 30.5858237,-3.0823 0,0 4.860537,4.742 -36.7504074,5.0976 1.3040467,-6.7573 z"
       id="path2825"
       sodipodi:nodetypes="cccccc" />
    <path
       sodipodi:type="inkscape:offset"
       inkscape:radius="1.000561"
       inkscape:original="M 4.4375 1009.3125 L 4.5625 1036.6562 L 40.5625 1033.5 L 40.5625 1012.75 L 40.5625 1012.5 L 4.4375 1009.3125 z "
       style="fill:#aaaaaa;stroke:#000000;stroke-width:1;stroke-linecap:butt;stroke-linejoin:miter;stroke-miterlimit:4;stroke-opacity:1;stroke-dasharray:none;fill-opacity:1"
       id="path3637"
       d="m 4.3125,1008.3125 a 1.0006611,1.0006611 0 0 0 -0.875,1 l 0.125,27.3437 a 1.0006611,1.0006611 0 0 0 1.09375,1 l 36,-3.1562 a 1.0006611,1.0006611 0 0 0 0.90625,-1 l 0,-20.75 0,-0.25 a 1.0006611,1.0006611 0 0 0 -0.90625,-1 l -36.125,-3.1875 a 1.0006611,1.0006611 0 0 0 -0.21875,0 z" />
    <path
       sodipodi:type="inkscape:offset"
       inkscape:radius="-0.9943555"
       inkscape:original="M 5.53125 1010.5 L 5.65625 1035.4688 L 39.46875 1032.5 L 39.46875 1013.5 L 5.53125 1010.5 z "
       style="fill:#cbd1ff;fill-opacity:1;stroke:#000000;stroke-width:1;stroke-linecap:butt;stroke-linejoin:miter;stroke-miterlimit:4;stroke-opacity:1;stroke-dasharray:none"
       id="path3698"
       d="m 6.53125,1011.5938 0.125,22.7812 31.8125,-2.7812 0,-17.1876 -31.9375,-2.8124 z"
       transform="translate(0.12501,0.003678)" />
    <path
       style="fill:none;stroke:#7d7d7d;stroke-width:1px;stroke-linecap:butt;stroke-linejoin:miter;stroke-opacity:1"
       d="m 9.625,1042.9872 27.375,-3"
       id="path3663"
       sodipodi:nodetypes="cc" />
    <path
       style="fill:none;stroke:#7d7d7d;stroke-width:1px;stroke-linecap:butt;stroke-linejoin:miter;stroke-opacity:1"
       d="m 9.5625,1044.7372 28.875,-3.5"
       id="path3663-6"
       sodipodi:nodetypes="cc" />
    <path
       style="fill:none;stroke:#7d7d7d;stroke-width:1px;stroke-linecap:butt;stroke-linejoin:miter;stroke-opacity:1"
       d="m 9.0625,1046.6122 30.75,-4"
       id="path3663-0"
       sodipodi:nodetypes="cc" />
  </g>
</svg>
